<svg width="22" height="20" viewBox="0 0 22 20" fill="none" xmlns="http://www.w3.org/2000/svg">
<path d="M21.5474 14.3026L13.8774 1.58262C13.5673 1.09744 13.14 0.698147 12.6349 0.421562C12.1298 0.144976 11.5632 0 10.9874 0C10.4116 0 9.84499 0.144976 9.33992 0.421562C8.83485 0.698147 8.40755 1.09744 8.0974 1.58262L0.427405 14.3026C0.156458 14.7543 0.00919365 15.2693 0.00041668 15.7959C-0.00836029 16.3225 0.12166 16.8422 0.377405 17.3026C0.673084 17.8209 1.10106 18.2514 1.61761 18.55C2.13415 18.8487 2.72073 19.0049 3.3174 19.0026H18.6574C19.2502 19.0089 19.8341 18.8588 20.3503 18.5674C20.8665 18.2759 21.2966 17.8534 21.5974 17.3426C21.8607 16.8774 21.9948 16.3503 21.986 15.8158C21.9773 15.2814 21.8258 14.7589 21.5474 14.3026ZM10.9874 15.0026C10.7896 15.0026 10.5963 14.944 10.4318 14.8341C10.2674 14.7242 10.1392 14.568 10.0635 14.3853C9.98784 14.2026 9.96803 14.0015 10.0066 13.8075C10.0452 13.6136 10.1404 13.4354 10.2803 13.2955C10.4202 13.1557 10.5983 13.0604 10.7923 13.0218C10.9863 12.9833 11.1874 13.0031 11.3701 13.0787C11.5528 13.1544 11.709 13.2826 11.8189 13.4471C11.9288 13.6115 11.9874 13.8048 11.9874 14.0026C11.9874 14.2678 11.882 14.5222 11.6945 14.7097C11.507 14.8973 11.2526 15.0026 10.9874 15.0026ZM11.9874 11.0026C11.9874 11.2678 11.882 11.5222 11.6945 11.7097C11.507 11.8973 11.2526 12.0026 10.9874 12.0026C10.7222 12.0026 10.4678 11.8973 10.2803 11.7097C10.0928 11.5222 9.9874 11.2678 9.9874 11.0026V7.00262C9.9874 6.73741 10.0928 6.48305 10.2803 6.29552C10.4678 6.10798 10.7222 6.00262 10.9874 6.00262C11.2526 6.00262 11.507 6.10798 11.6945 6.29552C11.882 6.48305 11.9874 6.73741 11.9874 7.00262V11.0026Z" fill="white"/>
</svg>
