<svg width="20" height="20" viewBox="0 0 20 20" xmlns="http://www.w3.org/2000/svg">
<g clip-path="url(#clip0_3512_1265)">
<path d="M19.9951 19.9989V19.998H20.0001V12.663C20.0001 9.07471 19.2276 6.31055 15.0326 6.31055C13.0159 6.31055 11.6626 7.41721 11.1101 8.46638H11.0517V6.64555H7.07422V19.998H11.2159V13.3864C11.2159 11.6455 11.5459 9.96221 13.7017 9.96221C15.8259 9.96221 15.8576 11.9489 15.8576 13.498V19.9989H19.9951Z" />
<path d="M0.330078 6.64844H4.47675V20.0009H0.330078V6.64844Z" />
<path d="M2.40167 0C1.07583 0 0 1.07583 0 2.40167C0 3.7275 1.07583 4.82583 2.40167 4.82583C3.7275 4.82583 4.80333 3.7275 4.80333 2.40167C4.8025 1.07583 3.72667 0 2.40167 0V0Z" />
</g>
<defs>
<clipPath id="clip0_3512_1265">
<rect width="20" height="20" fill="white"/>
</clipPath>
</defs>
</svg>
