<svg width="14" height="13" viewBox="0 0 14 13" xmlns="http://www.w3.org/2000/svg">
<path d="M12.7037 9.99678L5.61257 9.99658V9.99678L5.61076 9.99658C5.49023 9.99664 5.37466 10.0445 5.28943 10.1298C5.20421 10.215 5.1563 10.3306 5.15625 10.4511C5.15625 10.4595 5.15825 10.4671 5.15865 10.4753V12.5454H5.16086C5.16085 12.6654 5.20833 12.7805 5.29293 12.8656C5.37752 12.9508 5.49236 12.999 5.61236 12.9997V12.9999H12.7035V12.9995C12.8235 12.9988 12.9383 12.9506 13.0229 12.8654C13.1075 12.7803 13.155 12.6652 13.155 12.5452V10.4711C13.1554 10.4643 13.157 10.4577 13.157 10.4509C13.157 10.3306 13.1093 10.2152 13.0243 10.1301C12.9393 10.0449 12.824 9.99699 12.7037 9.99678Z" />
<path d="M2.70915 9.99609H0.614669C0.494141 9.99615 0.378565 10.044 0.293339 10.1293C0.208112 10.2145 0.160209 10.3301 0.160156 10.4506V12.5447C0.160156 12.6652 0.208015 12.7808 0.293209 12.866C0.378403 12.9512 0.493959 12.9992 0.614469 12.9992H2.70875C2.82928 12.9992 2.94486 12.9512 3.03008 12.866C3.11531 12.7808 3.16321 12.6652 3.16327 12.5447V10.4506C3.16332 10.3909 3.15161 10.3318 3.12881 10.2767C3.10602 10.2216 3.07258 10.1715 3.0304 10.1292C2.98823 10.087 2.93815 10.0535 2.88303 10.0307C2.82791 10.0079 2.76882 9.99609 2.70915 9.99609Z" />
<path d="M12.7037 4.99092L5.61257 4.99072V4.99092L5.61076 4.99072C5.49023 4.99078 5.37466 5.03868 5.28943 5.12391C5.20421 5.20913 5.1563 5.32471 5.15625 5.44524C5.15625 5.45365 5.15825 5.46126 5.15865 5.46947V7.53952H5.16086C5.16085 7.65953 5.20833 7.77466 5.29293 7.85978C5.37752 7.9449 5.49236 7.99309 5.61236 7.99383V7.99403H12.7035V7.99363C12.8235 7.99289 12.9383 7.9447 13.0229 7.85958C13.1075 7.77446 13.155 7.65933 13.155 7.53932V5.46527C13.1554 5.45846 13.157 5.45185 13.157 5.44504C13.157 5.32474 13.1093 5.20935 13.0243 5.12421C12.9393 5.03907 12.824 4.99114 12.7037 4.99092Z" />
<path d="M2.70915 4.99048H0.614669C0.494141 4.99053 0.378565 5.03843 0.293339 5.12366C0.208112 5.20889 0.160209 5.32446 0.160156 5.44499V7.53908C0.160156 7.65959 0.208015 7.77516 0.293209 7.86039C0.378403 7.94563 0.493959 7.99354 0.614469 7.99359H2.70875C2.82928 7.99354 2.94486 7.94563 3.03008 7.86041C3.11531 7.77518 3.16321 7.6596 3.16327 7.53908V5.44499C3.16332 5.38532 3.15161 5.32623 3.12881 5.27109C3.10602 5.21595 3.07258 5.16584 3.0304 5.12363C2.98823 5.08142 2.93815 5.04793 2.88303 5.02508C2.82791 5.00224 2.76882 4.99048 2.70915 4.99048Z" />
<path d="M5.15885 2.549H5.16106C5.16106 2.669 5.20854 2.78414 5.29313 2.86926C5.37772 2.95438 5.49256 3.00257 5.61257 3.00331V3.00351H12.7037V3.00311C12.8237 3.00237 12.9385 2.95418 13.0231 2.86906C13.1077 2.78394 13.1552 2.6688 13.1552 2.5488V0.474744C13.1556 0.467934 13.1572 0.461323 13.1572 0.454513C13.1571 0.334176 13.1094 0.218772 13.0244 0.133606C12.9393 0.0484408 12.824 0.000465367 12.7037 0.000200204V0H5.61257V0.000200204L5.61076 0C5.49024 5.30844e-05 5.37466 0.0479562 5.28943 0.133182C5.20421 0.218409 5.1563 0.333985 5.15625 0.454513C5.15625 0.462926 5.15825 0.470538 5.15865 0.478751V2.549H5.15885Z" />
<path d="M2.70915 4.43805e-08H0.614669C0.494141 5.31287e-05 0.378565 0.0479562 0.293339 0.133182C0.208112 0.218409 0.160209 0.333985 0.160156 0.454513V2.5486C0.160156 2.66911 0.208015 2.78468 0.293209 2.86992C0.378403 2.95515 0.493959 3.00306 0.614469 3.00311H2.70875C2.82928 3.00306 2.94486 2.95515 3.03008 2.86993C3.11531 2.7847 3.16321 2.66912 3.16327 2.5486V0.454513C3.16334 0.394837 3.15166 0.335731 3.12887 0.280577C3.10608 0.225424 3.07264 0.175305 3.03046 0.133089C2.98828 0.0908732 2.93819 0.0573887 2.88306 0.0345517C2.82793 0.0117147 2.76883 -2.63433e-05 2.70915 4.43805e-08Z" />
</svg>
