<svg width="30" height="34" viewBox="0 0 30 34" fill="none" xmlns="http://www.w3.org/2000/svg">
<g filter="url(#filter0_i)">
<path d="M14 1.57735C14.6188 1.22008 15.3812 1.22008 16 1.57735L27.8564 8.42265C28.4752 8.77992 28.8564 9.44017 28.8564 10.1547V23.8453C28.8564 24.5598 28.4752 25.2201 27.8564 25.5774L16 32.4226C15.3812 32.7799 14.6188 32.7799 14 32.4226L2.14359 25.5774C1.52479 25.2201 1.14359 24.5598 1.14359 23.8453V10.1547C1.14359 9.44017 1.52479 8.77992 2.14359 8.42265L14 1.57735Z" fill="#37393D" fill-opacity="0.5"/>
</g>
<path d="M16.25 1.14434C15.4765 0.697756 14.5235 0.697755 13.75 1.14434L1.89359 7.98964C1.12009 8.43622 0.643594 9.26154 0.643594 10.1547V23.8453C0.643594 24.7385 1.12009 25.5638 1.89359 26.0104L13.75 32.8557C14.5235 33.3022 15.4765 33.3022 16.25 32.8557L28.1064 26.0104C28.8799 25.5638 29.3564 24.7385 29.3564 23.8453V10.1547C29.3564 9.26154 28.8799 8.43622 28.1064 7.98964L16.25 1.14434Z" stroke="#00BFFF"/>
<defs>
<filter id="filter0_i" x="0.144531" y="0.309326" width="29.7128" height="37.3812" filterUnits="userSpaceOnUse" color-interpolation-filters="sRGB">
<feFlood flood-opacity="0" result="BackgroundImageFix"/>
<feBlend mode="normal" in="SourceGraphic" in2="BackgroundImageFix" result="shape"/>
<feColorMatrix in="SourceAlpha" type="matrix" values="0 0 0 0 0 0 0 0 0 0 0 0 0 0 0 0 0 0 127 0" result="hardAlpha"/>
<feOffset dy="4"/>
<feGaussianBlur stdDeviation="2"/>
<feComposite in2="hardAlpha" operator="arithmetic" k2="-1" k3="1"/>
<feColorMatrix type="matrix" values="0 0 0 0 0 0 0 0 0 0 0 0 0 0 0 0 0 0 0.25 0"/>
<feBlend mode="normal" in2="shape" result="effect1_innerShadow"/>
</filter>
</defs>
</svg>
