<svg width="32" height="32" viewBox="0 0 32 32" fill="none" xmlns="http://www.w3.org/2000/svg">
<g filter="url(#filter0_i)">
<rect x="1" y="1" width="30" height="30" rx="15" fill="#37393D"/>
</g>
<rect x="0.5" y="0.5" width="31" height="31" rx="15.5" stroke="#00BFFF"/>
<path d="M11.9655 11.3945C11.9321 11.3611 11.9055 11.3214 11.8874 11.2777C11.8694 11.234 11.86 11.1872 11.86 11.14C11.86 11.0927 11.8694 11.0459 11.8874 11.0022C11.9055 10.9585 11.9321 10.9189 11.9655 10.8854L15.7455 7.10544C15.7789 7.07201 15.8186 7.04549 15.8623 7.0274C15.9059 7.00931 15.9527 7 16 7C16.0473 7 16.0941 7.00931 16.1377 7.0274C16.1814 7.04549 16.2211 7.07201 16.2545 7.10544L20.0345 10.8854C20.0689 10.9186 20.0963 10.9584 20.1152 11.0023C20.1341 11.0462 20.144 11.0935 20.1444 11.1413C20.1448 11.1891 20.1357 11.2365 20.1176 11.2807C20.0995 11.3249 20.0728 11.3651 20.039 11.3989C20.0052 11.4327 19.965 11.4595 19.9207 11.4776C19.8765 11.4957 19.8291 11.5048 19.7813 11.5044C19.7335 11.504 19.6863 11.494 19.6423 11.4752C19.5984 11.4563 19.5587 11.4289 19.5255 11.3945L16.36 8.22909V17.4426C16.36 17.5381 16.3221 17.6296 16.2546 17.6971C16.187 17.7646 16.0955 17.8026 16 17.8026C15.9045 17.8026 15.813 17.7646 15.7454 17.6971C15.6779 17.6296 15.64 17.5381 15.64 17.4426V8.22909L12.4745 11.3944C12.4411 11.4278 12.4014 11.4543 12.3577 11.4724C12.3141 11.4905 12.2673 11.4998 12.22 11.4998C12.1727 11.4998 12.1259 11.4905 12.0823 11.4724C12.0386 11.4543 11.9989 11.4278 11.9655 11.3944V11.3945ZM24.64 15.6426C24.5445 15.6426 24.453 15.6805 24.3854 15.748C24.3179 15.8155 24.28 15.9071 24.28 16.0026V22.4826C24.2799 22.578 24.2419 22.6695 24.1745 22.737C24.107 22.8045 24.0155 22.8425 23.92 22.8426H8.08C7.98455 22.8425 7.89304 22.8045 7.82555 22.737C7.75805 22.6695 7.7201 22.578 7.72 22.4826V16.0026C7.72 15.9071 7.68207 15.8155 7.61456 15.748C7.54705 15.6805 7.45548 15.6426 7.36 15.6426C7.26452 15.6426 7.17295 15.6805 7.10544 15.748C7.03793 15.8155 7 15.9071 7 16.0026V22.4826C7.00031 22.7689 7.11419 23.0434 7.31667 23.2459C7.51914 23.4484 7.79366 23.5623 8.08 23.5626H23.92C24.2063 23.5623 24.4809 23.4484 24.6833 23.2459C24.8858 23.0434 24.9997 22.7689 25 22.4826V16.0026C25 15.9071 24.9621 15.8155 24.8946 15.748C24.827 15.6805 24.7355 15.6426 24.64 15.6426Z" fill="#00BFFF"/>
<defs>
<filter id="filter0_i" x="0" y="0" width="32" height="36" filterUnits="userSpaceOnUse" color-interpolation-filters="sRGB">
<feFlood flood-opacity="0" result="BackgroundImageFix"/>
<feBlend mode="normal" in="SourceGraphic" in2="BackgroundImageFix" result="shape"/>
<feColorMatrix in="SourceAlpha" type="matrix" values="0 0 0 0 0 0 0 0 0 0 0 0 0 0 0 0 0 0 127 0" result="hardAlpha"/>
<feOffset dy="4"/>
<feGaussianBlur stdDeviation="2"/>
<feComposite in2="hardAlpha" operator="arithmetic" k2="-1" k3="1"/>
<feColorMatrix type="matrix" values="0 0 0 0 0 0 0 0 0 0 0 0 0 0 0 0 0 0 0.25 0"/>
<feBlend mode="normal" in2="shape" result="effect1_innerShadow"/>
</filter>
</defs>
</svg>
