<svg width="20" height="16" viewBox="0 0 20 16" fill="none" xmlns="http://www.w3.org/2000/svg">
<path d="M18.4042 1.94445L20 0.417785V0.0836182H14.4717L10.5317 9.89028L6.04917 0.0836182H0.2525V0.417785L2.11667 2.66195C2.29833 2.82778 2.39333 3.07028 2.36917 3.31445V12.1336C2.42667 12.4511 2.32333 12.7778 2.1 13.0086L0 15.5536V15.8836H5.95417V15.5495L3.85417 13.0086C3.62667 12.777 3.51917 12.4561 3.565 12.1336V4.50529L8.79167 15.8878H9.39917L13.8933 4.50529V13.5728C13.8933 13.812 13.8933 13.8611 13.7367 14.0178L12.12 15.582V15.917H19.9633V15.5828L18.405 14.057C18.2683 13.9536 18.1975 13.7803 18.2267 13.612V2.38945C18.1975 2.22029 18.2675 2.04695 18.4042 1.94445Z" fill="#212121"/>
</svg>
