<svg width="20" height="20" viewBox="0 0 20 20" fill="none" xmlns="http://www.w3.org/2000/svg">
<path fill-rule="evenodd" clip-rule="evenodd" d="M19.6881 15.7222C20.1462 16.6388 20.097 17.7272 19.5582 18.5987C19.0194 19.4703 18.0678 20.0006 17.0431 20.0006H2.95625C1.93153 20.001 0.979729 19.4706 0.441119 18.5988C-0.0974907 17.727 -0.146017 16.6385 0.312885 15.7222L7.35465 1.63538C7.8553 0.633172 8.87938 0 9.99968 0C11.12 0 12.1441 0.633172 12.6447 1.63538L19.6881 15.7222Z" fill="white"/>
<path fill-rule="evenodd" clip-rule="evenodd" d="M9.99976 15.0005C10.3449 15.0005 10.6248 15.2803 10.6248 15.6255C10.6248 15.9707 10.3449 16.2505 9.99976 16.2505C9.65458 16.2505 9.37476 15.9707 9.37476 15.6255C9.37476 15.2803 9.65458 15.0005 9.99976 15.0005Z" fill="#FF0000"/>
<path fill-rule="evenodd" clip-rule="evenodd" d="M9.99989 15.7507C10.0689 15.7507 10.1249 15.6948 10.1249 15.6257C10.1249 15.5567 10.0689 15.5007 9.99989 15.5007C9.93086 15.5007 9.87489 15.5567 9.87489 15.6257C9.87489 15.6948 9.93086 15.7507 9.99989 15.7507ZM8.62488 15.6257C8.62488 14.8663 9.24049 14.2507 9.99989 14.2507C10.7593 14.2507 11.3749 14.8663 11.3749 15.6257C11.3749 16.3851 10.7593 17.0007 9.99989 17.0007C9.24049 17.0007 8.62488 16.3851 8.62488 15.6257Z" fill="#FF0000"/>
<path fill-rule="evenodd" clip-rule="evenodd" d="M9.99988 5.50049C10.4141 5.50049 10.7499 5.83627 10.7499 6.25049V11.2506C10.7499 11.6648 10.4141 12.0006 9.99988 12.0006C9.58566 12.0006 9.24988 11.6648 9.24988 11.2506V6.25049C9.24988 5.83627 9.58566 5.50049 9.99988 5.50049Z" fill="#FF0000"/>
</svg>
