<svg width="91" height="80" viewBox="0 0 91 80" fill="none" xmlns="http://www.w3.org/2000/svg">
<path d="M0 41.5683C0 20.343 17.2065 3.13652 38.4318 3.13652C59.6571 3.13652 76.8636 20.343 76.8636 41.5683C76.8636 62.7936 59.6571 80.0002 38.4318 80.0002H0V41.5683Z" fill="#4AB7F3"/>
<path d="M90.9812 20.3924C90.9812 9.12998 81.8512 0 70.5888 0C59.3264 0 50.1964 9.12998 50.1964 20.3924C50.1964 31.6548 59.3264 40.7848 70.5888 40.7848H90.9812V20.3924Z" fill="#FFA000"/>
<path fill-rule="evenodd" clip-rule="evenodd" d="M76.8569 40.7845C76.5595 25.9124 67.8141 13.1128 55.2227 6.9879C52.094 10.5721 50.1987 15.2608 50.1987 20.3921C50.1987 31.6546 59.3287 40.7845 70.5911 40.7845H76.8569Z" fill="#078A3C"/>
</svg>
