<svg width="65" height="71" viewBox="0 0 65 71" fill="none" xmlns="http://www.w3.org/2000/svg">
<path d="M0.68164 21.4437H63.8973C64.0212 21.4437 64.0832 21.3198 64.0212 21.1958C58.8152 8.73863 46.482 0 32.1035 0C17.849 0 5.63973 8.5527 0.247807 20.824C0.123855 21.1339 0.371759 21.4437 0.68164 21.4437Z" fill="#F28301"/>
<path d="M64.1453 21.7535C64.1453 25.658 49.7048 28.7568 32.0417 28.7568C14.3785 28.7568 0 25.658 0 21.7535C0 17.849 14.4404 14.7502 32.1036 14.7502C49.7668 14.7502 64.1453 17.849 64.1453 21.7535Z" fill="#FFA000"/>
<path d="M63.4633 49.5566H0.247631C0.123679 49.5566 0.0617027 49.6806 0.123679 49.8045C5.39165 62.2617 17.7249 71.0004 32.1033 71.0004C46.3579 71.0004 58.5671 62.4477 63.8971 50.1764C64.021 49.9285 63.7731 49.5566 63.4633 49.5566Z" fill="#1F9CE2"/>
<path d="M0 49.2465C0 45.342 14.4404 42.2432 32.1036 42.2432C49.7668 42.2432 64.2073 45.4039 64.2073 49.2465C64.2073 53.089 49.7048 56.3117 32.1036 56.3117C14.5024 56.3117 0 53.151 0 49.2465Z" fill="#4AB7F3"/>
<path d="M32.1035 42.8112C49.7311 42.8112 64.0212 39.2858 64.0212 35.4734C64.0212 31.6609 49.7311 28.1619 32.1035 28.1619C14.4758 28.1619 0.185791 31.6609 0.185791 35.4734C0.185791 39.2858 14.4758 42.8112 32.1035 42.8112Z" fill="#078A3C"/>
</svg>
