<svg width="81" height="80" viewBox="0 0 81 80" fill="none" xmlns="http://www.w3.org/2000/svg">
<path d="M73.4941 80H7.17263C3.39177 80 0.333374 76.9175 0.333374 73.1607V6.83925C0.333374 3.0584 3.41585 0 7.17263 0H73.4941C77.275 0 80.3334 3.08248 80.3334 6.83925V73.1607C80.3334 76.9416 77.275 80 73.4941 80ZM3.2232 15.2679V73.1607C3.2232 75.3281 5.00526 77.1102 7.17263 77.1102H73.4941C75.6615 77.1102 77.4436 75.3281 77.4436 73.1607V15.2679H3.2232ZM3.2232 12.354H77.4436V6.83925C77.4436 4.67188 75.6615 2.88983 73.4941 2.88983H7.17263C5.00526 2.88983 3.2232 4.67188 3.2232 6.83925V12.354Z" fill="black"/>
<path d="M23.7169 9.44016H23.6928C22.6814 9.44016 21.8867 8.62138 21.8867 7.63402C21.8867 6.64666 22.7055 5.82788 23.6928 5.82788H23.7169C24.7284 5.82788 25.5231 6.64666 25.5231 7.63402C25.5231 8.62138 24.7284 9.44016 23.7169 9.44016ZM16.9499 9.44016H16.9258C15.9144 9.44016 15.1197 8.62138 15.1197 7.63402C15.1197 6.64666 15.9385 5.82788 16.9258 5.82788H16.9499C17.9614 5.82788 18.7561 6.64666 18.7561 7.63402C18.7561 8.62138 17.9373 9.44016 16.9499 9.44016ZM10.1588 9.44016H10.1348C9.12331 9.44016 8.32861 8.62138 8.32861 7.63402C8.32861 6.64666 9.1474 5.82788 10.1348 5.82788H10.1588C11.1703 5.82788 11.965 6.64666 11.965 7.63402C11.965 8.62138 11.1703 9.44016 10.1588 9.44016Z" fill="black"/>
<path d="M69.6651 70.9213H11.0017C10.207 70.9213 9.55676 70.2711 9.55676 69.4764V34.2205C9.55676 33.4258 10.207 32.7756 11.0017 32.7756C11.7964 32.7756 12.4466 33.4258 12.4466 34.2205V68.0074H23.3316V34.2446C23.3316 33.4499 23.9818 32.7997 24.7765 32.7997C25.5712 32.7997 26.2214 33.4499 26.2214 34.2446V68.0074H45.7518V34.2446C45.7518 33.4499 46.4021 32.7997 47.1968 32.7997C47.9915 32.7997 48.6417 33.4499 48.6417 34.2446V68.0074H68.1721V34.2446C68.1721 33.4499 68.8223 32.7997 69.617 32.7997C70.4117 32.7997 71.0619 33.4499 71.0619 34.2446V69.4523C71.1101 70.2711 70.4599 70.9213 69.6651 70.9213Z" fill="black"/>
<path d="M69.665 35.6895H11.0016C10.2069 35.6895 9.55664 35.0393 9.55664 34.2446V22.4926C9.55664 21.6979 10.2069 21.0477 11.0016 21.0477H69.6409C70.4356 21.0477 71.0858 21.6979 71.0858 22.4926V34.2446C71.1099 35.0393 70.4597 35.6895 69.665 35.6895ZM12.4705 32.7997H68.2201V23.9616H12.4705V32.7997Z" fill="black"/>
<path d="M69.6651 59.1693H11.0017C10.207 59.1693 9.55676 58.5191 9.55676 57.7244C9.55676 56.9297 10.207 56.2795 11.0017 56.2795H69.641C70.4357 56.2795 71.0859 56.9297 71.0859 57.7244C71.0859 58.5191 70.4598 59.1693 69.6651 59.1693ZM69.6651 47.4415H11.0017C10.207 47.4415 9.55676 46.7913 9.55676 45.9965C9.55676 45.2018 10.207 44.5516 11.0017 44.5516H69.641C70.4357 44.5516 71.0859 45.2018 71.0859 45.9965C71.0859 46.7913 70.4598 47.4415 69.6651 47.4415Z" fill="black"/>
<path d="M47.2207 35.6895C46.426 35.6895 45.7758 35.0393 45.7758 34.2446V22.4926C45.7758 21.6979 46.426 21.0477 47.2207 21.0477C48.0154 21.0477 48.6656 21.6979 48.6656 22.4926V34.2446C48.6656 35.0393 48.0395 35.6895 47.2207 35.6895ZM24.8005 35.6895C24.0058 35.6895 23.3556 35.0393 23.3556 34.2446V22.4926C23.3556 21.6979 24.0058 21.0477 24.8005 21.0477C25.5952 21.0477 26.2454 21.6979 26.2454 22.4926V34.2446C26.2454 35.0393 25.5952 35.6895 24.8005 35.6895Z" fill="black"/>
</svg>
