<svg width="79" height="76" viewBox="0 0 79 76" fill="none" xmlns="http://www.w3.org/2000/svg">
<path fill-rule="evenodd" clip-rule="evenodd" d="M15.8341 52.8001H49.1674C51.0084 52.8001 52.5008 54.2328 52.5008 56.0001V74.4001H12.5008V56.0001C12.5008 54.2328 13.9931 52.8001 15.8341 52.8001ZM2.96743 40.4257L39.7808 2.88014C40.2672 2.40835 41.0146 2.29073 41.6324 2.58875C42.2503 2.88677 42.5981 3.53271 42.4941 4.18894C41.0403 24.2723 25.0443 40.5895 4.25076 43.2001C3.55361 43.228 2.90951 42.8441 2.62633 42.2319C2.34314 41.6197 2.47839 40.9035 2.96743 40.4257Z" stroke="black" stroke-width="3" stroke-linecap="round" stroke-linejoin="round"/>
<path d="M40 52.7997V36.713" stroke="black" stroke-width="3" stroke-linecap="round" stroke-linejoin="round"/>
<path d="M2.5 74.4005H77.5" stroke="black" stroke-width="3" stroke-linecap="round" stroke-linejoin="round"/>
<path d="M37.5 62.3999H27.5V74.3999H37.5V62.3999Z" stroke="black" stroke-width="3" stroke-linecap="round" stroke-linejoin="round"/>
<path d="M22.624 36.8006C25.4249 40.0675 29.9625 41.4518 34.2141 40.3364C38.4656 39.2209 41.6391 35.8134 42.3198 31.633C42.9738 27.6164 41.2095 23.6052 37.7936 21.25M72.5007 74.4006H52.5007V47.2358C52.4902 46.7161 52.7434 46.224 53.1795 45.916C53.6156 45.608 54.1804 45.5226 54.694 45.687L71.3607 51.127C72.0474 51.3569 72.5056 51.9808 72.5007 52.679V74.4006Z" stroke="black" stroke-width="3" stroke-linecap="round" stroke-linejoin="round"/>
<path d="M67.5 49.8798V38.3998" stroke="black" stroke-width="3" stroke-linecap="round" stroke-linejoin="round"/>
<path d="M57.5 40.8005V46.6005" stroke="black" stroke-width="3" stroke-linecap="round" stroke-linejoin="round"/>
<path d="M14.5668 28.5917L10.8802 19.7373C10.1418 17.9527 10.5823 15.9174 12.0002 14.5629L14.8235 11.8397C16.238 10.4817 18.3595 10.0638 20.2168 10.7773L28.8035 14.0797" stroke="black" stroke-width="3" stroke-linecap="round" stroke-linejoin="round"/>
<path d="M13.4072 13.2006L7.15723 7.20056" stroke="black" stroke-width="3" stroke-linecap="round" stroke-linejoin="round"/>
</svg>
