<svg width="20" height="33" viewBox="0 0 20 33" xmlns="http://www.w3.org/2000/svg">
  <path d="M9.65528 32.4415C9.68143 32.4677 9.70541 32.4917 9.73374 32.5113L10.2132 32.9907L10.6948 32.5091C10.7515 32.4655 10.7995 32.4176 10.843 32.3609L19.6978 23.5061C19.9005 23.3078 19.9833 23.0157 19.9114 22.739C19.8373 22.4644 19.6237 22.2508 19.3491 22.1767C19.0724 22.1048 18.7803 22.1876 18.582 22.3903L11.0021 29.9701L11.0021 1.70467C11.0087 1.41917 10.8583 1.1511 10.612 1.00944C10.3658 0.863425 10.0606 0.863425 9.81437 1.00944C9.5681 1.1511 9.41773 1.41917 9.42426 1.70467L9.42427 29.9701L1.8444 22.3903C1.64608 22.1876 1.35404 22.1048 1.07726 22.1767C0.802659 22.2508 0.589081 22.4644 0.514982 22.739C0.443062 23.0157 0.525879 23.3078 0.728561 23.5061L9.5899 32.3674C9.60951 32.3958 9.63349 32.4197 9.65528 32.4415Z" />
</svg>
