<svg width="78" height="60" viewBox="0 0 78 60" fill="none" xmlns="http://www.w3.org/2000/svg">
<g clip-path="url(#clip0_5226_7242)">
<path d="M38.5844 39.9204C27.5945 39.9204 18.6353 48.8845 18.6353 59.8806H58.5336C58.6531 48.8845 49.6939 39.9204 38.5844 39.9204Z" fill="#4AB7F3"/>
<path d="M69.2881 0H8C3.58172 0 0 3.58171 0 7.99999V41.9602C0 46.3784 3.58173 49.9602 8 49.9602H69.2881C73.7064 49.9602 77.2881 46.3784 77.2881 41.9602V8C77.2881 3.58172 73.7064 0 69.2881 0Z" fill="#141873"/>
<path d="M33.8 23.8H28C27.4477 23.8 27 24.2478 27 24.8V31.6H34.8V24.8C34.8 24.2478 34.3523 23.8 33.8 23.8Z" fill="#4AB7F3" style="mix-blend-mode:multiply"/>
<path d="M41.6001 19.3H35.8C35.2478 19.3 34.8 19.7478 34.8 20.3001V31.6H42.6V20.3C42.6 19.7478 42.1523 19.3 41.6001 19.3Z" fill="#078A3C"/>
<path d="M49.4001 13H43.6001C43.0478 13 42.6001 13.4477 42.6001 14V31.6H50.4001V14C50.4001 13.4477 49.9524 13 49.4001 13Z" fill="#FFA000" style="mix-blend-mode:multiply"/>
<path fill-rule="evenodd" clip-rule="evenodd" d="M55.9652 49.9601C52.5442 43.968 46.0498 39.9202 38.5845 39.9202C31.1994 39.9202 24.7314 43.968 21.2827 49.9601H55.9652Z" fill="#444CE7"/>
</g>
<defs>
<clipPath id="clip0_5226_7242">
<rect width="77.2881" height="60" fill="white"/>
</clipPath>
</defs>
</svg>
