<svg width="74" height="74" viewBox="0 0 74 74" fill="none" xmlns="http://www.w3.org/2000/svg">
<path d="M36.9999 71.6459C56.1344 71.6459 71.6459 56.1344 71.6459 36.9999C71.6459 17.8655 56.1344 2.354 36.9999 2.354C17.8655 2.354 2.354 17.8655 2.354 36.9999C2.354 56.1344 17.8655 71.6459 36.9999 71.6459Z" fill="#0C1063" stroke="#0C1063" stroke-width="3"/>
<path d="M49.0701 22.4323H22.9242C22.1674 22.4323 21.562 21.8269 21.562 21.0702C21.562 20.3134 22.1674 19.708 22.9242 19.708H49.0701C49.8269 19.708 50.4323 20.3134 50.4323 21.0702C50.4323 21.8269 49.8269 22.4323 49.0701 22.4323Z" fill="#4AB7F3"/>
<path d="M42.9405 26.5944H23.6053C22.8486 26.5944 22.2432 25.989 22.2432 25.2323C22.2432 24.4755 22.8486 23.8701 23.6053 23.8701H42.9405C43.6972 23.8701 44.3026 24.4755 44.3026 25.2323C44.3026 25.989 43.6972 26.5944 42.9405 26.5944Z" fill="#4AB7F3"/>
<path d="M41.4269 30.7568H25.1188C24.362 30.7568 23.7566 30.1514 23.7566 29.3946C23.7566 28.6379 24.362 28.0325 25.1188 28.0325H41.4269C42.1836 28.0325 42.789 28.6379 42.789 29.3946C42.789 30.1514 42.1836 30.7568 41.4269 30.7568Z" fill="#4AB7F3"/>
<path d="M32.573 34.5405H28.9405C28.1838 34.5405 27.5784 33.9351 27.5784 33.1783C27.5784 32.4216 28.1838 31.8162 28.9405 31.8162H32.573C33.3297 31.8162 33.9351 32.4216 33.9351 33.1783C33.9351 33.9351 33.3297 34.5405 32.573 34.5405Z" fill="#4AB7F3"/>
<path d="M39.9134 34.5405H39.308C38.5512 34.5405 37.9458 33.9351 37.9458 33.1783C37.9458 32.4216 38.5512 31.8162 39.308 31.8162H39.9134C40.6701 31.8162 41.2755 32.4216 41.2755 33.1783C41.2755 33.9351 40.6701 34.5405 39.9134 34.5405Z" fill="#4AB7F3"/>
<path d="M37.4162 38.9675H33.7838C33.027 38.9675 32.4216 38.3621 32.4216 37.6053C32.4216 36.8486 33.027 36.2432 33.7838 36.2432H37.4162C38.173 36.2432 38.7784 36.8486 38.7784 37.6053C38.7784 38.3242 38.173 38.9675 37.4162 38.9675Z" fill="#4AB7F3"/>
<path d="M48.0108 43.2053H40.5946C39.8378 43.2053 39.2324 42.5999 39.2324 41.8431C39.2324 41.0864 39.8378 40.481 40.5946 40.481H48.0108C48.7676 40.481 49.373 41.0864 49.373 41.8431C49.373 42.5999 48.7676 43.2053 48.0108 43.2053Z" fill="#4AB7F3"/>
<path d="M52.7404 47.3676H41.6539C40.8972 47.3676 40.2917 46.7622 40.2917 46.0055C40.2917 45.2487 40.8972 44.6433 41.6539 44.6433H52.7404C53.4972 44.6433 54.1026 45.2487 54.1026 46.0055C54.1026 46.7622 53.4972 47.3676 52.7404 47.3676Z" fill="#078A3C"/>
<path d="M56.789 51.5297H43.8106C43.0539 51.5297 42.4485 50.9243 42.4485 50.1676C42.4485 49.4108 43.0539 48.8054 43.8106 48.8054H56.789C57.5458 48.8054 58.1512 49.4108 58.1512 50.1676C58.189 50.9243 57.5458 51.5297 56.789 51.5297Z" fill="#078A3C"/>
<path d="M54.8595 55.6919H45.6649C44.9081 55.6919 44.3027 55.0865 44.3027 54.3297C44.3027 53.5729 44.9081 52.9675 45.6649 52.9675H54.8595C55.6162 52.9675 56.2217 53.5729 56.2217 54.3297C56.2217 55.0865 55.6162 55.6919 54.8595 55.6919Z" fill="#078A3C"/>
<path d="M51.4541 59.854H45.6649C44.9081 59.854 44.3027 59.2486 44.3027 58.4918C44.3027 57.735 44.9081 57.1296 45.6649 57.1296H51.4541C52.2108 57.1296 52.8162 57.735 52.8162 58.4918C52.8162 59.2486 52.2108 59.854 51.4541 59.854Z" fill="#078A3C"/>
<path d="M46.7621 64.0161H44.7567C43.9999 64.0161 43.3945 63.4107 43.3945 62.6539C43.3945 61.8972 43.9999 61.2917 44.7567 61.2917H46.7621C47.5189 61.2917 48.1243 61.8972 48.1243 62.6539C48.1243 63.4107 47.5189 64.0161 46.7621 64.0161Z" fill="#078A3C"/>
<path d="M66.7783 37.5675C66.7783 38.3242 67.3837 38.9296 68.1405 38.9296H70.1081C70.1459 38.2864 70.1837 37.6432 70.1837 36.9621C70.1837 36.6972 70.1837 36.4323 70.1837 36.1675H68.1783C67.3837 36.2053 66.7783 36.8107 66.7783 37.5675Z" fill="#4AB7F3"/>
<path d="M69.7676 31.8162C69.6919 31.8162 69.6162 31.7783 69.5406 31.7783H68.9352C68.1784 31.7783 67.573 32.3837 67.573 33.1405C67.573 33.8972 68.1784 34.5026 68.9352 34.5026H69.5406C69.7298 34.5026 69.9189 34.4648 70.0703 34.3891C69.9946 33.5567 69.8811 32.6864 69.7676 31.8162Z" fill="#4AB7F3"/>
<path d="M35.1459 18.2702H21.8648C21.1081 18.2702 20.5027 17.6648 20.5027 16.9081C20.5027 16.1513 21.1081 15.5459 21.8648 15.5459H35.1459C35.9027 15.5459 36.5081 16.1513 36.5081 16.9081C36.5081 17.6648 35.9027 18.2702 35.1459 18.2702Z" fill="#FFA000"/>
<path d="M46.6865 18.2702H43.6217C42.8649 18.2702 42.2595 17.6648 42.2595 16.9081C42.2595 16.1513 42.8649 15.5459 43.6217 15.5459H46.6865C47.4433 15.5459 48.0487 16.1513 48.0487 16.9081C48.0487 17.6648 47.4433 18.2702 46.6865 18.2702Z" fill="#FFA000"/>
<path d="M13.2 13.9189C13.3891 14.0324 13.6162 14.1081 13.8432 14.1081H33.1783C33.9351 14.1081 34.5405 13.5027 34.5405 12.746C34.5405 11.9892 33.9351 11.3838 33.1783 11.3838H16C15.0162 12.1784 14.0702 13.0108 13.2 13.9189Z" fill="#FFA000"/>
<path d="M44.5675 14.1081H42.6378C41.881 14.1081 41.2756 13.5027 41.2756 12.746C41.2756 11.9892 41.881 11.3838 42.6378 11.3838H44.5675C45.3243 11.3838 45.9297 11.9892 45.9297 12.746C45.9297 13.5027 45.3243 14.1081 44.5675 14.1081Z" fill="#FFA000"/>
<path d="M39.2324 7.18384H22.4702C20.8432 7.97843 19.2918 8.88654 17.854 9.946H39.2324C39.9891 9.946 40.5945 9.34059 40.5945 8.58384C40.5945 7.82708 39.9891 7.18384 39.2324 7.18384Z" fill="#FFA000"/>
<path d="M27.3512 5.78374H33.8215C34.5783 5.78374 35.1837 5.17834 35.1837 4.42158C35.1837 4.23239 35.1458 4.08104 35.0702 3.92969C32.1188 4.08104 29.281 4.64861 26.5566 5.51888C26.7837 5.70807 27.0485 5.78374 27.3512 5.78374Z" fill="#FFA000"/>
</svg>
