<svg width="700" height="265" viewBox="0 0 700 265" fill="none" xmlns="http://www.w3.org/2000/svg">
<path d="M0 215.767H122.64V258.026H181.293V215.767H211.674V167.294H181.293V3.48012H104.039L0 167.791V215.767ZM123.88 167.294H61.0097V165.305L121.895 68.608H123.88V167.294Z" fill="#EBEBEB"/>
<path d="M348.884 264.24C415.35 264.364 456.147 215.146 456.271 131.126C456.395 47.603 415.35 0 348.884 0C282.418 0 241.745 47.4787 241.621 131.126C241.373 214.897 282.418 264.24 348.884 264.24ZM348.884 213.903C322.471 213.903 304.491 187.305 304.739 131.126C304.863 76.0653 322.595 49.9645 348.884 49.9645C375.297 49.9645 393.029 76.0653 393.153 131.126C393.277 187.305 375.421 213.903 348.884 213.903Z" fill="#EBEBEB"/>
<path d="M488.326 215.767H610.965V258.026H669.619V215.767H700V167.294H669.619V3.48012H592.365L488.326 167.791V215.767ZM612.205 167.294H549.336V165.305L610.221 68.608H612.205V167.294Z" fill="#EBEBEB"/>
</svg>
