<svg width="700" height="265" viewBox="0 0 700 265" fill="none" xmlns="http://www.w3.org/2000/svg">
<path d="M97.9426 261.506C158.07 261.506 198.154 224.219 198.154 171.768C198.154 123.295 163.868 88.7429 117.481 88.7429C93.0266 88.7429 72.7321 99.059 64.1606 113.104H62.648L68.5724 53.0717H182.902V3.48012H17.2692L6.05051 140.696L61.1353 150.888C68.0682 139.453 82.4382 132.369 97.5644 132.493C121.262 132.493 138.153 149.023 138.027 173.509C138.153 197.869 121.514 214.276 97.9426 214.276C77.9003 214.276 61.3874 201.971 60.5051 183.203H0C0.756313 228.942 41.4712 261.506 97.9426 261.506Z" fill="#EBEBEB"/>
<path d="M339.175 264.24C406.739 264.364 448.21 215.146 448.336 131.126C448.462 47.603 406.739 0 339.175 0C271.611 0 230.266 47.4787 230.14 131.126C229.888 214.897 271.611 264.24 339.175 264.24ZM339.175 213.903C312.326 213.903 294.048 187.305 294.301 131.126C294.427 76.0653 312.452 49.9645 339.175 49.9645C366.024 49.9645 384.05 76.0653 384.176 131.126C384.302 187.305 366.15 213.903 339.175 213.903Z" fill="#EBEBEB"/>
<path d="M590.838 264.24C658.402 264.364 699.874 215.146 700 131.126C700.126 47.603 658.402 0 590.838 0C523.274 0 481.929 47.4787 481.803 131.126C481.551 214.897 523.274 264.24 590.838 264.24ZM590.838 213.903C563.989 213.903 545.712 187.305 545.964 131.126C546.09 76.0653 564.115 49.9645 590.838 49.9645C617.688 49.9645 635.713 76.0653 635.839 131.126C635.965 187.305 617.814 213.903 590.838 213.903Z" fill="#EBEBEB"/>
</svg>
