<svg width="181" height="15" viewBox="0 0 181 15" fill="none" xmlns="http://www.w3.org/2000/svg">
<path d="M0 0.2H2.6V12H9.92V14.2H0V0.2Z" fill="black"/>
<path d="M24.1503 10.96H17.1503L15.7703 14.2H13.0903L19.3903 0.2H21.9503L28.2703 14.2H25.5503L24.1503 10.96ZM23.2903 8.92L20.6503 2.8L18.0303 8.92H23.2903Z" fill="black"/>
<path d="M45.4908 0.2V14.2H43.3508L35.6308 4.72V14.2H33.0508V0.2H35.1908L42.9108 9.68V0.2H45.4908Z" fill="black"/>
<path d="M52.2422 0.2H58.3622C59.8555 0.2 61.1822 0.493333 62.3422 1.08C63.5022 1.65333 64.4022 2.47333 65.0422 3.54C65.6822 4.59333 66.0022 5.81333 66.0022 7.2C66.0022 8.58667 65.6822 9.81333 65.0422 10.88C64.4022 11.9333 63.5022 12.7533 62.3422 13.34C61.1822 13.9133 59.8555 14.2 58.3622 14.2H52.2422V0.2ZM58.2422 12C59.2689 12 60.1689 11.8067 60.9422 11.42C61.7289 11.02 62.3288 10.46 62.7422 9.74C63.1688 9.00667 63.3822 8.16 63.3822 7.2C63.3822 6.24 63.1688 5.4 62.7422 4.68C62.3288 3.94667 61.7289 3.38667 60.9422 3C60.1689 2.6 59.2689 2.4 58.2422 2.4H54.8422V12H58.2422Z" fill="black"/>
<path d="M81.3256 7.04H83.7856V12.62C83.0656 13.1933 82.2256 13.6333 81.2656 13.94C80.3056 14.2467 79.319 14.4 78.3056 14.4C76.879 14.4 75.5923 14.0933 74.4456 13.48C73.299 12.8533 72.399 11.9933 71.7456 10.9C71.0923 9.80667 70.7656 8.57333 70.7656 7.2C70.7656 5.82667 71.0923 4.59333 71.7456 3.5C72.399 2.40667 73.299 1.55333 74.4456 0.94C75.6056 0.313333 76.9056 0 78.3456 0C79.519 0 80.5856 0.193333 81.5456 0.58C82.5056 0.966667 83.3123 1.53333 83.9656 2.28L82.3256 3.88C81.259 2.81333 79.9723 2.28 78.4656 2.28C77.479 2.28 76.599 2.48667 75.8256 2.9C75.0656 3.31333 74.4656 3.89333 74.0256 4.64C73.599 5.38667 73.3856 6.24 73.3856 7.2C73.3856 8.13333 73.599 8.97333 74.0256 9.72C74.4656 10.4667 75.0656 11.0533 75.8256 11.48C76.599 11.9067 77.4723 12.12 78.4456 12.12C79.539 12.12 80.499 11.88 81.3256 11.4V7.04Z" fill="black"/>
<path d="M99.3748 14.2L96.5148 10.1C96.3948 10.1133 96.2148 10.12 95.9748 10.12H92.8148V14.2H90.2148V0.2H95.9748C97.1882 0.2 98.2415 0.4 99.1348 0.8C100.042 1.2 100.735 1.77333 101.215 2.52C101.695 3.26667 101.935 4.15333 101.935 5.18C101.935 6.23333 101.675 7.14 101.155 7.9C100.648 8.66 99.9148 9.22667 98.9548 9.6L102.175 14.2H99.3748ZM99.3148 5.18C99.3148 4.28667 99.0215 3.6 98.4348 3.12C97.8482 2.64 96.9882 2.4 95.8548 2.4H92.8148V7.98H95.8548C96.9882 7.98 97.8482 7.74 98.4348 7.26C99.0215 6.76667 99.3148 6.07333 99.3148 5.18Z" fill="black"/>
<path d="M107.844 0.2H110.444V14.2H107.844V0.2Z" fill="black"/>
<path d="M119.83 2.38V6.64H126.59V8.84H119.83V14.2H117.23V0.2H127.45V2.38H119.83Z" fill="black"/>
<path d="M135.565 2.38V6.64H142.325V8.84H135.565V14.2H132.965V0.2H143.185V2.38H135.565Z" fill="black"/>
<path d="M155.083 14.4C153.656 14.4 152.37 14.0933 151.223 13.48C150.076 12.8533 149.176 11.9933 148.523 10.9C147.87 9.79333 147.543 8.56 147.543 7.2C147.543 5.84 147.87 4.61333 148.523 3.52C149.176 2.41333 150.076 1.55333 151.223 0.94C152.37 0.313333 153.656 0 155.083 0C156.51 0 157.796 0.313333 158.943 0.94C160.09 1.55333 160.99 2.40667 161.643 3.5C162.296 4.59333 162.623 5.82667 162.623 7.2C162.623 8.57333 162.296 9.80667 161.643 10.9C160.99 11.9933 160.09 12.8533 158.943 13.48C157.796 14.0933 156.51 14.4 155.083 14.4ZM155.083 12.12C156.016 12.12 156.856 11.9133 157.603 11.5C158.35 11.0733 158.936 10.4867 159.363 9.74C159.79 8.98 160.003 8.13333 160.003 7.2C160.003 6.26667 159.79 5.42667 159.363 4.68C158.936 3.92 158.35 3.33333 157.603 2.92C156.856 2.49333 156.016 2.28 155.083 2.28C154.15 2.28 153.31 2.49333 152.563 2.92C151.816 3.33333 151.23 3.92 150.803 4.68C150.376 5.42667 150.163 6.26667 150.163 7.2C150.163 8.13333 150.376 8.98 150.803 9.74C151.23 10.4867 151.816 11.0733 152.563 11.5C153.31 11.9133 154.15 12.12 155.083 12.12Z" fill="black"/>
<path d="M180.819 0.2V14.2H178.679L170.959 4.72V14.2H168.379V0.2H170.519L178.239 9.68V0.2H180.819Z" fill="black"/>
</svg>
