<svg width="181" height="16" viewBox="0 0 181 16" fill="none" xmlns="http://www.w3.org/2000/svg">
<path d="M0 0.999804H2.6V12.7998H9.92V14.9998H0V0.999804Z" fill="black"/>
<path d="M24.1503 11.7598H17.1503L15.7703 14.9998H13.0903L19.3903 0.999804H21.9503L28.2703 14.9998H25.5503L24.1503 11.7598ZM23.2903 9.71981L20.6503 3.5998L18.0303 9.71981H23.2903Z" fill="black"/>
<path d="M45.4908 0.999804V14.9998H43.3508L35.6308 5.5198V14.9998H33.0508V0.999804H35.1908L42.9108 10.4798V0.999804H45.4908Z" fill="black"/>
<path d="M52.2422 0.999804H58.3622C59.8555 0.999804 61.1822 1.29314 62.3422 1.87981C63.5022 2.45314 64.4022 3.27314 65.0422 4.3398C65.6822 5.39314 66.0022 6.61314 66.0022 7.99981C66.0022 9.38647 65.6822 10.6131 65.0422 11.6798C64.4022 12.7331 63.5022 13.5531 62.3422 14.1398C61.1822 14.7131 59.8555 14.9998 58.3622 14.9998H52.2422V0.999804ZM58.2422 12.7998C59.2689 12.7998 60.1689 12.6065 60.9422 12.2198C61.7289 11.8198 62.3288 11.2598 62.7422 10.5398C63.1688 9.80647 63.3822 8.95981 63.3822 7.99981C63.3822 7.03981 63.1688 6.1998 62.7422 5.4798C62.3288 4.74647 61.7289 4.18647 60.9422 3.79981C60.1689 3.39981 59.2689 3.1998 58.2422 3.1998H54.8422V12.7998H58.2422Z" fill="black"/>
<path d="M81.3256 7.83981H83.7856V13.4198C83.0656 13.9931 82.2256 14.4331 81.2656 14.7398C80.3056 15.0465 79.319 15.1998 78.3056 15.1998C76.879 15.1998 75.5923 14.8931 74.4456 14.2798C73.299 13.6531 72.399 12.7931 71.7456 11.6998C71.0923 10.6065 70.7656 9.37314 70.7656 7.99981C70.7656 6.62647 71.0923 5.39314 71.7456 4.2998C72.399 3.20647 73.299 2.35314 74.4456 1.7398C75.6056 1.11314 76.9056 0.799805 78.3456 0.799805C79.519 0.799805 80.5856 0.993138 81.5456 1.3798C82.5056 1.76647 83.3123 2.33314 83.9656 3.07981L82.3256 4.6798C81.259 3.61314 79.9723 3.07981 78.4656 3.07981C77.479 3.07981 76.599 3.28647 75.8256 3.69981C75.0656 4.11314 74.4656 4.69314 74.0256 5.43981C73.599 6.18647 73.3856 7.03981 73.3856 7.99981C73.3856 8.93314 73.599 9.77314 74.0256 10.5198C74.4656 11.2665 75.0656 11.8531 75.8256 12.2798C76.599 12.7065 77.4723 12.9198 78.4456 12.9198C79.539 12.9198 80.499 12.6798 81.3256 12.1998V7.83981Z" fill="black"/>
<path d="M99.3748 14.9998L96.5148 10.8998C96.3948 10.9131 96.2148 10.9198 95.9748 10.9198H92.8148V14.9998H90.2148V0.999804H95.9748C97.1882 0.999804 98.2415 1.1998 99.1348 1.5998C100.042 1.9998 100.735 2.57314 101.215 3.3198C101.695 4.06647 101.935 4.95314 101.935 5.9798C101.935 7.03314 101.675 7.93981 101.155 8.69981C100.648 9.45981 99.9148 10.0265 98.9548 10.3998L102.175 14.9998H99.3748ZM99.3148 5.9798C99.3148 5.08647 99.0215 4.39981 98.4348 3.91981C97.8482 3.4398 96.9882 3.1998 95.8548 3.1998H92.8148V8.77981H95.8548C96.9882 8.77981 97.8482 8.5398 98.4348 8.0598C99.0215 7.56647 99.3148 6.87314 99.3148 5.9798Z" fill="black"/>
<path d="M107.844 0.999804H110.444V14.9998H107.844V0.999804Z" fill="black"/>
<path d="M119.83 3.1798V7.43981H126.59V9.6398H119.83V14.9998H117.23V0.999804H127.45V3.1798H119.83Z" fill="black"/>
<path d="M135.565 3.1798V7.43981H142.325V9.6398H135.565V14.9998H132.965V0.999804H143.185V3.1798H135.565Z" fill="black"/>
<path d="M155.083 15.1998C153.656 15.1998 152.37 14.8931 151.223 14.2798C150.076 13.6531 149.176 12.7931 148.523 11.6998C147.87 10.5931 147.543 9.35981 147.543 7.99981C147.543 6.63981 147.87 5.41314 148.523 4.31981C149.176 3.21314 150.076 2.35314 151.223 1.7398C152.37 1.11314 153.656 0.799805 155.083 0.799805C156.51 0.799805 157.796 1.11314 158.943 1.7398C160.09 2.35314 160.99 3.20647 161.643 4.2998C162.296 5.39314 162.623 6.62647 162.623 7.99981C162.623 9.37314 162.296 10.6065 161.643 11.6998C160.99 12.7931 160.09 13.6531 158.943 14.2798C157.796 14.8931 156.51 15.1998 155.083 15.1998ZM155.083 12.9198C156.016 12.9198 156.856 12.7131 157.603 12.2998C158.35 11.8731 158.936 11.2865 159.363 10.5398C159.79 9.77981 160.003 8.93314 160.003 7.99981C160.003 7.06647 159.79 6.22647 159.363 5.4798C158.936 4.7198 158.35 4.13314 157.603 3.71981C156.856 3.29314 156.016 3.07981 155.083 3.07981C154.15 3.07981 153.31 3.29314 152.563 3.71981C151.816 4.13314 151.23 4.7198 150.803 5.4798C150.376 6.22647 150.163 7.06647 150.163 7.99981C150.163 8.93314 150.376 9.77981 150.803 10.5398C151.23 11.2865 151.816 11.8731 152.563 12.2998C153.31 12.7131 154.15 12.9198 155.083 12.9198Z" fill="black"/>
<path d="M180.819 0.999804V14.9998H178.679L170.959 5.5198V14.9998H168.379V0.999804H170.519L178.239 10.4798V0.999804H180.819Z" fill="black"/>
</svg>
