<svg width="20" height="20" viewBox="0 0 20 20" fill="none" xmlns="http://www.w3.org/2000/svg">
<g clip-path="url(#clip0)">
<path d="M19.9951 19.9995V19.9987H20.0001V12.6637C20.0001 9.07538 19.2276 6.31122 15.0326 6.31122C13.0159 6.31122 11.6626 7.41788 11.1101 8.46705H11.0517V6.64622H7.07422V19.9987H11.2159V13.387C11.2159 11.6462 11.5459 9.96288 13.7017 9.96288C15.8259 9.96288 15.8576 11.9495 15.8576 13.4987V19.9995H19.9951Z" fill="black"/>
<path d="M0.330231 6.64771H4.4769V20.0002H0.330231V6.64771Z" fill="black"/>
<path d="M2.40167 0C1.07583 0 0 1.07583 0 2.40167C0 3.7275 1.07583 4.82583 2.40167 4.82583C3.7275 4.82583 4.80333 3.7275 4.80333 2.40167C4.8025 1.07583 3.72667 0 2.40167 0V0Z" fill="black"/>
</g>
<defs>
<clipPath id="clip0">
<rect width="20" height="20" fill="white"/>
</clipPath>
</defs>
</svg>
