<svg width="20" height="20" viewBox="0 0 20 20" fill="none" xmlns="http://www.w3.org/2000/svg">
<path d="M14.8125 3C14.4644 3 14.1306 3.13828 13.8844 3.38442C13.6383 3.63056 13.5 3.9644 13.5 4.3125V15.6875C13.5 16.0356 13.6383 16.3694 13.8844 16.6156C14.1306 16.8617 14.4644 17 14.8125 17H15.6875C16.0356 17 16.3694 16.8617 16.6156 16.6156C16.8617 16.3694 17 16.0356 17 15.6875V4.3125C17 3.9644 16.8617 3.63056 16.6156 3.38442C16.3694 3.13828 16.0356 3 15.6875 3H14.8125ZM9.5625 6.5C9.2144 6.5 8.88056 6.63828 8.63442 6.88442C8.38828 7.13056 8.25 7.4644 8.25 7.8125V15.6875C8.25 16.0356 8.38828 16.3694 8.63442 16.6156C8.88056 16.8617 9.2144 17 9.5625 17H10.4375C10.7856 17 11.1194 16.8617 11.3656 16.6156C11.6117 16.3694 11.75 16.0356 11.75 15.6875V7.8125C11.75 7.4644 11.6117 7.13056 11.3656 6.88442C11.1194 6.63828 10.7856 6.5 10.4375 6.5H9.5625ZM4.3125 10C3.9644 10 3.63056 10.1383 3.38442 10.3844C3.13828 10.6306 3 10.9644 3 11.3125V15.6875C3 16.0356 3.13828 16.3694 3.38442 16.6156C3.63056 16.8617 3.9644 17 4.3125 17H5.1875C5.5356 17 5.86944 16.8617 6.11558 16.6156C6.36172 16.3694 6.5 16.0356 6.5 15.6875V11.3125C6.5 10.9644 6.36172 10.6306 6.11558 10.3844C5.86944 10.1383 5.5356 10 5.1875 10H4.3125Z" fill="black"/>
</svg>
