<svg width="20" height="20" viewBox="0 0 20 20" fill="none" xmlns="http://www.w3.org/2000/svg">
<path fill-rule="evenodd" clip-rule="evenodd" d="M19 10C19 12.3869 18.0518 14.6761 16.364 16.364C14.6761 18.0518 12.3869 19 10 19C7.61305 19 5.32387 18.0518 3.63604 16.364C1.94821 14.6761 1 12.3869 1 10C1 7.61305 1.94821 5.32387 3.63604 3.63604C5.32387 1.94821 7.61305 1 10 1C12.3869 1 14.6761 1.94821 16.364 3.63604C18.0518 5.32387 19 7.61305 19 10ZM17.3125 10C17.3126 11.209 17.0129 12.3991 16.4403 13.4639C15.8677 14.5287 15.04 15.4349 14.0314 16.1014C13.0227 16.7679 11.8645 17.1739 10.6605 17.2831C9.45645 17.3923 8.24413 17.2012 7.13202 16.7271C6.01991 16.2529 5.04271 15.5104 4.28788 14.566C3.53306 13.6216 3.02416 12.5048 2.80673 11.3156C2.5893 10.1263 2.67013 8.9017 3.04198 7.75133C3.41383 6.60096 4.0651 5.56073 4.9375 4.72375V5.22662C4.93746 5.74372 5.03928 6.25576 5.23713 6.7335C5.43499 7.21125 5.725 7.64534 6.09063 8.011L8.07963 10L7.75 10.3296C7.53909 10.5406 7.42062 10.8267 7.42062 11.125C7.42062 11.4233 7.53909 11.7094 7.75 11.9204L8.9425 13.1129C9.09938 13.2696 9.22384 13.4556 9.30878 13.6604C9.39371 13.8652 9.43745 14.0848 9.4375 14.3065V14.7149C9.43761 14.9237 9.49587 15.1285 9.60575 15.3061C9.71562 15.4837 9.87278 15.6273 10.0596 15.7206L10.3701 15.877C10.5023 15.9431 10.6463 15.9825 10.7937 15.9929C10.9412 16.0034 11.0892 15.9847 11.2294 15.9379C11.3697 15.8911 11.4993 15.8171 11.6109 15.7202C11.7225 15.6232 11.8139 15.5053 11.8799 15.373L13.5156 12.1015C13.6739 11.7848 13.7285 11.4263 13.6718 11.0768C13.6151 10.7273 13.4498 10.4045 13.1995 10.1541L12.331 9.28562C12.1834 9.13788 11.9975 9.03416 11.7942 8.98607C11.591 8.93799 11.3783 8.94744 11.1801 9.01338L10.7481 9.15738C10.6197 9.20046 10.48 9.19574 10.3547 9.14406C10.2295 9.09239 10.1271 8.99725 10.0664 8.87613L9.73337 8.21013C9.68213 8.10844 9.66428 7.99319 9.68234 7.88077C9.7004 7.76835 9.75346 7.66449 9.83398 7.58398C9.91449 7.50347 10.0183 7.4504 10.1308 7.43234C10.2432 7.41428 10.3584 7.43214 10.4601 7.48338L10.7549 7.63075C10.911 7.70899 11.0831 7.74981 11.2577 7.75H11.4692C11.6475 7.75004 11.8232 7.70773 11.9819 7.62653C12.1406 7.54534 12.2777 7.4276 12.382 7.28302C12.4863 7.13843 12.5547 6.97114 12.5816 6.79493C12.6085 6.61871 12.5932 6.43862 12.5369 6.2695L12.4604 6.04C12.425 5.93388 12.422 5.81962 12.4519 5.7118C12.4817 5.60399 12.543 5.50753 12.628 5.43475L14.248 4.0465C15.1965 4.72257 15.9696 5.6157 16.5027 6.65137C17.0358 7.68703 17.3135 8.83518 17.3125 10Z" fill="black"/>
</svg>
