<svg width="20" height="20" viewBox="0 0 20 20" fill="none" xmlns="http://www.w3.org/2000/svg">
<path d="M10 19C8.755 19 7.585 18.7638 6.49 18.2913C5.395 17.8188 4.4425 17.1775 3.6325 16.3675C2.8225 15.5575 2.18125 14.605 1.70875 13.51C1.23625 12.415 1 11.245 1 10C1 8.755 1.23625 7.585 1.70875 6.49C2.18125 5.395 2.8225 4.4425 3.6325 3.6325C4.4425 2.8225 5.395 2.18125 6.49 1.70875C7.585 1.23625 8.755 1 10 1C11.245 1 12.415 1.23625 13.51 1.70875C14.605 2.18125 15.5575 2.8225 16.3675 3.6325C17.1775 4.4425 17.8188 5.395 18.2913 6.49C18.7638 7.585 19 8.755 19 10C19 11.245 18.7638 12.415 18.2913 13.51C17.8188 14.605 17.1775 15.5575 16.3675 16.3675C15.5575 17.1775 14.605 17.8188 13.51 18.2913C12.415 18.7638 11.245 19 10 19ZM10 17.2C12.01 17.2 13.7125 16.5025 15.1075 15.1075C16.5025 13.7125 17.2 12.01 17.2 10C17.2 7.99 16.5025 6.2875 15.1075 4.8925C13.7125 3.4975 12.01 2.8 10 2.8C7.99 2.8 6.2875 3.4975 4.8925 4.8925C3.4975 6.2875 2.8 7.99 2.8 10C2.8 12.01 3.4975 13.7125 4.8925 15.1075C6.2875 16.5025 7.99 17.2 10 17.2ZM10 15.4C8.5 15.4 7.225 14.875 6.175 13.825C5.125 12.775 4.6 11.5 4.6 10C4.6 8.5 5.125 7.225 6.175 6.175C7.225 5.125 8.5 4.6 10 4.6C11.5 4.6 12.775 5.125 13.825 6.175C14.875 7.225 15.4 8.5 15.4 10C15.4 11.5 14.875 12.775 13.825 13.825C12.775 14.875 11.5 15.4 10 15.4ZM10 13.6C10.99 13.6 11.8375 13.2475 12.5425 12.5425C13.2475 11.8375 13.6 10.99 13.6 10C13.6 9.01 13.2475 8.1625 12.5425 7.4575C11.8375 6.7525 10.99 6.4 10 6.4C9.01 6.4 8.1625 6.7525 7.4575 7.4575C6.7525 8.1625 6.4 9.01 6.4 10C6.4 10.99 6.7525 11.8375 7.4575 12.5425C8.1625 13.2475 9.01 13.6 10 13.6ZM10 11.8C9.505 11.8 9.08125 11.6238 8.72875 11.2713C8.37625 10.9188 8.2 10.495 8.2 10C8.2 9.505 8.37625 9.08125 8.72875 8.72875C9.08125 8.37625 9.505 8.2 10 8.2C10.495 8.2 10.9188 8.37625 11.2713 8.72875C11.6238 9.08125 11.8 9.505 11.8 10C11.8 10.495 11.6238 10.9188 11.2713 11.2713C10.9188 11.6238 10.495 11.8 10 11.8Z" fill="black"/>
</svg>
