<svg width="20" height="20" viewBox="0 0 20 20" fill="none" xmlns="http://www.w3.org/2000/svg">
<path fill-rule="evenodd" clip-rule="evenodd" d="M20.0006 4.43786C19.033 5.50514 18.7335 7.08744 18.4195 8.74728C18.142 10.2139 17.853 11.741 17.0815 13.0268C16.0747 14.7049 12.7998 18.1944 9.24298 15.8095C10.3408 12.0115 12.0909 9.59898 12.878 8.75129C12.878 8.75129 10.7326 10.2657 8.85395 12.9799C8.4626 13.5254 8.11933 14.0455 7.83069 14.5139C7.83055 14.5137 7.83041 14.5135 7.83026 14.5134C7.65843 14.7922 7.50595 15.0528 7.37423 15.2895C6.14475 13.0709 4.35643 11.8086 4.35643 11.8086C4.83792 12.3271 5.90849 13.8029 6.57998 16.1261C4.40445 17.5846 2.40139 15.4503 1.78556 14.4239C1.31364 13.6374 1.13689 12.7032 0.967147 11.8062L0.967146 11.8062C0.775034 10.7909 0.591896 9.82301 0 9.17018C2.83506 8.42411 5.47066 9.31329 6.90942 10.8902C7.5706 6.31808 13.461 2.71691 20.0006 4.43786Z" fill="black"/>
</svg>
