<svg width="80" height="70" viewBox="0 0 80 70" fill="none" xmlns="http://www.w3.org/2000/svg">
<path d="M0 36.372C0 17.7999 15.0557 2.7442 33.6279 2.7442C52.2 2.7442 67.2557 17.7999 67.2557 36.3721C67.2557 54.9442 52.2 69.9999 33.6278 69.9999H0V36.372Z" fill="#4AB7F3"/>
<path d="M79.6084 17.8434C79.6084 7.98874 71.6197 0 61.765 0C51.9104 0 43.9217 7.98874 43.9217 17.8433C43.9217 27.698 51.9104 35.6867 61.765 35.6867H79.6084V17.8434Z" fill="#FFA000"/>
<path fill-rule="evenodd" clip-rule="evenodd" d="M48.3199 6.11456C45.5822 9.25074 43.9238 13.3534 43.9238 17.8433C43.9238 27.6979 51.9126 35.6867 61.7672 35.6867H67.25C66.9898 22.6735 59.3375 11.4738 48.3199 6.11456Z" fill="#078A3C"/>
</svg>
