<svg width="18" height="16" viewBox="0 0 18 16" xmlns="http://www.w3.org/2000/svg">
<path d="M9.32657 0.330477C9.43106 0.22572 9.5552 0.142607 9.69186 0.0858982C9.82852 0.0291894 9.97503 0 10.123 0C10.271 0 10.4175 0.0291894 10.5541 0.0858982C10.6908 0.142607 10.8149 0.22572 10.9194 0.330477L17.6687 7.07979C17.7735 7.18429 17.8566 7.30842 17.9133 7.44508C17.97 7.58174 17.9992 7.72825 17.9992 7.87621C17.9992 8.02417 17.97 8.17068 17.9133 8.30734C17.8566 8.44401 17.7735 8.56814 17.6687 8.67263L10.9194 15.4219C10.7082 15.6332 10.4217 15.7518 10.123 15.7518C9.82427 15.7518 9.53779 15.6332 9.32657 15.4219C9.11535 15.2107 8.99668 14.9242 8.99668 14.6255C8.99668 14.3268 9.11535 14.0403 9.32657 13.8291L15.2817 7.87621L9.32657 1.92332C9.22181 1.81882 9.1387 1.69469 9.08199 1.55803C9.02528 1.42137 8.99609 1.27486 8.99609 1.1269C8.99609 0.978935 9.02528 0.832427 9.08199 0.695764C9.1387 0.559102 9.22181 0.434969 9.32657 0.330477Z"/>
<path d="M0 7.8766C0 7.57826 0.118515 7.29214 0.329472 7.08118C0.540429 6.87022 0.826548 6.75171 1.12489 6.75171H15.7484C16.0467 6.75171 16.3329 6.87022 16.5438 7.08118C16.7548 7.29214 16.8733 7.57826 16.8733 7.8766C16.8733 8.17493 16.7548 8.46105 16.5438 8.67201C16.3329 8.88297 16.0467 9.00148 15.7484 9.00148H1.12489C0.826548 9.00148 0.540429 8.88297 0.329472 8.67201C0.118515 8.46105 0 8.17493 0 7.8766Z"/>
</svg>
