<svg width="16" height="13" viewBox="0 0 16 13" xmlns="http://www.w3.org/2000/svg">
<path d="M7.76438 0.0586668C7.83672 0.0201467 7.91742 0 7.99938 0C8.08133 0 8.16203 0.0201467 8.23438 0.0586668L15.7344 4.05867C15.8142 4.10134 15.881 4.16491 15.9276 4.24258C15.9742 4.32025 15.9988 4.40911 15.9988 4.49967C15.9988 4.59023 15.9742 4.67908 15.9276 4.75675C15.881 4.83442 15.8142 4.89799 15.7344 4.94067L8.23438 8.94067C8.16203 8.97919 8.08133 8.99933 7.99938 8.99933C7.91742 8.99933 7.83672 8.97919 7.76438 8.94067L0.264375 4.94067C0.184503 4.89799 0.11772 4.83442 0.0711572 4.75675C0.0245944 4.67908 0 4.59023 0 4.49967C0 4.40911 0.0245944 4.32025 0.0711572 4.24258C0.11772 4.16491 0.184503 4.10134 0.264375 4.05867L7.76438 0.0586668Z"/>
<path d="M2.12438 7.06665L0.264375 8.05865C0.184503 8.10133 0.11772 8.16489 0.0711572 8.24256C0.0245944 8.32023 0 8.40909 0 8.49965C0 8.59021 0.0245944 8.67907 0.0711572 8.75674C0.11772 8.83441 0.184503 8.89797 0.264375 8.94065L7.76438 12.9406C7.83672 12.9792 7.91742 12.9993 7.99938 12.9993C8.08133 12.9993 8.16203 12.9792 8.23438 12.9406L15.7344 8.94065C15.8142 8.89797 15.881 8.83441 15.9276 8.75674C15.9742 8.67907 15.9988 8.59021 15.9988 8.49965C15.9988 8.40909 15.9742 8.32023 15.9276 8.24256C15.881 8.16489 15.8142 8.10133 15.7344 8.05865L13.8744 7.06665L8.70438 9.82265C8.48735 9.93821 8.24525 9.99865 7.99938 9.99865C7.7535 9.99865 7.5114 9.93821 7.29438 9.82265L7.71238 9.03765L7.29338 9.82265L2.12438 7.06665Z"/>
</svg>
