<svg width="19" height="19" viewBox="0 0 19 19" fill="none" xmlns="http://www.w3.org/2000/svg">
<path opacity="0.5" fill-rule="evenodd" clip-rule="evenodd" d="M1.58984 2.94126C1.58984 2.19408 2.19555 1.58838 2.94272 1.58838H6.0692C6.75328 1.58838 7.30783 2.14293 7.30783 2.82701C7.30783 3.33885 7.72276 3.75378 8.2346 3.75378H14.7946C16.2407 3.75378 17.413 4.92607 17.413 6.37217V14.312C17.413 16.0238 16.0253 17.4115 14.3134 17.4115H5.59522C3.38311 17.4115 1.58984 15.6183 1.58984 13.4062V2.94126ZM2.94272 0.0883789C1.36712 0.0883789 0.0898438 1.36565 0.0898438 2.94126V13.4062C0.0898438 16.4467 2.55468 18.9115 5.59522 18.9115H14.3134C16.8537 18.9115 18.913 16.8522 18.913 14.312V6.37217C18.913 4.09764 17.0691 2.25378 14.7946 2.25378H8.74774C8.48423 1.01646 7.3851 0.0883789 6.0692 0.0883789H2.94272ZM6.62769 9.87099C6.16465 9.87099 5.78928 10.2464 5.78928 10.7094C5.78928 11.1725 6.16465 11.5478 6.62769 11.5478H12.3751C12.8381 11.5478 13.2135 11.1725 13.2135 10.7094C13.2135 10.2464 12.8381 9.87099 12.3751 9.87099H6.62769Z" fill="#00BFFF"/>
</svg>
