<svg width="20" height="20" xmlns="http://www.w3.org/2000/svg"><title>hide</title><path fill-rule="evenodd" clip-rule="evenodd" d="M3.25 2.28a1 1 0 0 0-1.415 1.415l14 14a1 1 0 0 0 1.414-1.414l-1.473-1.473a10.013 10.013 0 0 0 3.308-4.82c-1.274-4.057-5.064-7-9.542-7A9.958 9.958 0 0 0 5.03 4.062L3.25 2.28zm4.26 4.26l1.514 1.516a2.003 2.003 0 0 1 2.45 2.45l1.514 1.514A4 4 0 0 0 7.51 6.542V6.54z"/><path d="M11.996 16.684L9.292 13.98a4 4 0 0 1-3.742-3.74L1.877 6.565A9.98 9.98 0 0 0 0 9.987c1.274 4.057 5.065 7 9.542 7 .847 0 1.669-.104 2.454-.302z" /></svg>
