<!-- Generated by IcoMoon.io -->
<svg version="1.1" xmlns="http://www.w3.org/2000/svg" width="32" height="32" viewBox="0 0 32 32">
<title>methodology</title>
<path d="M17.333 18.533l12.315 6.157-12.315 6.157-0.001-5.515h-10.665v-6h1.333v4.667h9.332l0.001-5.467zM18.667 20.691v8l8-4-8-4zM23.333 2.667c3.314 0 6 2.686 6 6s-2.686 6-6 6c-3.314 0-6-2.686-6-6s2.686-6 6-6zM13.333 2.667v12h-12v-12h12zM23.333 4c-2.577 0-4.667 2.089-4.667 4.667s2.089 4.667 4.667 4.667c2.577 0 4.667-2.089 4.667-4.667s-2.089-4.667-4.667-4.667zM12 4h-9.333v9.333h9.333v-9.333z"></path>
</svg>
