<!-- Generated by IcoMoon.io -->
<svg version="1.1" xmlns="http://www.w3.org/2000/svg" width="32" height="32" viewBox="0 0 32 32">
<title>share</title>
<path d="M12.364 18.909c-0.145 0-0.436-0.145-0.582-0.291-0.291-0.291-0.291-0.727 0-1.018l18.327-16.727c0.291-0.291 0.727-0.291 1.018 0s0.291 0.727 0 1.018l-18.182 16.873c-0.145 0.145-0.291 0.145-0.582 0.145z"></path>
<path d="M31.273 12.945c-0.436 0-0.727-0.291-0.727-0.727v-10.764h-12.8c-0.436 0-0.727-0.291-0.727-0.727s0.291-0.727 0.727-0.727h13.527c0.436 0 0.727 0.291 0.727 0.727v11.491c0 0.436-0.291 0.727-0.727 0.727z"></path>
<path d="M24 32h-23.273c-0.436 0-0.727-0.291-0.727-0.727v-23.273c0-0.436 0.291-0.727 0.727-0.727h9.455c0.436 0 0.727 0.291 0.727 0.727s-0.291 0.727-0.727 0.727h-8.727v21.818h21.818v-10.182c0-0.436 0.291-0.727 0.727-0.727s0.727 0.291 0.727 0.727v10.909c0 0.436-0.291 0.727-0.727 0.727z"></path>
</svg>
