<svg width="18" height="17" viewBox="0 0 18 17" xmlns="http://www.w3.org/2000/svg">
<path d="M4.96548 4.39448C4.93205 4.36106 4.90554 4.32138 4.88744 4.27771C4.86935 4.23404 4.86004 4.18723 4.86004 4.13996C4.86004 4.09269 4.86935 4.04588 4.88744 4.00221C4.90554 3.95854 4.93205 3.91886 4.96548 3.88544L8.74548 0.105441C8.7789 0.0720123 8.81858 0.045495 8.86225 0.0274033C8.90592 0.00931171 8.95273 0 9 0C9.04727 0 9.09408 0.00931171 9.13775 0.0274033C9.18142 0.045495 9.2211 0.0720123 9.25452 0.105441L13.0345 3.88544C13.0689 3.91865 13.0963 3.95837 13.1152 4.0023C13.1341 4.04622 13.144 4.09346 13.1444 4.14126C13.1448 4.18906 13.1357 4.23646 13.1176 4.2807C13.0995 4.32495 13.0728 4.36514 13.039 4.39894C13.0052 4.43274 12.965 4.45948 12.9207 4.47758C12.8765 4.49568 12.8291 4.50479 12.7813 4.50437C12.7335 4.50396 12.6863 4.49402 12.6423 4.47516C12.5984 4.45629 12.5587 4.42887 12.5255 4.39448L9.36 1.22909V10.4426C9.36 10.5381 9.32207 10.6296 9.25456 10.6971C9.18705 10.7646 9.09548 10.8026 9 10.8026C8.90452 10.8026 8.81296 10.7646 8.74544 10.6971C8.67793 10.6296 8.64 10.5381 8.64 10.4426V1.22909L5.47452 4.39439C5.4411 4.42782 5.40142 4.45434 5.35775 4.47243C5.31408 4.49052 5.26727 4.49983 5.22 4.49983C5.17273 4.49983 5.12592 4.49052 5.08225 4.47243C5.03858 4.45434 4.9989 4.42782 4.96548 4.39439V4.39448ZM17.64 8.64257C17.5445 8.64257 17.453 8.6805 17.3854 8.74801C17.3179 8.81553 17.28 8.90709 17.28 9.00257V15.4826C17.2799 15.578 17.2419 15.6695 17.1745 15.737C17.107 15.8045 17.0155 15.8425 16.92 15.8426L1.08 15.8426C0.984551 15.8425 0.893039 15.8045 0.825547 15.737C0.758054 15.6695 0.720095 15.578 0.72 15.4826L0.72 9.00257C0.72 8.90709 0.682072 8.81553 0.614558 8.74801C0.547045 8.6805 0.455478 8.64257 0.36 8.64257C0.264522 8.64257 0.172955 8.6805 0.105442 8.74801C0.0379285 8.81553 0 8.90709 0 9.00257L0 15.4826C0.000309697 15.7689 0.114194 16.0434 0.316667 16.2459C0.519139 16.4484 0.793661 16.5623 1.08 16.5626H16.92C17.2063 16.5623 17.4809 16.4484 17.6833 16.2459C17.8858 16.0434 17.9997 15.7689 18 15.4826V9.00257C18 8.90709 17.9621 8.81553 17.8946 8.74801C17.827 8.6805 17.7355 8.64257 17.64 8.64257Z" />
</svg>
