<svg width="30" height="30" viewBox="0 0 30 30" fill="none" xmlns="http://www.w3.org/2000/svg">
<g opacity="0.7">
<path d="M29 15C29 7.27083 22.7292 1 15 1C7.27083 1 1 7.27083 1 15C1 22.7292 7.27083 29 15 29C22.7292 29 29 22.7292 29 15Z" stroke="white" stroke-miterlimit="10"/>
<path d="M14.5786 8.44118L14.9971 17.3334L15.4149 8.44118C15.4175 8.38434 15.4085 8.32756 15.3883 8.27433C15.3682 8.22109 15.3375 8.17252 15.298 8.13157C15.2585 8.09062 15.211 8.05816 15.1585 8.03617C15.106 8.01418 15.0496 8.00313 14.9927 8.00368V8.00368C14.9365 8.00421 14.881 8.01607 14.8294 8.03854C14.7779 8.06101 14.7314 8.09363 14.6927 8.13447C14.6541 8.1753 14.624 8.22351 14.6044 8.2762C14.5848 8.3289 14.576 8.38501 14.5786 8.44118V8.44118Z" stroke="white" stroke-linecap="round" stroke-linejoin="round"/>
<path d="M14.9974 23.1601C14.709 23.1601 14.427 23.0745 14.1872 22.9143C13.9474 22.7541 13.7605 22.5263 13.6501 22.2598C13.5397 21.9933 13.5108 21.7001 13.5671 21.4172C13.6234 21.1343 13.7622 20.8745 13.9662 20.6705C14.1702 20.4666 14.43 20.3277 14.7129 20.2714C14.9958 20.2152 15.289 20.244 15.5555 20.3544C15.822 20.4648 16.0497 20.6517 16.21 20.8915C16.3702 21.1314 16.4557 21.4133 16.4557 21.7017C16.4557 22.0885 16.3021 22.4594 16.0286 22.7329C15.7551 23.0064 15.3842 23.1601 14.9974 23.1601Z" fill="white"/>
</g>
</svg>
