<svg width="80" height="33" viewBox="0 0 80 33" fill="none" xmlns="http://www.w3.org/2000/svg">
<g id="Logo">
<path id="Vector" fill-rule="evenodd" clip-rule="evenodd" d="M5.15075 21.7098C7.34802 21.7098 8.61788 20.7584 9.55957 19.4663L7.47644 17.9896C6.87718 18.7138 6.26366 19.1965 5.22209 19.1965C3.82383 19.1965 2.83933 18.0322 2.83933 16.5413V16.5129C2.83933 15.0646 3.82383 13.8719 5.22209 13.8719C6.17805 13.8719 6.83438 14.3404 7.4051 15.0362L9.48823 13.4317C8.60361 12.2248 7.29095 11.3728 5.25063 11.3728C2.22581 11.3728 0 13.6447 0 16.5413V16.5697C0 19.5373 2.29715 21.7098 5.15075 21.7098ZM14.2722 21.511H17.1686L17.882 19.7219H21.7486L22.462 21.511H25.4298L21.1779 11.5006H18.5098L14.2722 21.511ZM18.6953 17.5778L19.8224 14.7664L20.9353 17.5778H18.6953ZM30.8196 21.511H33.5876V18.5008H34.8146L36.8264 21.511H40.0082L37.6254 18.0464C38.8667 17.521 39.68 16.5129 39.68 14.9794V14.951C39.68 13.9713 39.3804 13.2187 38.7954 12.6365C38.1248 11.9692 37.069 11.5716 35.5423 11.5716H30.8196V21.511ZM33.5876 16.3425V13.9429H35.4139C36.327 13.9429 36.912 14.3404 36.912 15.1356V15.164C36.912 15.8881 36.3556 16.3425 35.4282 16.3425H33.5876ZM47.9377 21.511V13.9855H44.9557V11.5716H53.702V13.9855H50.7057V21.511H47.9377ZM64.38 21.7257C61.4971 21.7257 59.16 19.3999 59.16 16.5309C59.16 13.6619 61.4971 11.3361 64.38 11.3361C67.263 11.3361 69.6 13.6619 69.6 16.5309C69.6 19.3999 67.263 21.7257 64.38 21.7257Z" fill="white"/>
<path id="Halo" fill-rule="evenodd" clip-rule="evenodd" d="M64.3999 32.1163C73.0156 32.1163 79.9999 25.1389 79.9999 16.5318C79.9999 7.92481 73.0156 0.947422 64.3999 0.947422C55.7843 0.947422 48.7999 7.92481 48.7999 16.5318C48.7999 25.1389 55.7843 32.1163 64.3999 32.1163Z" fill="white" fill-opacity="0.195567"/>
</g>
</svg>
