<svg width="324" height="30" viewBox="0 0 324 30" fill="none" xmlns="http://www.w3.org/2000/svg">
<path d="M0 8.19444H2.52778V19.6667H9.64444V21.8056H0V8.19444Z" fill="black"/>
<path d="M23.4795 18.6556H16.6739L15.3322 21.8056H12.7267L18.8517 8.19444H21.3406L27.485 21.8056H24.8406L23.4795 18.6556ZM22.6434 16.6722L20.0767 10.7222L17.5295 16.6722H22.6434Z" fill="black"/>
<path d="M44.2271 8.19444V21.8056H42.1466L34.641 12.5889V21.8056H32.1327V8.19444H34.2133L41.7188 17.4111V8.19444H44.2271Z" fill="black"/>
<path d="M50.791 8.19444H56.741C58.1929 8.19444 59.4827 8.47963 60.6105 9.05C61.7382 9.60741 62.6132 10.4046 63.2355 11.4417C63.8577 12.4657 64.1688 13.6519 64.1688 15C64.1688 16.3481 63.8577 17.5407 63.2355 18.5778C62.6132 19.6019 61.7382 20.3991 60.6105 20.9694C59.4827 21.5268 58.1929 21.8056 56.741 21.8056H50.791V8.19444ZM56.6243 19.6667C57.6225 19.6667 58.4975 19.4787 59.2493 19.1028C60.0142 18.7139 60.5975 18.1694 60.9993 17.4694C61.4142 16.7565 61.6216 15.9333 61.6216 15C61.6216 14.0667 61.4142 13.25 60.9993 12.55C60.5975 11.837 60.0142 11.2926 59.2493 10.9167C58.4975 10.5278 57.6225 10.3333 56.6243 10.3333H53.3188V19.6667H56.6243Z" fill="black"/>
<path d="M79.0666 14.8444H81.4582V20.2694C80.7582 20.8269 79.9416 21.2546 79.0082 21.5528C78.0749 21.8509 77.1156 22 76.1305 22C74.7434 22 73.4925 21.7019 72.3777 21.1056C71.2629 20.4963 70.3879 19.6602 69.7527 18.5972C69.1175 17.5343 68.7999 16.3352 68.7999 15C68.7999 13.6648 69.1175 12.4657 69.7527 11.4028C70.3879 10.3398 71.2629 9.51018 72.3777 8.91389C73.5055 8.30463 74.7693 8 76.1693 8C77.3101 8 78.3471 8.18796 79.2805 8.56389C80.2138 8.93982 80.9981 9.49074 81.6332 10.2167L80.0388 11.7722C79.0018 10.7352 77.7508 10.2167 76.286 10.2167C75.3268 10.2167 74.4712 10.4176 73.7194 10.8194C72.9805 11.2213 72.3971 11.7852 71.9694 12.5111C71.5545 13.237 71.3471 14.0667 71.3471 15C71.3471 15.9074 71.5545 16.7241 71.9694 17.45C72.3971 18.1759 72.9805 18.7463 73.7194 19.1611C74.4712 19.5759 75.3203 19.7833 76.2666 19.7833C77.3295 19.7833 78.2629 19.55 79.0666 19.0833V14.8444Z" fill="black"/>
<path d="M96.6144 21.8056L93.8339 17.8194C93.7172 17.8324 93.5422 17.8389 93.3089 17.8389H90.2366V21.8056H87.7089V8.19444H93.3089C94.4885 8.19444 95.5126 8.38889 96.3811 8.77778C97.2626 9.16667 97.9366 9.72407 98.4033 10.45C98.87 11.1759 99.1033 12.038 99.1033 13.0361C99.1033 14.0602 98.8505 14.9417 98.345 15.6806C97.8524 16.4194 97.1394 16.9704 96.2061 17.3333L99.3366 21.8056H96.6144ZM96.5561 13.0361C96.5561 12.1676 96.2709 11.5 95.7005 11.0333C95.1302 10.5667 94.294 10.3333 93.1922 10.3333H90.2366V15.7583H93.1922C94.294 15.7583 95.1302 15.525 95.7005 15.0583C96.2709 14.5787 96.5561 13.9046 96.5561 13.0361Z" fill="black"/>
<path d="M104.848 8.19444H107.376V21.8056H104.848V8.19444Z" fill="black"/>
<path d="M116.502 10.3139V14.4556H123.074V16.5944H116.502V21.8056H113.974V8.19444H123.91V10.3139H116.502Z" fill="black"/>
<path d="M131.799 10.3139V14.4556H138.371V16.5944H131.799V21.8056H129.271V8.19444H139.207V10.3139H131.799Z" fill="black"/>
<path d="M150.775 22C149.388 22 148.137 21.7019 147.022 21.1056C145.907 20.4963 145.032 19.6602 144.397 18.5972C143.762 17.5213 143.445 16.3222 143.445 15C143.445 13.6778 143.762 12.4852 144.397 11.4222C145.032 10.3463 145.907 9.51018 147.022 8.91389C148.137 8.30463 149.388 8 150.775 8C152.162 8 153.413 8.30463 154.528 8.91389C155.643 9.51018 156.518 10.3398 157.153 11.4028C157.788 12.4657 158.106 13.6648 158.106 15C158.106 16.3352 157.788 17.5343 157.153 18.5972C156.518 19.6602 155.643 20.4963 154.528 21.1056C153.413 21.7019 152.162 22 150.775 22ZM150.775 19.7833C151.682 19.7833 152.499 19.5824 153.225 19.1806C153.951 18.7657 154.521 18.1954 154.936 17.4694C155.351 16.7306 155.558 15.9074 155.558 15C155.558 14.0926 155.351 13.2759 154.936 12.55C154.521 11.8111 153.951 11.2407 153.225 10.8389C152.499 10.4241 151.682 10.2167 150.775 10.2167C149.868 10.2167 149.051 10.4241 148.325 10.8389C147.599 11.2407 147.029 11.8111 146.614 12.55C146.199 13.2759 145.992 14.0926 145.992 15C145.992 15.9074 146.199 16.7306 146.614 17.4694C147.029 18.1954 147.599 18.7657 148.325 19.1806C149.051 19.5824 149.868 19.7833 150.775 19.7833Z" fill="black"/>
<path d="M175.796 8.19444V21.8056H173.716L166.21 12.5889V21.8056H163.702V8.19444H165.782L173.288 17.4111V8.19444H175.796Z" fill="black"/>
<path d="M191.796 7V23" stroke="#C4C4C4"/>
<path d="M213.216 21.16C212.709 21.16 212.282 21.0933 211.936 20.96C211.594 20.8213 211.317 20.6507 211.104 20.448C210.89 20.2453 210.728 20.04 210.616 19.832C210.504 19.624 210.424 19.448 210.376 19.304L210.248 21H209.264V9.112H210.528V14.088C210.586 13.9653 210.685 13.8187 210.824 13.648C210.962 13.4773 211.144 13.3093 211.368 13.144C211.592 12.9787 211.864 12.8427 212.184 12.736C212.504 12.624 212.874 12.568 213.296 12.568C214.33 12.568 215.157 12.9253 215.776 13.64C216.394 14.3547 216.704 15.4187 216.704 16.832C216.704 17.7013 216.573 18.4613 216.312 19.112C216.056 19.7573 215.669 20.2613 215.152 20.624C214.64 20.9813 213.994 21.16 213.216 21.16ZM213.016 20.168C213.736 20.168 214.317 19.8933 214.76 19.344C215.208 18.7947 215.432 17.9307 215.432 16.752C215.432 15.76 215.226 14.9813 214.816 14.416C214.405 13.8507 213.794 13.568 212.984 13.568C212.392 13.568 211.917 13.696 211.56 13.952C211.202 14.2027 210.941 14.5653 210.776 15.04C210.616 15.5147 210.533 16.0853 210.528 16.752C210.528 17.9573 210.717 18.8293 211.096 19.368C211.474 19.9013 212.114 20.168 213.016 20.168ZM219.155 23.64C218.691 23.64 218.376 23.608 218.211 23.544C218.045 23.4853 217.963 23.456 217.963 23.456V22.64L218.811 22.648C219.104 22.6587 219.349 22.6373 219.547 22.584C219.749 22.5307 219.912 22.456 220.035 22.36C220.157 22.2693 220.253 22.1653 220.323 22.048C220.397 21.936 220.459 21.824 220.507 21.712L220.835 20.84L217.603 12.728H218.867L221.435 19.384L223.971 12.728H225.195L221.675 21.776C221.477 22.256 221.253 22.6293 221.003 22.896C220.757 23.168 220.48 23.36 220.171 23.472C219.861 23.584 219.523 23.64 219.155 23.64Z" fill="#333333" fill-opacity="0.5"/>
<path fill-rule="evenodd" clip-rule="evenodd" d="M247.007 7.88979C246.151 7.88979 245.456 7.24271 245.456 6.44857C245.456 5.64708 246.151 5 247.007 5C247.857 5 248.551 5.64708 248.551 6.44857C248.551 7.24271 247.857 7.88979 247.007 7.88979ZM240.791 20.7866L244.832 9.49219H241.988L239.373 17.8821H239.255L236.647 9.49219H233.796L237.837 20.7866H240.791ZM245.662 9.49219V20.7866H248.336V9.49219H245.662ZM249.922 19.0954V20.7866H259.236V18.5807H253.475V18.4851L259.044 11.3084V9.49219H250.114V11.6981H255.772V11.7937L249.922 19.0954ZM260.591 20.7866V19.0954L266.441 11.7937V11.6981H260.783V9.49219H269.713V11.3084L264.143 18.4851V18.5807H269.905V20.7866H260.591ZM278.64 9.49219V16.0365C278.64 17.7571 277.407 18.6101 276.225 18.6101C274.94 18.6101 274.083 17.7057 274.083 16.2718V9.49219H271.409V16.6836C271.409 19.3969 272.96 20.9337 275.191 20.9337C276.89 20.9337 278.086 20.044 278.604 18.7792H278.722V20.7866H281.314V9.49219H278.64ZM286.311 21.0146C284.147 21.0146 282.514 19.838 282.514 17.6174C282.514 15.0732 284.62 14.4188 286.821 14.1835L286.973 14.1673L287.162 14.1475C288.914 13.9634 289.628 13.8885 289.628 13.1687V13.1246C289.628 12.0143 288.948 11.3819 287.707 11.3819C286.4 11.3819 285.646 12.0437 285.38 12.8158L282.884 12.4628C283.475 10.4039 285.307 9.34509 287.692 9.34509C289.857 9.34509 292.302 10.2422 292.302 13.2276V20.7866H289.731V19.2351H289.642C289.155 20.1836 288.091 21.0146 286.311 21.0146ZM289.634 16.7362C289.634 17.9936 288.614 19.0598 287.004 19.0598C285.889 19.0598 285.091 18.5524 285.091 17.5745C285.091 16.5524 285.985 16.1259 287.181 15.9568L287.3 15.9406C288.031 15.8419 289.305 15.6697 289.634 15.4053V16.7362ZM296.656 5.72754V20.7868H293.982V5.72754H296.656ZM298.388 9.49219V20.7866H301.062V9.49219H298.388ZM299.731 7.88979C298.875 7.88979 298.18 7.24271 298.18 6.44857C298.18 5.64708 298.875 5 299.731 5C300.581 5 301.275 5.64708 301.275 6.44857C301.275 7.24271 300.581 7.88979 299.731 7.88979ZM308.459 11.5513V9.49246H306.221V6.7865H303.547V9.49246H301.936V11.5513H303.547V17.8309C303.532 19.956 305.083 21.0002 307.092 20.9413C307.853 20.9193 308.377 20.7722 308.666 20.6766L308.215 18.5957C308.067 18.6324 307.764 18.6986 307.432 18.6986C306.76 18.6986 306.221 18.4633 306.221 17.3898V11.5513H308.459ZM311.344 25C310.612 25 309.962 24.8676 309.6 24.7132L310.221 22.647C311.388 22.9779 312.156 22.8823 312.666 21.6322L312.895 21.0219L308.781 9.49219H311.617L314.232 18.0218H314.35L316.972 9.49219L319.831 9.50689L315.273 22.1543C314.631 23.9264 313.427 25 311.344 25ZM319.974 19.3325C319.967 20.2296 320.698 20.9502 321.599 20.9502C322.471 20.9502 323.217 20.2296 323.224 19.3325C323.217 18.4501 322.471 17.7295 321.599 17.7295C320.698 17.7295 319.967 18.4501 319.974 19.3325Z" fill="#333333" fill-opacity="0.5"/>
</svg>
