<svg width="273" height="23" viewBox="0 0 273 23" fill="none" xmlns="http://www.w3.org/2000/svg">
<path d="M0.819824 0.999951H4.71982V18.7H15.6998V22H0.819824V0.999951Z" fill="black"/>
<path d="M37.0453 17.14H26.5453L24.4753 22H20.4553L29.9053 0.999951H33.7453L43.2253 22H39.1453L37.0453 17.14ZM35.7553 14.08L31.7953 4.89995L27.8653 14.08H35.7553Z" fill="black"/>
<path d="M69.056 0.999951V22H65.846L54.266 7.77995V22H50.396V0.999951H53.606L65.186 15.22V0.999951H69.056Z" fill="black"/>
<path d="M79.1831 0.999951H88.3631C90.6031 0.999951 92.5931 1.43995 94.3331 2.31995C96.0731 3.17995 97.4231 4.40995 98.3831 6.00995C99.3431 7.58995 99.8231 9.41995 99.8231 11.5C99.8231 13.58 99.3431 15.42 98.3831 17.02C97.4231 18.6 96.0731 19.83 94.3331 20.71C92.5931 21.57 90.6031 22 88.3631 22H79.1831V0.999951ZM88.1831 18.7C89.7231 18.7 91.0731 18.41 92.2331 17.83C93.4131 17.23 94.3131 16.39 94.9331 15.31C95.5731 14.21 95.8931 12.94 95.8931 11.5C95.8931 10.06 95.5731 8.79995 94.9331 7.71995C94.3131 6.61995 93.4131 5.77995 92.2331 5.19995C91.0731 4.59995 89.7231 4.29995 88.1831 4.29995H83.0831V18.7H88.1831Z" fill="black"/>
<path d="M122.808 11.26H126.498V19.63C125.418 20.49 124.158 21.15 122.718 21.61C121.278 22.07 119.798 22.3 118.278 22.3C116.138 22.3 114.208 21.84 112.488 20.92C110.768 19.98 109.418 18.69 108.438 17.05C107.458 15.41 106.968 13.56 106.968 11.5C106.968 9.43995 107.458 7.58995 108.438 5.94995C109.418 4.30995 110.768 3.02995 112.488 2.10995C114.228 1.16995 116.178 0.699951 118.338 0.699951C120.098 0.699951 121.698 0.989951 123.138 1.56995C124.578 2.14995 125.788 2.99995 126.768 4.11995L124.308 6.51995C122.708 4.91995 120.778 4.11995 118.518 4.11995C117.038 4.11995 115.718 4.42995 114.558 5.04995C113.418 5.66995 112.518 6.53995 111.858 7.65995C111.218 8.77995 110.898 10.06 110.898 11.5C110.898 12.9 111.218 14.16 111.858 15.28C112.518 16.4 113.418 17.28 114.558 17.92C115.718 18.56 117.028 18.88 118.488 18.88C120.128 18.88 121.568 18.52 122.808 17.8V11.26Z" fill="black"/>
<path d="M149.882 22L145.592 15.85C145.412 15.87 145.142 15.88 144.782 15.88H140.042V22H136.142V0.999951H144.782C146.602 0.999951 148.182 1.29995 149.522 1.89995C150.882 2.49995 151.922 3.35995 152.642 4.47995C153.362 5.59995 153.722 6.92995 153.722 8.46995C153.722 10.05 153.332 11.41 152.552 12.55C151.792 13.69 150.692 14.54 149.252 15.1L154.082 22H149.882ZM149.792 8.46995C149.792 7.12995 149.352 6.09995 148.472 5.37995C147.592 4.65995 146.302 4.29995 144.602 4.29995H140.042V12.67H144.602C146.302 12.67 147.592 12.31 148.472 11.59C149.352 10.85 149.792 9.80995 149.792 8.46995Z" fill="black"/>
<path d="M162.585 0.999951H166.485V22H162.585V0.999951Z" fill="black"/>
<path d="M180.566 4.26995V10.66H190.706V13.96H180.566V22H176.666V0.999951H191.996V4.26995H180.566Z" fill="black"/>
<path d="M204.167 4.26995V10.66H214.307V13.96H204.167V22H200.267V0.999951H215.597V4.26995H204.167Z" fill="black"/>
<path d="M233.444 22.3C231.304 22.3 229.374 21.84 227.654 20.92C225.934 19.98 224.584 18.69 223.604 17.05C222.624 15.39 222.134 13.54 222.134 11.5C222.134 9.45995 222.624 7.61995 223.604 5.97995C224.584 4.31995 225.934 3.02995 227.654 2.10995C229.374 1.16995 231.304 0.699951 233.444 0.699951C235.584 0.699951 237.514 1.16995 239.234 2.10995C240.954 3.02995 242.304 4.30995 243.284 5.94995C244.264 7.58995 244.754 9.43995 244.754 11.5C244.754 13.56 244.264 15.41 243.284 17.05C242.304 18.69 240.954 19.98 239.234 20.92C237.514 21.84 235.584 22.3 233.444 22.3ZM233.444 18.88C234.844 18.88 236.104 18.57 237.224 17.95C238.344 17.31 239.224 16.43 239.864 15.31C240.504 14.17 240.824 12.9 240.824 11.5C240.824 10.1 240.504 8.83995 239.864 7.71995C239.224 6.57995 238.344 5.69995 237.224 5.07995C236.104 4.43995 234.844 4.11995 233.444 4.11995C232.044 4.11995 230.784 4.43995 229.664 5.07995C228.544 5.69995 227.664 6.57995 227.024 7.71995C226.384 8.83995 226.064 10.1 226.064 11.5C226.064 12.9 226.384 14.17 227.024 15.31C227.664 16.43 228.544 17.31 229.664 17.95C230.784 18.57 232.044 18.88 233.444 18.88Z" fill="black"/>
<path d="M272.048 0.999951V22H268.838L257.258 7.77995V22H253.388V0.999951H256.598L268.178 15.22V0.999951H272.048Z" fill="black"/>
</svg>
