<svg width="176" height="14" viewBox="0 0 176 14" fill="none" xmlns="http://www.w3.org/2000/svg">
<path d="M0.5 0.194444L3.01633 0.194444L3.01633 11.6667L10.1008 11.6667V13.8056L0.5 13.8056L0.5 0.194444Z" fill="#00634A"/>
<path d="M23.8731 10.6556H17.0984L15.7628 13.8056H13.1691L19.2663 0.194444L21.7439 0.194444L27.8605 13.8056H25.2281L23.8731 10.6556ZM23.0408 8.67222L20.4858 2.72222L17.9501 8.67222H23.0408Z" fill="#00634A"/>
<path d="M44.5268 0.194444V13.8056H42.4557L34.9841 4.58889V13.8056H32.4872V0.194444L34.5583 0.194444L42.0299 9.41111V0.194444L44.5268 0.194444Z" fill="#00634A"/>
<path d="M51.061 0.194444L56.984 0.194444C58.4293 0.194444 59.7133 0.47963 60.836 1.05C61.9586 1.60741 62.8297 2.40463 63.4491 3.44167C64.0685 4.46574 64.3782 5.65185 64.3782 7C64.3782 8.34815 64.0685 9.54074 63.4491 10.5778C62.8297 11.6019 61.9586 12.3991 60.836 12.9694C59.7133 13.5268 58.4293 13.8056 56.984 13.8056H51.061V0.194444ZM56.8679 11.6667C57.8615 11.6667 58.7326 11.4787 59.481 11.1028C60.2424 10.7139 60.8231 10.1694 61.2231 9.46944C61.636 8.75648 61.8425 7.93333 61.8425 7C61.8425 6.06667 61.636 5.25 61.2231 4.55C60.8231 3.83704 60.2424 3.29259 59.481 2.91667C58.7326 2.52778 57.8615 2.33333 56.8679 2.33333L53.5773 2.33333V11.6667H56.8679Z" fill="#00634A"/>
<path d="M79.2085 6.84444L81.5893 6.84444V12.2694C80.8925 12.8269 80.0795 13.2546 79.1504 13.5528C78.2213 13.8509 77.2664 14 76.2857 14C74.9049 14 73.6597 13.7019 72.5499 13.1056C71.4401 12.4963 70.5691 11.6602 69.9368 10.5972C69.3045 9.53426 68.9883 8.33519 68.9883 7C68.9883 5.66481 69.3045 4.46574 69.9368 3.40278C70.5691 2.33981 71.4401 1.51018 72.5499 0.913888C73.6726 0.304629 74.9307 0 76.3244 0C77.46 0 78.4923 0.187963 79.4214 0.563889C80.3505 0.939815 81.1312 1.49074 81.7635 2.21667L80.1763 3.77222C79.144 2.73519 77.8987 2.21667 76.4405 2.21667C75.4856 2.21667 74.6339 2.41759 73.8855 2.81944C73.15 3.2213 72.5693 3.78518 72.1434 4.51111C71.7305 5.23704 71.524 6.06667 71.524 7C71.524 7.90741 71.7305 8.72407 72.1434 9.45C72.5693 10.1759 73.15 10.7463 73.8855 11.1611C74.6339 11.5759 75.4792 11.7833 76.4212 11.7833C77.4793 11.7833 78.4084 11.55 79.2085 11.0833V6.84444Z" fill="#00634A"/>
<path d="M96.6769 13.8056L93.9089 9.81944C93.7928 9.83241 93.6186 9.83889 93.3863 9.83889H90.328V13.8056H87.8117V0.194444L93.3863 0.194444C94.5606 0.194444 95.58 0.388889 96.4446 0.777778C97.3221 1.16667 97.9931 1.72407 98.4577 2.45C98.9222 3.17593 99.1545 4.03796 99.1545 5.03611C99.1545 6.06018 98.9029 6.94167 98.3996 7.68055C97.9092 8.41944 97.1995 8.97037 96.2704 9.33333L99.3868 13.8056H96.6769ZM96.6188 5.03611C96.6188 4.16759 96.3349 3.5 95.7671 3.03333C95.1993 2.56667 94.367 2.33333 93.2702 2.33333L90.328 2.33333V7.75833L93.2702 7.75833C94.367 7.75833 95.1993 7.525 95.7671 7.05833C96.3349 6.5787 96.6188 5.90463 96.6188 5.03611Z" fill="#00634A"/>
<path d="M104.873 0.194444L107.39 0.194444V13.8056L104.873 13.8056V0.194444Z" fill="#00634A"/>
<path d="M116.474 2.31389V6.45555L123.017 6.45555V8.59444L116.474 8.59444V13.8056H113.958V0.194444L123.849 0.194444V2.31389L116.474 2.31389Z" fill="#00634A"/>
<path d="M131.702 2.31389V6.45555L138.245 6.45555V8.59444H131.702V13.8056H129.186V0.194444L139.077 0.194444V2.31389L131.702 2.31389Z" fill="#00634A"/>
<path d="M150.592 14C149.212 14 147.966 13.7019 146.856 13.1056C145.747 12.4963 144.876 11.6602 144.243 10.5972C143.611 9.5213 143.295 8.32222 143.295 7C143.295 5.67778 143.611 4.48519 144.243 3.42222C144.876 2.3463 145.747 1.51018 146.856 0.913888C147.966 0.304629 149.212 0 150.592 0C151.973 0 153.218 0.304629 154.328 0.913888C155.438 1.51018 156.309 2.33981 156.941 3.40278C157.573 4.46574 157.89 5.66481 157.89 7C157.89 8.33519 157.573 9.53426 156.941 10.5972C156.309 11.6602 155.438 12.4963 154.328 13.1056C153.218 13.7019 151.973 14 150.592 14ZM150.592 11.7833C151.496 11.7833 152.309 11.5824 153.031 11.1806C153.754 10.7657 154.322 10.1954 154.735 9.46944C155.147 8.73056 155.354 7.90741 155.354 7C155.354 6.09259 155.147 5.27593 154.735 4.55C154.322 3.81111 153.754 3.24074 153.031 2.83889C152.309 2.42407 151.496 2.21667 150.592 2.21667C149.689 2.21667 148.876 2.42407 148.153 2.83889C147.431 3.24074 146.863 3.81111 146.45 4.55C146.037 5.27593 145.831 6.09259 145.831 7C145.831 7.90741 146.037 8.73056 146.45 9.46944C146.863 10.1954 147.431 10.7657 148.153 11.1806C148.876 11.5824 149.689 11.7833 150.592 11.7833Z" fill="#00634A"/>
<path d="M175.5 0.194444V13.8056H173.429L165.957 4.58889V13.8056H163.46V0.194444L165.531 0.194444L173.003 9.41111V0.194444L175.5 0.194444Z" fill="#00634A"/>
</svg>
