<svg width="196" height="17" viewBox="0 0 196 17" fill="none" xmlns="http://www.w3.org/2000/svg">
<path d="M0 0.877934L2.81829 0.877934L2.81829 13.7268L10.7529 13.7268V16.1224H0L0 0.877934Z" fill="white"/>
<path d="M26.1779 12.5944H18.5902L17.0943 16.1224L14.1893 16.1224L21.0183 0.877934L23.7932 0.877934L30.6438 16.1224H27.6954L26.1779 12.5944ZM25.2457 10.373L22.3841 3.70904L19.5441 10.373H25.2457Z" fill="white"/>
<path d="M49.3101 0.877934V16.1224H46.9904L38.6222 5.79971V16.1224H35.8256V0.877934L38.1453 0.877934L46.5135 11.2006V0.877934L49.3101 0.877934Z" fill="white"/>
<path d="M56.6283 0.877934L63.2621 0.877934C64.8808 0.877934 66.3189 1.19734 67.5763 1.83616C68.8337 2.46045 69.8092 3.35334 70.503 4.51482C71.1967 5.66179 71.5436 6.99023 71.5436 8.50016C71.5436 10.0101 71.1967 11.3458 70.503 12.5073C69.8092 13.6542 68.8337 14.5471 67.5763 15.1859C66.3189 15.8102 64.8808 16.1224 63.2621 16.1224L56.6283 16.1224V0.877934ZM63.1321 13.7268C64.2449 13.7268 65.2205 13.5163 66.0587 13.0953C66.9115 12.6597 67.5618 12.0499 68.0099 11.2659C68.4723 10.4674 68.7036 9.54549 68.7036 8.50016C68.7036 7.45482 68.4723 6.54016 68.0099 5.75616C67.5618 4.95764 66.9115 4.34786 66.0587 3.92682C65.2205 3.49127 64.2449 3.27349 63.1321 3.27349L59.4466 3.27349V13.7268L63.1321 13.7268Z" fill="white"/>
<path d="M88.1535 8.32593H90.8201V14.4019C90.0396 15.0262 89.1291 15.5053 88.0885 15.8393C87.0479 16.1732 85.9784 16.3402 84.88 16.3402C83.3335 16.3402 81.9388 16.0062 80.6959 15.3384C79.4529 14.656 78.4774 13.7196 77.7692 12.529C77.061 11.3385 76.7069 9.99556 76.7069 8.50016C76.7069 7.00475 77.061 5.66179 77.7692 4.47127C78.4774 3.28075 79.4529 2.35156 80.6959 1.68371C81.9533 1.00134 83.3624 0.660156 84.9233 0.660156C86.1952 0.660156 87.3514 0.870675 88.392 1.29171C89.4326 1.71275 90.307 2.32979 91.0152 3.14282L89.2375 4.88504C88.0813 3.72356 86.6866 3.14282 85.0534 3.14282C83.9839 3.14282 83.03 3.36786 82.1918 3.81793C81.368 4.26801 80.7176 4.89956 80.2406 5.7126C79.7781 6.52564 79.5469 7.45482 79.5469 8.50016C79.5469 9.51645 79.7781 10.4311 80.2406 11.2442C80.7176 12.0572 81.368 12.696 82.1918 13.1606C83.03 13.6252 83.9767 13.8575 85.0317 13.8575C86.2168 13.8575 87.2575 13.5962 88.1535 13.0735V8.32593Z" fill="white"/>
<path d="M107.718 16.1224L104.618 11.6579C104.488 11.6725 104.293 11.6797 104.033 11.6797H100.607V16.1224H97.789V0.877934L104.033 0.877934C105.348 0.877934 106.49 1.09571 107.458 1.53127C108.441 1.96682 109.192 2.59112 109.713 3.40416C110.233 4.21719 110.493 5.18268 110.493 6.3006C110.493 7.44756 110.211 8.43482 109.648 9.26238C109.098 10.0899 108.303 10.707 107.263 11.1135L110.753 16.1224H107.718ZM107.653 6.3006C107.653 5.32786 107.335 4.58016 106.699 4.05749C106.063 3.53482 105.131 3.27349 103.903 3.27349L100.607 3.27349V9.34949H103.903C105.131 9.34949 106.063 9.08816 106.699 8.56549C107.335 8.0283 107.653 7.27334 107.653 6.3006Z" fill="white"/>
<path d="M116.898 0.877934L119.716 0.877934V16.1224H116.898V0.877934Z" fill="white"/>
<path d="M129.891 3.25171V7.89038L137.219 7.89038V10.2859H129.891V16.1224H127.073V0.877934L138.151 0.877934V3.25171L129.891 3.25171Z" fill="white"/>
<path d="M146.947 3.25171V7.89038L154.274 7.89038V10.2859L146.947 10.2859V16.1224H144.128V0.877934L155.206 0.877934V3.25171L146.947 3.25171Z" fill="white"/>
<path d="M168.103 16.3402C166.557 16.3402 165.162 16.0062 163.919 15.3384C162.676 14.656 161.701 13.7196 160.993 12.529C160.284 11.324 159.93 9.98104 159.93 8.50016C159.93 7.01927 160.284 5.68356 160.993 4.49305C161.701 3.28801 162.676 2.35156 163.919 1.68371C165.162 1.00134 166.557 0.660156 168.103 0.660156C169.65 0.660156 171.044 1.00134 172.287 1.68371C173.53 2.35156 174.506 3.28075 175.214 4.47127C175.922 5.66179 176.276 7.00475 176.276 8.50016C176.276 9.99556 175.922 11.3385 175.214 12.529C174.506 13.7196 173.53 14.656 172.287 15.3384C171.044 16.0062 169.65 16.3402 168.103 16.3402ZM168.103 13.8575C169.115 13.8575 170.026 13.6325 170.835 13.1824C171.644 12.7178 172.28 12.079 172.743 11.2659C173.205 10.4384 173.436 9.51645 173.436 8.50016C173.436 7.48386 173.205 6.56919 172.743 5.75616C172.28 4.9286 171.644 4.28979 170.835 3.83971C170.026 3.37512 169.115 3.14282 168.103 3.14282C167.092 3.14282 166.181 3.37512 165.372 3.83971C164.562 4.28979 163.926 4.9286 163.464 5.75616C163.002 6.56919 162.77 7.48386 162.77 8.50016C162.77 9.51645 163.002 10.4384 163.464 11.2659C163.926 12.079 164.562 12.7178 165.372 13.1824C166.181 13.6325 167.092 13.8575 168.103 13.8575Z" fill="white"/>
<path d="M196 0.877934V16.1224H193.68L185.312 5.79971V16.1224H182.516V0.877934L184.835 0.877934L193.203 11.2006V0.877934L196 0.877934Z" fill="white"/>
</svg>
