<?xml version="1.0" encoding="utf-8"?>
<!-- Generator: Adobe Illustrator 24.0.1, SVG Export Plug-In . SVG Version: 6.00 Build 0)  -->
<svg version="1.1" id="Layer_1" xmlns="http://www.w3.org/2000/svg" xmlns:xlink="http://www.w3.org/1999/xlink" x="0px" y="0px"
	 viewBox="0 0 22 22" style="enable-background:new 0 0 22 22;" xml:space="preserve">
<path d="M11,0.9c-2.3,0-4.5,0.8-6.3,2.2L2.1,0.8l-0.6,7l7-1L6,4.4c1.4-1.1,3.2-1.7,5-1.7c4.5,0,8.2,3.7,8.2,8.3
	c0,4.5-3.7,8.2-8.2,8.2c-0.8,0-1.6-0.1-2.4-0.4C8.3,19.5,8,20,7.5,20.4c1.1,0.4,2.3,0.6,3.5,0.6c5.6,0,10.1-4.5,10.1-10.1
	S16.6,0.9,11,0.9z"/>
<path d="M10.5,12.4v3.2c0.8,0,1.6-0.2,2.3-0.5c0.7-0.3,1.4-0.7,1.9-1.3c0.6-0.6,1-1.2,1.3-1.9c0.3-0.7,0.5-1.5,0.5-2.3V6.4
	c-1.6,0-3.1,0.6-4.2,1.7C11.2,9.3,10.5,10.8,10.5,12.4z"/>
<path d="M5.5,9.6v1.8c0,1.1,0.4,2.1,1.2,2.9c0.8,0.8,1.8,1.2,2.9,1.2v-1.8c0-1.1-0.4-2.1-1.2-2.9C7.6,10.1,6.6,9.6,5.5,9.6L5.5,9.6z
	"/>
</svg>
