<?xml version="1.0" encoding="utf-8"?>
<!-- Generator: Adobe Illustrator 24.0.1, SVG Export Plug-In . SVG Version: 6.00 Build 0)  -->
<svg version="1.1" id="Layer_1" xmlns="http://www.w3.org/2000/svg" xmlns:xlink="http://www.w3.org/1999/xlink" x="0px" y="0px"
	 viewBox="0 0 16 19" style="enable-background:new 0 0 16 19;" xml:space="preserve">
<path d="M2.5,15.3H16V0H2.5C1.1,0,0,1.1,0,2.5v14.2C0,18,1.1,19,2.5,19H16v-0.8H2.5c-0.9,0-1.7-0.7-1.7-1.5
	C0.8,15.9,1.6,15.3,2.5,15.3z M12.9,12.3c-0.1,0.1-0.2,0.1-0.3,0.1c-0.1,0-0.2,0-0.3-0.1L9.6,9.6l-0.7,0.7L8.1,9.5l1.3-1.3l3.5,3.4
	C13.1,11.8,13.1,12.1,12.9,12.3z M4.3,3.3l3.3,3.2L6.3,7.8l-2-2C3.6,5.1,3.6,4,4.3,3.3z M3.5,11.7L9,6.3c0,0,0-0.1,0-0.1
	c-0.2-0.6-0.1-1.4,0.4-2c0.9-0.9,2.3-1.2,2.9-0.6c0.6,0.6,0.3,2-0.6,2.9c-0.6,0.6-1.4,0.6-2,0.5c0,0-0.1,0-0.1-0.1l-5.9,5.4
	c-0.1,0.1,0.2,0.1,0.1,0.1s-0.2,0-0.3-0.1C3.3,12.1,3.3,11.8,3.5,11.7z"/>
</svg>
