<?xml version="1.0" encoding="utf-8"?>
<!-- Generator: Adobe Illustrator 24.0.1, SVG Export Plug-In . SVG Version: 6.00 Build 0)  -->
<svg version="1.1" id="Layer_1" xmlns="http://www.w3.org/2000/svg" xmlns:xlink="http://www.w3.org/1999/xlink" x="0px" y="0px"
	 viewBox="0 0 18 16" style="enable-background:new 0 0 18 16;" xml:space="preserve">
<path d="M17.2,0.1C17,0,16.7,0,16.5,0l-4.1,1.2v14.6l4.6-1.3c0.3-0.1,0.5-0.4,0.5-0.7V0.7C17.5,0.5,17.4,0.3,17.2,0.1z"/>
<path d="M10.9,1.2L6.5,0.1v14.6l4.4,1.1V1.2z"/>
<path d="M5.1,0.1L0.5,1.5C0.2,1.6,0,1.9,0,2.2v13.1c0,0.2,0.1,0.4,0.3,0.6C0.4,15.9,0.6,16,0.7,16c0.1,0,0.1,0,0.2,0l4.1-1.2V0.1z"
	/>
</svg>
