<?xml version="1.0" encoding="utf-8"?>
<!-- Generator: Adobe Illustrator 24.0.1, SVG Export Plug-In . SVG Version: 6.00 Build 0)  -->
<svg version="1.1" id="Layer_1" xmlns="http://www.w3.org/2000/svg" xmlns:xlink="http://www.w3.org/1999/xlink" x="0px" y="0px"
	 viewBox="0 0 21 21" style="enable-background:new 0 0 21 21;" xml:space="preserve">
<path d="M1.7,4.2C1.4,3.7,0.9,3.5,0.5,3.8C0,4.1-0.1,4.7,0.1,5.1L9,20.5C9.2,20.8,9.5,21,9.8,21c0.2,0,0.3,0,0.5-0.1
	c0.5-0.3,0.6-0.8,0.4-1.3L1.7,4.2z"/>
<path d="M19.9,7.7l-4.2-7.3C15.6,0.2,15.3,0,15.1,0c-0.3,0-0.6,0-0.7,0.3c-1.2,1.1-2.6,1.2-4,1.2h-1C7.4,1.5,5.4,1.7,3.8,4L9,13
	c0.2-0.1,0.3-0.2,0.4-0.4c1.1-2,2.4-2.1,4.2-2.1h0.9c1.7,0,3.5-0.1,5.3-1.7C20.1,8.6,20.1,8.1,19.9,7.7z"/>
</svg>
