<?xml version="1.0" encoding="utf-8"?>
<!-- Generator: Adobe Illustrator 24.0.1, SVG Export Plug-In . SVG Version: 6.00 Build 0)  -->
<svg version="1.1" id="Layer_1" xmlns="http://www.w3.org/2000/svg" xmlns:xlink="http://www.w3.org/1999/xlink" x="0px" y="0px"
	 viewBox="0 0 14.4 18" style="enable-background:new 0 0 14.4 18;" xml:space="preserve">
<path d="M12.3,2.1C10.9,0.8,9.1,0,7.2,0C5.3,0,3.5,0.8,2.1,2.1C0.8,3.5,0,5.3,0,7.2c0,3.7,5.8,9.8,6.5,10.5c0.1,0.1,0.2,0.2,0.3,0.2
	c0.1,0,0.3,0.1,0.4,0.1c0.1,0,0.3,0,0.4-0.1c0.1-0.1,0.2-0.1,0.3-0.2c0.7-0.7,6.5-6.8,6.5-10.5C14.4,5.3,13.6,3.5,12.3,2.1z
	 M7.2,10.7c-1.9,0-3.5-1.6-3.5-3.5s1.6-3.5,3.5-3.5s3.5,1.6,3.5,3.5S9.1,10.7,7.2,10.7z"/>
</svg>
