<?xml version="1.0" encoding="utf-8"?>
<!-- Generator: Adobe Illustrator 24.0.1, SVG Export Plug-In . SVG Version: 6.00 Build 0)  -->
<svg version="1.1" id="Layer_1" xmlns="http://www.w3.org/2000/svg" xmlns:xlink="http://www.w3.org/1999/xlink" x="0px" y="0px"
	 viewBox="0 0 24 24" style="enable-background:new 0 0 24 24;" xml:space="preserve">
<path d="M12,0C5.4,0,0,5.4,0,12s5.4,12,12,12s12-5.4,12-12S18.6,0,12,0z M21.9,11h-3.5c-0.1-3.2-0.9-6-2.1-8
	C19.4,4.5,21.6,7.5,21.9,11z M11,2.3V11H7.5C7.7,6.5,9.3,3.3,11,2.3z M11,13v8.7c-1.7-1-3.3-4.2-3.5-8.7H11z M13,21.7V13h3.5
	C16.3,17.5,14.7,20.7,13,21.7z M13,11V2.3c1.7,1,3.3,4.2,3.5,8.7H13z M7.7,3c-1.2,2-2,4.8-2.1,8H2.1C2.4,7.5,4.6,4.5,7.7,3z M2.1,13
	h3.5c0.1,3.2,0.9,6,2.1,8C4.6,19.5,2.4,16.5,2.1,13z M16.3,21c1.2-2,2-4.8,2.1-8H22C21.6,16.5,19.4,19.5,16.3,21z"/>
</svg>
