<svg width="20" height="20" viewBox="0 0 20 20" fill="none" xmlns="http://www.w3.org/2000/svg">
<path d="M19.655 10.0662L14.655 7.56623C14.5681 7.52268 14.4722 7.5 14.375 7.5C14.2778 7.5 14.1819 7.52268 14.095 7.56623L9.095 10.0662C8.99132 10.1182 8.90413 10.198 8.8432 10.2966C8.78228 10.3953 8.75 10.509 8.75 10.625V16.875C8.75 16.991 8.78228 17.1046 8.8432 17.2033C8.90413 17.302 8.99132 17.3818 9.095 17.4337L14.095 19.9337C14.1819 19.9773 14.2778 20 14.375 20C14.4722 20 14.5681 19.9773 14.655 19.9337L19.655 17.4337C19.7587 17.3818 19.8459 17.302 19.9068 17.2033C19.9677 17.1046 20 16.991 20 16.875V10.625C20 10.509 19.9677 10.3953 19.9068 10.2966C19.8459 10.198 19.7587 10.1182 19.655 10.0662ZM17.9187 12.4112L14.7937 13.9737C14.6637 14.0387 14.5203 14.0724 14.375 14.0724C14.2297 14.0724 14.0863 14.0387 13.9563 13.9737L10.8312 12.4112C10.6108 12.299 10.4436 12.1042 10.3662 11.8693C10.2887 11.6343 10.3072 11.3783 10.4177 11.157C10.5282 10.9356 10.7217 10.767 10.9561 10.6877C11.1904 10.6084 11.4466 10.625 11.6688 10.7337L14.375 12.0862L17.0813 10.7337C17.3034 10.625 17.5596 10.6084 17.7939 10.6877C18.0283 10.767 18.2218 10.9356 18.3323 11.157C18.4428 11.3783 18.4613 11.6343 18.3838 11.8693C18.3064 12.1042 18.1392 12.299 17.9187 12.4112Z" fill="black"/>
<path d="M10.905 2.56623L5.905 0.066229C5.81809 0.0226772 5.72221 0 5.625 0C5.52779 0 5.43191 0.0226772 5.345 0.066229L0.345 2.56623C0.241316 2.61819 0.154133 2.69796 0.0932043 2.79664C0.0322754 2.89532 3.89167e-06 3.00901 0 3.12498L0 9.37498C3.89167e-06 9.49095 0.0322754 9.60464 0.0932043 9.70332C0.154133 9.80199 0.241316 9.88177 0.345 9.93373L5.345 12.4337C5.43191 12.4773 5.52779 12.5 5.625 12.5C5.72221 12.5 5.81809 12.4773 5.905 12.4337L6.25 12.2612V10.625C6.248 10.0447 6.40852 9.47543 6.71339 8.98168C7.01826 8.48792 7.4553 8.08939 7.975 7.83123L11.25 6.19373V3.12498C11.25 3.00901 11.2177 2.89532 11.1568 2.79664C11.0959 2.69796 11.0087 2.61819 10.905 2.56623ZM9.16875 4.91123L6.04375 6.47373C5.91371 6.53865 5.77035 6.57245 5.625 6.57245C5.47965 6.57245 5.33629 6.53865 5.20625 6.47373L2.08125 4.91123C1.86079 4.79901 1.69361 4.60421 1.61616 4.36927C1.5387 4.13433 1.55725 3.8783 1.66775 3.65697C1.77824 3.43564 1.97174 3.26696 2.20607 3.18768C2.4404 3.1084 2.69657 3.12495 2.91875 3.23373L5.625 4.58623L8.33125 3.23373C8.44151 3.1776 8.5618 3.14386 8.68517 3.13444C8.80854 3.12503 8.93255 3.14012 9.05006 3.17886C9.16756 3.2176 9.27624 3.27922 9.36982 3.36016C9.4634 3.4411 9.54003 3.53976 9.5953 3.65046C9.65056 3.76116 9.68337 3.8817 9.69183 4.00514C9.70029 4.12858 9.68423 4.25247 9.64457 4.36967C9.60492 4.48687 9.54246 4.59507 9.4608 4.68801C9.37913 4.78096 9.27987 4.85682 9.16875 4.91123Z" fill="black"/>
</svg>
