<svg width="1338" height="1301" viewBox="0 0 1338 1301" fill="none" xmlns="http://www.w3.org/2000/svg">
  <path opacity="0.1" d="M797.756 822.401C853.305 730.986 820.34 614.094 724.126 561.316C627.913 508.538 504.884 539.859 449.335 631.274C393.786 722.688 426.752 839.58 522.965 892.359C619.179 945.137 742.207 913.816 797.756 822.401Z" stroke="#4AB7F3" stroke-width="6.32582" stroke-miterlimit="10"/>
  <path opacity="0.1" d="M897.909 877.34C985.393 733.372 933.476 549.279 781.949 466.159C630.423 383.039 436.667 432.366 349.183 576.335C261.699 720.303 313.616 904.396 465.142 987.516C616.669 1070.64 810.425 1021.31 897.909 877.34Z" stroke="#4AB7F3" stroke-width="6.32582" stroke-miterlimit="10"/>
  <path d="M881.236 949.115C889.971 934.742 884.787 916.362 869.659 908.064C854.531 899.765 835.187 904.69 826.453 919.063C817.719 933.437 822.902 951.816 838.03 960.115C853.158 968.413 872.502 963.488 881.236 949.115Z" fill="#FFA000"/>
  <path d="M966.041 738.429C974.775 724.056 969.592 705.677 954.464 697.378C939.336 689.08 919.992 694.005 911.258 708.378C902.524 722.751 907.707 741.131 922.835 749.429C937.963 757.728 957.307 752.803 966.041 738.429Z" fill="#4AB7F3"/>
  <path d="M953.677 656.173C962.411 641.8 957.228 623.42 942.1 615.122C926.972 606.823 907.628 611.748 898.894 626.122C890.16 640.495 895.343 658.874 910.471 667.173C925.599 675.471 944.943 670.547 953.677 656.173Z" fill="#4AB7F3"/>
  <path d="M944.359 626.468C953.094 612.095 947.91 593.715 932.782 585.417C917.654 577.118 898.31 582.043 889.576 596.417C880.842 610.79 886.025 629.169 901.153 637.468C916.281 645.766 935.625 640.841 944.359 626.468Z" fill="#FFA000"/>
  <path opacity="0.5" d="M538.599 1017.25C594.042 1031.91 651.761 1031.65 705.627 1017.89" stroke="url(#paint0_linear_3512_2121)" stroke-width="60" stroke-miterlimit="10"/>
  <path opacity="0.36" d="M1077.11 732.181C1078.95 581.547 997.417 434.318 850.269 353.599C730.732 288.027 592.793 280.026 472.107 320.562" stroke="url(#paint1_linear_3512_2121)" stroke-width="63.2582" stroke-miterlimit="10"/>
  <path d="M1104.29 747.701C1113.02 733.328 1107.84 714.949 1092.71 706.65C1077.58 698.352 1058.24 703.277 1049.51 717.65C1040.77 732.023 1045.96 750.403 1061.08 758.701C1076.21 767 1095.55 762.075 1104.29 747.701Z" fill="#4AB7F3"/>
  <path d="M1106 793.733C1114.73 779.359 1109.55 760.98 1094.42 752.682C1079.29 744.383 1059.95 749.308 1051.22 763.681C1042.48 778.055 1047.67 796.434 1062.79 804.732C1077.92 813.031 1097.26 808.106 1106 793.733Z" fill="#FFA000"/>
  <path d="M569.598 1033.07C578.332 1018.69 573.149 1000.32 558.021 992.017C542.893 983.718 523.549 988.643 514.815 1003.02C506.08 1017.39 511.264 1035.77 526.392 1044.07C541.52 1052.37 560.864 1047.44 569.598 1033.07Z" fill="#4AB7F3"/>
  <path d="M734.184 1032.44C742.918 1018.07 737.735 999.691 722.607 991.392C707.479 983.094 688.135 988.019 679.4 1002.39C670.666 1016.77 675.85 1035.14 690.978 1043.44C706.105 1051.74 725.45 1046.82 734.184 1032.44Z" fill="#FFA000"/>
  <path fill-rule="evenodd" clip-rule="evenodd" d="M947.603 618.937C946.902 621.515 945.827 624.046 944.358 626.464C935.624 640.838 916.279 645.762 901.152 637.464C899.137 636.359 897.299 635.075 895.646 633.645C896.347 631.068 897.422 628.537 898.891 626.119C907.625 611.745 926.97 606.82 942.097 615.119C944.112 616.224 945.95 617.508 947.603 618.937Z" fill="#078A3C"/>
  <path fill-rule="evenodd" clip-rule="evenodd" d="M1098.07 755.013C1096.93 754.17 1095.71 753.391 1094.42 752.685C1082.25 746.007 1067.35 747.892 1057.44 756.372C1058.58 757.215 1059.8 757.995 1061.08 758.701C1073.26 765.379 1088.16 763.494 1098.07 755.013Z" fill="#078A3C"/>
  <defs>
    <linearGradient id="paint0_linear_3512_2121" x1="539.05" y1="1021.48" x2="714.182" y2="1022.02" gradientUnits="userSpaceOnUse">
      <stop stop-color="#4AB7F3"/>
      <stop offset="1" stop-color="#4AB7F3" stop-opacity="0"/>
    </linearGradient>
    <linearGradient id="paint1_linear_3512_2121" x1="474.013" y1="315.506" x2="1054.46" y2="753.804" gradientUnits="userSpaceOnUse">
      <stop stop-color="#3E43AC" stop-opacity="0"/>
      <stop offset="1" stop-color="#4AB7F3"/>
    </linearGradient>
  </defs>
</svg>
