<svg width="43" height="20" viewBox="0 0 43 20" fill="none" xmlns="http://www.w3.org/2000/svg">
<path opacity="0.2" d="M29.2818 7.57571L28.1547 6.87117L27.0273 6.16663L28.1547 5.46208L29.2818 4.75732L31.5365 6.16663L29.2818 7.57571Z" fill="black"/>
<path opacity="0.2" d="M21.8404 9.12603L20.7131 8.42149L19.5859 7.71673L20.7131 7.01219L21.8404 6.30786L22.9678 7.01219L24.0951 7.71673L22.9678 8.42149L21.8404 9.12603Z" fill="black"/>
<path d="M17.1035 6.16663L18.2306 5.46208L19.358 4.75732L20.4853 5.46208L21.6125 6.16663L20.4853 6.87117L19.358 7.5755L17.6387 6.50111L17.1035 6.16663Z" fill="black"/>
<path opacity="0.2" d="M21.8404 3.20703L22.9678 3.91157L24.0951 4.61612L22.9678 5.32066L21.8404 6.0252L20.7131 5.32066L19.5859 4.61612L20.7131 3.91157L21.8404 3.20703Z" fill="black"/>
<path opacity="0.2" d="M24.3211 7.5755L23.1938 6.87117L22.0664 6.16663L23.1938 5.46208L24.3211 4.75732L25.4484 5.46208L26.5756 6.16663L26.0404 6.50111L24.3211 7.5755Z" fill="black"/>
<path opacity="0.2" d="M29.056 4.61609L27.9287 5.32063L26.8016 6.02518L25.6742 5.32063L24.5469 4.61609L25.6742 3.91155L26.8016 3.20679L29.056 4.61609Z" fill="black"/>
<path opacity="0.2" d="M25.4484 3.76988L24.3211 4.47442L23.1938 3.76988L22.0664 3.06555L23.1938 2.36079L24.3211 1.65625L26.5756 3.06555L25.4484 3.76988Z" fill="black"/>
<path opacity="0.2" d="M21.8404 0.105957L24.0951 1.51483L22.9678 2.21959L21.8404 2.92413L20.7131 2.21959L19.5859 1.51483L21.8404 0.105957Z" fill="black"/>
<path d="M19.358 1.65625L20.4853 2.36079L21.6125 3.06555L20.4853 3.76988L19.358 4.47442L18.2306 3.76988L17.1035 3.06555L19.358 1.65625Z" fill="black"/>
<path d="M16.8775 3.20679L18.0049 3.91155L19.1322 4.61609L18.0049 5.32063L16.8775 6.02518L15.7504 5.32063L14.623 4.61609L16.8775 3.20679Z" fill="black"/>
<path d="M12.1426 6.16663L14.3973 4.75732L15.5244 5.46208L16.6517 6.16663L15.5244 6.87117L14.3973 7.57571L12.1426 6.16663Z" fill="black"/>
<path d="M15.7504 7.01219L16.8775 6.30786L17.4606 6.67206L19.1322 7.71673L18.493 8.11629L16.8775 9.12603L14.623 7.71673L15.7504 7.01219Z" fill="black"/>
<path opacity="0.2" d="M18.6859 8.27835L19.358 7.8584L20.4853 8.56294L21.6125 9.26748L20.4853 9.97203L19.358 10.6766L17.1035 9.26748L18.6859 8.27835Z" fill="black"/>
<path opacity="0.2" d="M21.8404 12.2271L19.5859 10.818L20.7131 10.1135L21.8404 9.40894L22.9678 10.1135L24.0951 10.818L21.8404 12.2271Z" fill="black"/>
<path opacity="0.2" d="M24.3211 10.6766L23.1938 9.97203L22.0664 9.26748L23.1938 8.56294L24.3211 7.8584L24.993 8.27835L26.5756 9.26748L24.3211 10.6766Z" fill="black"/>
<path opacity="0.2" d="M26.8016 9.12603L25.1861 8.11629L24.5469 7.71673L26.2185 6.67206L26.8016 6.30786L27.9287 7.01219L29.056 7.71673L26.8016 9.12603Z" fill="black"/>
<path d="M40.5846 15.2422L39.4574 14.5377L38.3301 13.8331L39.4574 13.1286L40.5846 12.4238L42.8392 13.8331L40.5846 15.2422Z" fill="black"/>
<path d="M33.1431 16.7925L32.0158 16.088L30.8887 15.3832L32.0158 14.6787L33.1431 13.9744L34.2705 14.6787L35.3978 15.3832L34.2705 16.088L33.1431 16.7925Z" fill="black"/>
<path opacity="0.63" d="M28.4062 13.8331L29.5334 13.1286L30.6607 12.4238L31.7881 13.1286L32.9152 13.8331L31.7881 14.5377L30.6607 15.242L28.9414 14.1676L28.4062 13.8331Z" fill="black"/>
<path opacity="0.63" d="M33.1431 10.8735L34.2705 11.5781L35.3978 12.2826L34.2705 12.9872L33.1431 13.6917L32.0158 12.9872L30.8887 12.2826L32.0158 11.5781L33.1431 10.8735Z" fill="black"/>
<path d="M35.6238 15.242L34.4965 14.5377L33.3691 13.8331L34.4965 13.1286L35.6238 12.4238L36.7512 13.1286L37.8783 13.8331L37.3431 14.1676L35.6238 15.242Z" fill="black"/>
<path d="M40.3588 12.2826L39.2314 12.9871L38.1043 13.6917L36.977 12.9871L35.8496 12.2826L36.977 11.5781L38.1043 10.8733L40.3588 12.2826Z" fill="black"/>
<path d="M36.7512 11.4364L35.6238 12.1409L34.4965 11.4364L33.3691 10.7321L34.4965 10.0273L35.6238 9.32275L37.8783 10.7321L36.7512 11.4364Z" fill="black"/>
<path d="M33.1431 7.77246L35.3978 9.18133L34.2705 9.88609L33.1431 10.5906L32.0158 9.88609L30.8887 9.18133L33.1431 7.77246Z" fill="black"/>
<path opacity="0.63" d="M30.6607 9.32275L31.7881 10.0273L32.9152 10.7321L31.7881 11.4364L30.6607 12.1409L29.5334 11.4364L28.4062 10.7321L30.6607 9.32275Z" fill="black"/>
<path opacity="0.63" d="M28.1803 10.8733L29.3076 11.5781L30.4349 12.2826L29.3076 12.9871L28.1803 13.6917L27.0531 12.9871L25.9258 12.2826L28.1803 10.8733Z" fill="black"/>
<path opacity="0.63" d="M23.4453 13.8331L25.7 12.4238L26.8271 13.1286L27.9545 13.8331L26.8271 14.5377L25.7 15.2422L23.4453 13.8331Z" fill="black"/>
<path opacity="0.63" d="M27.0531 14.6787L28.1803 13.9744L28.7633 14.3386L30.4349 15.3832L29.7958 15.7828L28.1803 16.7925L25.9258 15.3832L27.0531 14.6787Z" fill="black"/>
<path opacity="0.63" d="M29.9886 15.9449L30.6607 15.5249L31.7881 16.2294L32.9152 16.934L31.7881 17.6385L30.6607 18.3431L28.4062 16.934L29.9886 15.9449Z" fill="black"/>
<path d="M33.1431 19.8936L30.8887 18.4845L32.0158 17.78L33.1431 17.0754L34.2705 17.78L35.3978 18.4845L33.1431 19.8936Z" fill="black"/>
<path d="M35.6238 18.3431L34.4965 17.6385L33.3691 16.934L34.4965 16.2294L35.6238 15.5249L36.2957 15.9449L37.8783 16.934L35.6238 18.3431Z" fill="black"/>
<path d="M38.1043 16.7925L36.4888 15.7828L35.8496 15.3832L37.5212 14.3386L38.1043 13.9744L39.2314 14.6787L40.3588 15.3832L38.1043 16.7925Z" fill="black"/>
<path opacity="0.2" d="M17.9791 15.2422L16.852 14.5377L15.7246 13.8331L16.852 13.1286L17.9791 12.4238L20.2338 13.8331L17.9791 15.2422Z" fill="black"/>
<path opacity="0.2" d="M10.5377 16.7925L9.41034 16.088L8.2832 15.3832L9.41034 14.6787L10.5377 13.9744L11.665 14.6787L12.7924 15.3832L11.665 16.088L10.5377 16.7925Z" fill="black"/>
<path opacity="0.2" d="M5.80078 13.8331L6.92791 13.1286L8.05526 12.4238L9.1826 13.1286L10.3097 13.8331L9.1826 14.5377L8.05526 15.242L6.33597 14.1676L5.80078 13.8331Z" fill="black"/>
<path d="M10.5377 10.8735L11.665 11.5781L12.7924 12.2826L11.665 12.9872L10.5377 13.6917L9.41034 12.9872L8.2832 12.2826L9.41034 11.5781L10.5377 10.8735Z" fill="black"/>
<path d="M13.0184 15.242L11.891 14.5377L10.7637 13.8331L11.891 13.1286L13.0184 12.4238L14.1457 13.1286L15.2728 13.8331L14.7376 14.1676L13.0184 15.242Z" fill="black"/>
<path d="M17.7533 12.2826L16.626 12.9871L15.4988 13.6917L14.3715 12.9871L13.2441 12.2826L14.3715 11.5781L15.4988 10.8733L17.7533 12.2826Z" fill="black"/>
<path d="M14.1457 11.4364L13.0184 12.1409L11.891 11.4364L10.7637 10.7321L11.891 10.0273L13.0184 9.32275L15.2728 10.7321L14.1457 11.4364Z" fill="black"/>
<path d="M10.5377 7.77246L12.7924 9.18133L11.665 9.88609L10.5377 10.5906L9.41034 9.88609L8.2832 9.18133L10.5377 7.77246Z" fill="black"/>
<path d="M8.05526 9.32275L9.1826 10.0273L10.3097 10.7321L9.1826 11.4364L8.05526 12.1409L6.92791 11.4364L5.80078 10.7321L8.05526 9.32275Z" fill="black"/>
<path d="M5.57479 10.8733L6.70213 11.5781L7.82948 12.2826L6.70213 12.9871L5.57479 13.6917L4.44766 12.9871L3.32031 12.2826L5.57479 10.8733Z" fill="black"/>
<path d="M0.839844 13.8331L3.09453 12.4238L4.22166 13.1286L5.34901 13.8331L4.22166 14.5377L3.09453 15.2422L0.839844 13.8331Z" fill="black"/>
<path opacity="0.2" d="M4.44766 14.6787L5.57479 13.9744L6.15787 14.3386L7.82948 15.3832L7.19028 15.7828L5.57479 16.7925L3.32031 15.3832L4.44766 14.6787Z" fill="black"/>
<path opacity="0.2" d="M7.38316 15.9449L8.05526 15.5249L9.1826 16.2294L10.3097 16.934L9.1826 17.6385L8.05526 18.3431L5.80078 16.934L7.38316 15.9449Z" fill="black"/>
<path opacity="0.2" d="M10.5377 19.8936L8.2832 18.4845L9.41034 17.78L10.5377 17.0754L11.665 17.78L12.7924 18.4845L10.5377 19.8936Z" fill="black"/>
<path opacity="0.2" d="M13.0184 18.3431L11.891 17.6385L10.7637 16.934L11.891 16.2294L13.0184 15.5249L13.6903 15.9449L15.2728 16.934L13.0184 18.3431Z" fill="black"/>
<path opacity="0.2" d="M15.4988 16.7925L13.8833 15.7828L13.2441 15.3832L14.9157 14.3386L15.4988 13.9744L16.626 14.6787L17.7533 15.3832L15.4988 16.7925Z" fill="black"/>
</svg>
