<svg width="78" height="74" viewBox="0 0 78 74" fill="none" xmlns="http://www.w3.org/2000/svg">
<path d="M26.5 72.01H51.5" stroke="black" stroke-width="3" stroke-linecap="round" stroke-linejoin="round"/>
<path d="M39 62.01V72.01" stroke="black" stroke-width="3" stroke-linecap="round" stroke-linejoin="round"/>
<path d="M1.5 49.51H76.5" stroke="black" stroke-width="3" stroke-linecap="round" stroke-linejoin="round"/>
<path d="M64 2H71.5C74.2614 2 76.5 4.23858 76.5 7V57C76.5 59.7614 74.2614 62 71.5 62H6.5C3.73858 62 1.5 59.7614 1.5 57V7C1.5 4.23858 3.73858 2 6.5 2H16.5" stroke="black" stroke-width="3" stroke-linecap="round" stroke-linejoin="round"/>
<path d="M39 19.51C43.8325 19.51 47.75 15.5925 47.75 10.76C47.75 5.92752 43.8325 2.01001 39 2.01001C34.1675 2.01001 30.25 5.92752 30.25 10.76C30.25 15.5925 34.1675 19.51 39 19.51Z" stroke="black" stroke-width="3" stroke-linecap="round" stroke-linejoin="round"/>
<path fill-rule="evenodd" clip-rule="evenodd" d="M24 37C24 28.7157 30.7157 22 39 22C47.2843 22 54 28.7157 54 37H24Z" stroke="black" stroke-width="3" stroke-linecap="round" stroke-linejoin="round"/>
</svg>
