<svg width="76" height="79" viewBox="0 0 76 79" fill="none" xmlns="http://www.w3.org/2000/svg">
<path d="M62.4427 63.8436L44.8394 67.3636" stroke="black" stroke-width="3" stroke-linecap="round" stroke-linejoin="round"/>
<path d="M46.8907 47.6099L38.6674 50.9999C36.0158 52.0501 33.0073 50.8284 31.8386 48.2269C30.6699 45.6254 31.7546 42.5648 34.3007 41.2799L42.5374 37.2799C44.3475 36.3764 46.4492 36.2558 48.3507 36.9466L63.3841 42.6999" stroke="black" stroke-width="3" stroke-linecap="round" stroke-linejoin="round"/>
<path d="M13.5567 67.6101H19.77L30.1267 75.4834C31.2087 76.7015 33.0592 76.8486 34.32 75.8168L49.8567 63.3334C51.1332 62.2873 51.3404 60.4132 50.3234 59.1134L44.6667 49M13.5567 67.6101C13.5567 68.7894 13.0882 69.9205 12.2543 70.7544C11.4204 71.5883 10.2894 72.0568 9.11003 72.0568H2.44336V40.9434H9.11003C11.5659 40.9434 13.5567 42.9343 13.5567 45.3901M13.5567 67.6101V45.3901M13.5567 45.3901L26.2 40.0001C28.2946 39.1623 30.6733 39.4661 32.49 40.8034M73.5567 72.0568H66.89C65.7107 72.0568 64.5797 71.5883 63.7458 70.7544C62.9119 69.9205 62.4434 68.7894 62.4434 67.6101V45.3901C62.4434 42.9343 64.4342 40.9434 66.89 40.9434H73.5567V72.0568ZM30.9667 21.1934C30.9667 21.1934 26.94 28.0868 21.1 27.1134C9.26336 25.1401 11.2334 9.35343 7.29003 3.44677C15.0403 0.280556 23.8378 1.01409 30.9567 5.4201C36.8867 9.35343 36.8867 15.2734 30.9667 21.1934ZM48.5 22.6668C48.5 22.6668 51.2967 27.4534 55.3534 26.7768C63.5734 25.4068 62.2034 14.4434 64.9434 10.3334C59.5588 8.13267 53.4462 8.64195 48.5 11.7034C44.39 14.4534 44.39 18.5668 48.5 22.6668Z" stroke="black" stroke-width="3" stroke-linecap="round" stroke-linejoin="round"/>
<path d="M23.0742 11.5C23.0742 11.5 35.2342 20.1233 37.2076 39.8533C39.6261 33.3166 43.3135 27.3228 48.0576 22.2167" stroke="black" stroke-width="3" stroke-linecap="round" stroke-linejoin="round"/>
</svg>
