<svg width="109" height="80" viewBox="0 0 109 80" fill="none" xmlns="http://www.w3.org/2000/svg">
<path d="M106.747 0H2.42624C1.43298 0 0.666748 0.794607 0.666748 1.75949V78.2405C0.666748 79.2338 1.46136 80 2.42624 80H106.719C107.712 80 108.478 79.2054 108.478 78.2405V1.75949C108.506 0.794607 107.712 0 106.747 0ZM104.959 76.481H4.21411V3.54736H104.959V76.481Z" fill="black"/>
<path d="M93.6366 16.6587V26.5629C93.6366 27.5561 92.842 28.3224 91.8771 28.3224C90.9122 28.3224 90.1176 27.5278 90.1176 26.5629V20.7452L59.9509 51.0822C59.2698 51.7633 58.1346 51.7917 57.4535 51.1106L44.683 38.5671L19.7948 63.4554C19.4542 63.796 19.0002 63.9662 18.5461 63.9662C18.092 63.9662 17.638 63.796 17.2974 63.4554C16.6163 62.7743 16.6163 61.6392 17.2974 60.9581L43.4344 34.8211C44.1155 34.14 45.2222 34.1117 45.9317 34.8211L58.7022 47.3646L87.45 18.4465H81.9729C80.9796 18.4465 80.2134 17.6519 80.2134 16.687C80.2134 15.7222 81.008 14.9275 81.9729 14.9275H91.9055C92.842 14.8708 93.6366 15.6654 93.6366 16.6587Z" fill="black"/>
</svg>
