<svg width="63" height="84" viewBox="0 0 63 84" fill="none" xmlns="http://www.w3.org/2000/svg">
<path d="M44.6595 63.808C54.441 65.3723 61.1707 68.6376 61.1707 72.4119C61.1707 77.7075 47.925 82 31.5852 82C15.2456 82 2 77.7075 2 72.4117C2 68.6379 8.72943 65.3723 18.5112 63.8077" stroke="black" stroke-width="3" stroke-linecap="round" stroke-linejoin="round"/>
<path d="M11.2327 37.1821C10.4559 35.8283 9.76609 34.4204 9.27093 32.9391C8.48988 30.5999 8.06836 28.0976 8.06836 25.4956C8.06836 12.0052 19.4395 1.1692 33.1274 2.05017C44.7319 2.79775 54.1675 12.1629 55.0033 23.7621C55.221 26.7896 54.8625 29.7063 54.0298 32.4132C53.5126 34.0975 52.7588 35.6986 51.8821 37.2262L31.5703 72.6053L11.2327 37.1821Z" stroke="black" stroke-width="3" stroke-linecap="round" stroke-linejoin="round"/>
<path d="M42.6251 25.4969C42.6251 31.603 37.6745 36.5536 31.5684 36.5536C25.4623 36.5536 20.5117 31.603 20.5117 25.4969C20.5117 19.3908 25.4623 14.4402 31.5684 14.4402C37.6745 14.4402 42.6251 19.3908 42.6251 25.4969Z" stroke="black" stroke-width="3" stroke-linecap="round" stroke-linejoin="round"/>
</svg>
