<?xml version="1.0" encoding="utf-8"?>
<!-- Generator: Adobe Illustrator 24.0.1, SVG Export Plug-In . SVG Version: 6.00 Build 0)  -->
<svg version="1.1" id="Layer_1" xmlns="http://www.w3.org/2000/svg" xmlns:xlink="http://www.w3.org/1999/xlink" x="0px" y="0px"
	 viewBox="0 0 22 21" style="enable-background:new 0 0 22 21;" xml:space="preserve">
<path d="M10.9,0L3.7,3.7L0,10.6c0.9,0.5,1.9,0.3,2.6-0.3v10h2.3H6h0.4l4.5-3.3l4.5,3.3h1.5h2.2V10.2c0.7,0.7,1.7,0.9,2.6,0.5
	l-3.4-6.9L10.9,0z M9.4,6h3v3h-3V6z M6.4,12h9l-4.5,3.5L6.4,12z M6,13.4l3.9,2.9L6,19.4V13.4z M15.7,13.4v6l-3.9-3.1L15.7,13.4z"/>
</svg>
