<?xml version="1.0" encoding="utf-8"?>
<!-- Generator: Adobe Illustrator 24.0.1, SVG Export Plug-In . SVG Version: 6.00 Build 0)  -->
<svg version="1.1" id="Layer_1" xmlns="http://www.w3.org/2000/svg" xmlns:xlink="http://www.w3.org/1999/xlink" x="0px" y="0px"
	 viewBox="0 0 18 18" style="enable-background:new 0 0 18 18;" xml:space="preserve">
<path d="M5.3,7.5H3.8V0.7C3.8,0.3,4.1,0,4.5,0h9c0.4,0,0.8,0.3,0.8,0.8v4.5h-1.5V1.5H5.3V7.5z"/>
<path d="M17.2,6h-6.8c-0.4,0-0.8,0.3-0.8,0.8v9.7H8.2V9.7C8.2,9.3,7.9,9,7.5,9H0.8C0.3,9,0,9.3,0,9.7v7.5C0,17.7,0.3,18,0.8,18h16.5
	c0.4,0,0.8-0.3,0.8-0.8V6.7C18,6.3,17.7,6,17.2,6z M5.2,15.7H3v-1.5h2.2V15.7z M5.2,12.7H3v-1.5h2.2V12.7z M15,15.7h-2.2v-1.5H15
	V15.7z M15,12.7h-2.2v-1.5H15V12.7z M15,9.7h-2.2V8.2H15V9.7z"/>
</svg>
