<?xml version="1.0" encoding="utf-8"?>
<!-- Generator: Adobe Illustrator 24.0.1, SVG Export Plug-In . SVG Version: 6.00 Build 0)  -->
<svg version="1.1" id="Layer_1" xmlns="http://www.w3.org/2000/svg" xmlns:xlink="http://www.w3.org/1999/xlink" x="0px" y="0px"
	 viewBox="0 0 20 19" style="enable-background:new 0 0 20 19;" xml:space="preserve">
<path d="M9.2,17.5c-1.5,0-3-0.6-4.1-1.7c-1.1-1.1-1.7-2.6-1.7-4.1c0-0.2,0.1-0.4,0.2-0.6c0.2-0.2,0.4-0.2,0.6-0.2s0.4,0.1,0.6,0.2
	C4.9,11.2,5,11.4,5,11.7c0,1.1,0.4,2.2,1.2,2.9C7,15.4,8,15.8,9.1,15.8c0.2,0,0.4,0.1,0.6,0.2c0.2,0.2,0.2,0.4,0.2,0.6
	S9.8,17,9.7,17.2C9.6,17.4,9.4,17.5,9.2,17.5z"/>
<path d="M4.2,9.8c0.4,0,0.8-0.2,1-0.4c1-1,3.2-3.4,3.2-5.2C8.4,3.1,8,2,7.2,1.3C6.3,0.4,5.3,0,4.2,0C3.1,0,2,0.4,1.2,1.2
	C0.4,2,0,3.1,0,4.2C0,6,2.1,8.3,3.2,9.4C3.4,9.6,3.8,9.8,4.2,9.8L4.2,9.8z M4.2,6c-1,0-1.9-0.8-1.9-1.9s0.8-1.9,1.9-1.9
	c1,0,1.9,0.8,1.9,1.9S5.2,6,4.2,6z"/>
<path d="M14.1,18.5c0.4,0,0.7-0.2,1-0.4c1.3-1.4,4.9-5.5,4.9-8.1c0-1.5-0.6-3-1.7-4.1c-1.1-1.1-2.6-1.7-4.1-1.7s-3,0.6-4.1,1.7
	C9,7,8.3,8.5,8.3,10c0,2.6,3.5,6.6,4.8,8C13.4,18.3,13.7,18.5,14.1,18.5L14.1,18.5z M14.2,12.9c-1.6,0-2.9-1.3-2.9-2.9
	s1.3-2.9,2.9-2.9c1.6,0,2.9,1.3,2.9,2.9S15.7,12.9,14.2,12.9z"/>
</svg>
