<?xml version="1.0" encoding="utf-8"?>
<!-- Generator: Adobe Illustrator 24.0.1, SVG Export Plug-In . SVG Version: 6.00 Build 0)  -->
<svg version="1.1" id="Layer_1" xmlns="http://www.w3.org/2000/svg" xmlns:xlink="http://www.w3.org/1999/xlink" x="0px" y="0px"
	 viewBox="0 0 18 19" style="enable-background:new 0 0 18 19;" xml:space="preserve">
<path d="M13,19c-0.1,0-0.2,0-0.3-0.1l-0.4-0.4c-0.1-0.1-0.1-0.2-0.1-0.3h-0.4l-8.5-0.4c-0.1,0-0.2,0-0.3-0.1l-0.4-0.4
	c-0.1-0.1-0.1-0.2-0.1-0.3v-1l-0.3-0.3c-0.1-0.1-0.1-0.2-0.1-0.4l0.4-1.4l-0.3-0.7c0-0.1-0.1-0.2,0-0.3l0.2-0.8c0-0.1,0-0.1,0.1-0.2
	l0.5-0.7l-0.2-0.1c-0.1-0.1-0.2-0.2-0.2-0.4v-0.5L2.1,9.9C2,9.8,2,9.8,2,9.7L1.4,6.4L1,3.5L0.5,1.7c0,0,0-0.1,0-0.1V0.4
	C0.5,0.2,0.7,0,0.9,0H9c0.2,0,0.4,0.2,0.4,0.4v0.4c0,0.2-0.1,0.4-0.3,0.4L8.7,1.3L8.6,1.4v0.1l0.2,0.3L9.1,2h0.7
	c0.1,0,0.3,0.1,0.3,0.2l0.6,1c0,0,0,0.1,0,0.1l0,0.2L11.2,4c0,0,0,0.1,0.1,0.1l0,0.1l0.6,0.3c0,0,0.1,0,0.1,0.1L12.5,5
	c0,0,0.1,0.1,0.1,0.1l0.3,0.5l0.3,0.2c0,0,0,0,0.1,0.1l0.3,0.4c0,0,0.1,0.1,0.1,0.1l0.2,0.4l0.3,0.3l0.7,0.4c0.1,0,0.1,0.1,0.2,0.2
	l0.4,1.1c0,0,0,0,0,0.1l0.1,0.7l0.3,0.1c0.1,0,0.1,0.1,0.2,0.1l0.4,0.4c0,0,0.1,0.1,0.1,0.1l0.2,0.7h0.5c0.2,0,0.4,0.2,0.4,0.4v0.4
	c0,0.1,0,0.2-0.1,0.2l-0.7,1.1v0.3c0,0.1,0,0.1,0,0.2l-0.4,0.8l-0.4,1.5V17c0,0.2-0.2,0.4-0.4,0.4h-1.2c-0.1,0-0.1,0-0.2,0l-0.5-0.3
	l0.3,0.5c0.1,0.1,0.1,0.2,0,0.4l-0.4,0.8C13.4,18.9,13.2,19,13,19C13.1,19,13.1,19,13,19z"/>
</svg>
