<svg width="32" height="20" viewBox="0 0 32 20" fill="none" xmlns="http://www.w3.org/2000/svg">
<path d="M28.2804 12.3251L26.4207 11.1627L24.5605 10.0002L26.4207 8.83766L28.2804 7.6748L32.0007 10.0002L28.2804 12.3251Z" fill="black"/>
<path d="M15.9992 14.8834L14.1391 13.7209L12.2793 12.558L14.1391 11.3955L15.9992 10.2334L17.8593 11.3955L19.7194 12.558L17.8593 13.7209L15.9992 14.8834Z" fill="black"/>
<path d="M8.1875 10.0002L10.0473 8.83766L11.9074 7.6748L13.7675 8.83766L15.6273 10.0002L13.7675 11.1627L11.9074 12.3248L9.07057 10.5521L8.1875 10.0002Z" fill="black"/>
<path d="M15.9992 5.1167L17.8593 6.2792L19.7194 7.44169L17.8593 8.60419L15.9992 9.76668L14.1391 8.60419L12.2793 7.44169L14.1391 6.2792L15.9992 5.1167Z" fill="black"/>
<path d="M20.0933 12.3248L18.2332 11.1627L16.373 10.0002L18.2332 8.83766L20.0933 7.6748L21.9534 8.83766L23.8132 10.0002L22.9301 10.5521L20.0933 12.3248Z" fill="black"/>
<path d="M27.9069 7.44156L26.0468 8.60406L24.187 9.76655L22.3269 8.60406L20.4668 7.44156L22.3269 6.27907L24.187 5.11621L27.9069 7.44156Z" fill="black"/>
<path d="M21.9534 6.04559L20.0933 7.20809L18.2332 6.04559L16.373 4.88345L18.2332 3.7206L20.0933 2.55811L23.8132 4.88345L21.9534 6.04559Z" fill="black"/>
<path d="M15.9992 0L19.7194 2.32463L17.8593 3.48749L15.9992 4.64998L14.1391 3.48749L12.2793 2.32463L15.9992 0Z" fill="black"/>
<path d="M11.9074 2.55811L13.7675 3.7206L15.6273 4.88345L13.7675 6.04559L11.9074 7.20809L10.0473 6.04559L8.1875 4.88345L11.9074 2.55811Z" fill="black"/>
<path d="M7.81364 5.11621L9.67375 6.27907L11.5339 7.44156L9.67375 8.60406L7.81364 9.76655L5.95387 8.60406L4.09375 7.44156L7.81364 5.11621Z" fill="black"/>
<path d="M0 10.0002L3.72023 7.6748L5.58 8.83766L7.44012 10.0002L5.58 11.1627L3.72023 12.3251L0 10.0002Z" fill="black"/>
<path d="M5.95387 11.3955L7.81364 10.2334L8.77572 10.8343L11.5339 12.558L10.4792 13.2173L7.81364 14.8834L4.09375 12.558L5.95387 11.3955Z" fill="black"/>
<path d="M10.7984 13.4847L11.9074 12.7917L13.7675 13.9542L15.6273 15.1167L13.7675 16.2792L11.9074 17.4417L8.1875 15.1167L10.7984 13.4847Z" fill="black"/>
<path d="M15.9992 20.0001L12.2793 17.6751L14.1391 16.5126L15.9992 15.3501L17.8593 16.5126L19.7194 17.6751L15.9992 20.0001Z" fill="black"/>
<path d="M20.0933 17.4417L18.2332 16.2792L16.373 15.1167L18.2332 13.9542L20.0933 12.7917L21.2019 13.4847L23.8132 15.1167L20.0933 17.4417Z" fill="black"/>
<path d="M24.187 14.8834L21.5215 13.2173L20.4668 12.558L23.2249 10.8343L24.187 10.2334L26.0468 11.3955L27.9069 12.558L24.187 14.8834Z" fill="black"/>
</svg>
