<svg width="34" height="30" viewBox="0 0 34 30" fill="none" xmlns="http://www.w3.org/2000/svg">
<path d="M17.124 0C12.1334 0 6.91602 3.85633 6.91602 10.2079C6.91602 16.2193 15.9897 25.4064 16.33 25.7467C16.5568 25.9735 16.7837 26.087 17.124 26.087C17.4642 26.087 17.6911 25.9735 17.9179 25.7467C18.2582 25.4064 27.3319 16.2193 27.3319 10.2079C27.3319 3.85633 22.1145 0 17.124 0ZM17.124 13.6106C15.1958 13.6106 13.7213 12.1361 13.7213 10.2079C13.7213 8.27977 15.1958 6.80529 17.124 6.80529C19.0521 6.80529 20.5266 8.27977 20.5266 10.2079C20.5266 12.1361 19.0521 13.6106 17.124 13.6106Z" fill="#FFA000"/>
<path d="M28.106 18.2609H6.27159L0 30H33.913L28.106 18.2609Z" fill="#4AB7F3"/>
<path fill-rule="evenodd" clip-rule="evenodd" d="M24.0595 18.261H10.1875C12.8244 22.2015 16.1268 25.5442 16.3295 25.7469C16.5564 25.9738 16.7832 26.0872 17.1235 26.0872C17.4638 26.0872 17.6906 25.9738 17.9174 25.7469C18.1202 25.5442 21.4226 22.2015 24.0595 18.261Z" fill="#078A3C"/>
</svg>
