<svg width="18" height="18" viewBox="0 0 18 18" fill="none" xmlns="http://www.w3.org/2000/svg">
<g clip-path="url(#clip0_4455_5772)">
<path d="M14.1297 4.91973C13.3468 4.41793 12.4481 4.12563 11.5198 4.07083L14.3566 2.78153C14.4371 2.74458 14.5066 2.68751 14.5585 2.61583C14.6105 2.54414 14.643 2.46028 14.653 2.37234C14.6631 2.2844 14.6503 2.19536 14.6158 2.11382C14.5814 2.03229 14.5265 1.96102 14.4564 1.9069C14.3669 1.8359 12.2364 0.229158 10.3364 0.975678C9.38001 1.35125 8.69008 2.23668 8.26615 3.59956C7.79574 2.98713 7.11421 2.57173 6.35431 2.43425C4.3792 2.10909 2.54043 3.92626 2.46325 4.00549C2.39289 4.07434 2.34376 4.16193 2.32169 4.25787C2.29962 4.35381 2.30554 4.45406 2.33874 4.54674C2.37194 4.63941 2.43104 4.72062 2.50901 4.78071C2.58698 4.84081 2.68056 4.87727 2.77863 4.88578L5.56972 5.13942C4.68477 5.48987 3.93132 6.10788 3.41454 6.90719C2.7349 8.04678 2.7205 9.50535 3.37184 11.2428C3.40452 11.3295 3.46002 11.4057 3.53247 11.4635C3.60491 11.5213 3.69162 11.5584 3.78342 11.571C3.80682 11.5737 3.83037 11.5747 3.85391 11.5741C3.93378 11.5741 4.01256 11.5555 4.08399 11.5198C4.15543 11.4841 4.21758 11.4322 4.2655 11.3683L8.6232 5.55769L15.4299 9.44824C15.5082 9.49304 15.5969 9.51646 15.6871 9.51615C15.7584 9.5164 15.829 9.50182 15.8944 9.47333C15.9597 9.44485 16.0185 9.40309 16.0669 9.35069C16.1152 9.2983 16.1522 9.23642 16.1754 9.16899C16.1986 9.10155 16.2075 9.03003 16.2016 8.95896C16.0472 7.10373 15.3486 5.74445 14.1297 4.91973Z" fill="#C62A1C"/>
<path d="M14.3219 16.4111C13.288 15.0398 11.7619 14.1236 10.0655 13.8556C10.3794 12.7803 10.5399 11.6661 10.5425 10.5459C10.5407 9.56224 10.417 8.58255 10.1741 7.62931L8.90178 6.90234L8.88737 6.92138C9.2997 8.08543 9.51142 9.31102 9.5135 10.5459C9.51106 11.636 9.34456 12.7194 9.0196 13.7599H8.99902C7.96666 13.7571 6.9479 13.9953 6.02382 14.4556C5.09974 14.9158 4.29585 15.5854 3.67614 16.4111C3.61881 16.4875 3.5839 16.5784 3.57532 16.6736C3.56674 16.7687 3.58483 16.8644 3.62756 16.9499C3.67029 17.0353 3.73597 17.1072 3.81725 17.1574C3.89852 17.2077 3.99218 17.2343 4.08773 17.2343H13.9144C14.01 17.2343 14.1036 17.2077 14.1849 17.1574C14.2662 17.1072 14.3319 17.0353 14.3746 16.9499C14.4173 16.8644 14.4354 16.7687 14.4268 16.6736C14.4182 16.5784 14.3833 16.4875 14.326 16.4111H14.3219Z" fill="#C62A1C"/>
</g>
<defs>
<clipPath id="clip0_4455_5772">
<rect width="16.4636" height="16.4636" fill="white" transform="translate(0.769531 0.768555)"/>
</clipPath>
</defs>
</svg>
