<svg width="20" height="20" viewBox="0 0 20 20" fill="none" xmlns="http://www.w3.org/2000/svg">
<path d="M10 0C4.47656 0 0 4.47656 0 10C0 15.5234 4.47656 20 10 20C15.5234 20 20 15.5234 20 10C20 4.47656 15.5234 0 10 0ZM2.5 10C2.5 5.85547 5.85938 2.5 10 2.5C11.6445 2.5 13.1641 3.03516 14.3984 3.93359L3.93359 14.3984C3.03516 13.1641 2.5 11.6445 2.5 10ZM10 17.5C8.35547 17.5 6.83594 16.9648 5.60156 16.0664L16.0664 5.60156C16.9648 6.83984 17.5 8.35547 17.5 10C17.5 14.1445 14.1406 17.5 10 17.5Z" fill="white"/>
</svg>
