<svg width="20" height="20" viewBox="0 0 20 20" fill="none" xmlns="http://www.w3.org/2000/svg">
<path d="M10.0005 0C4.47685 0 5.42613e-08 4.47685 5.42613e-08 9.99948C-0.000136758 11.3128 0.258441 12.6133 0.760966 13.8267C1.26349 15.0401 2.00012 16.1426 2.92878 17.0712C3.85744 17.9999 4.95994 18.7365 6.17332 19.239C7.38671 19.7416 8.68719 20.0001 10.0005 20C15.5221 20 20 15.5231 20 9.99948C20 4.47685 15.5221 0 10.0005 0ZM10.9338 3.61023C11.9088 3.61023 12.1952 4.17582 12.1952 4.82267C12.1952 5.62992 11.5494 6.37675 10.4463 6.37675C9.52346 6.37675 9.0839 5.91323 9.11098 5.14557C9.11098 4.49872 9.65158 3.61023 10.9338 3.61023ZM8.43602 15.9888C7.76939 15.9888 7.28295 15.5836 7.74855 13.8076L8.51206 10.6567C8.64434 10.1526 8.66621 9.95052 8.51206 9.95052C8.31311 9.95052 7.44753 10.2984 6.93714 10.6422L6.60486 10.0974C8.22457 8.74434 10.087 7.95063 10.8838 7.95063C11.5504 7.95063 11.6609 8.73809 11.3286 9.95052L10.4536 13.2629C10.2984 13.8482 10.3651 14.0503 10.5203 14.0503C10.7203 14.0503 11.3744 13.8087 12.0181 13.3014L12.3952 13.8076C10.8192 15.3825 9.10161 15.9888 8.43602 15.9888Z" fill="white"/>
</svg>
