<svg width="20" height="20" viewBox="0 0 20 20" fill="none" xmlns="http://www.w3.org/2000/svg">
<path d="M20 10C20 12.6522 18.9464 15.1957 17.0711 17.0711C15.1957 18.9464 12.6522 20 10 20C7.34784 20 4.8043 18.9464 2.92893 17.0711C1.05357 15.1957 0 12.6522 0 10C0 7.34784 1.05357 4.8043 2.92893 2.92893C4.8043 1.05357 7.34784 0 10 0C12.6522 0 15.1957 1.05357 17.0711 2.92893C18.9464 4.8043 20 7.34784 20 10ZM15.0375 6.2125C14.9482 6.12352 14.8419 6.05347 14.7249 6.00652C14.6079 5.95957 14.4827 5.9367 14.3567 5.93926C14.2306 5.94183 14.1064 5.96979 13.9914 6.02146C13.8765 6.07313 13.7731 6.14746 13.6875 6.24L9.34625 11.7712L6.73 9.15375C6.55228 8.98815 6.31722 8.898 6.07435 8.90228C5.83147 8.90657 5.59974 9.00496 5.42797 9.17672C5.25621 9.34849 5.15782 9.58022 5.15353 9.8231C5.14925 10.066 5.2394 10.301 5.405 10.4788L8.7125 13.7875C8.8016 13.8764 8.90771 13.9465 9.02448 13.9936C9.14125 14.0406 9.26631 14.0637 9.39218 14.0613C9.51806 14.059 9.64217 14.0313 9.75712 13.98C9.87207 13.9286 9.9755 13.8547 10.0612 13.7625L15.0513 7.525C15.2214 7.34812 15.3153 7.11159 15.313 6.8662C15.3107 6.6208 15.2122 6.3861 15.0387 6.2125H15.0375Z" fill="white"/>
</svg>
