<svg width="776" height="800" viewBox="0 0 776 800" fill="none" xmlns="http://www.w3.org/2000/svg">
<g clip-path="url(#clip0_3632_2811)">
<circle opacity="0.1" cx="372.204" cy="457.965" r="176.563" stroke="#4AB7F3" stroke-width="6.43045" stroke-miterlimit="10"/>
<circle opacity="0.1" cx="372.203" cy="457.965" r="285.811" stroke="#4AB7F3" stroke-width="6.43045" stroke-miterlimit="10"/>
<path opacity="0.5" fill-rule="evenodd" clip-rule="evenodd" d="M188.3 131.088C242.637 100.452 305.378 82.9727 372.203 82.9727C579.305 82.9727 747.194 250.862 747.194 457.964C747.194 467.527 746.836 477.006 746.133 486.389L806.126 488.689C806.834 478.539 807.194 468.294 807.194 457.964C807.194 217.725 612.442 22.9727 372.203 22.9727C295.441 22.9727 223.323 42.856 160.718 77.7533L188.3 131.088Z" fill="url(#paint0_linear_3632_2811)"/>
<path d="M802.184 500.494C810.788 486.335 805.987 468.397 791.461 460.428C776.934 452.46 758.183 457.478 749.579 471.638C740.975 485.797 745.776 503.735 760.303 511.704C774.829 519.672 793.58 514.654 802.184 500.494Z" fill="#4AB7F3"/>
<path d="M799.184 536.875C807.788 522.715 802.987 504.777 788.461 496.809C773.934 488.84 755.183 493.859 746.579 508.018C737.975 522.177 742.776 540.116 757.303 548.084C771.829 556.053 790.58 551.034 799.184 536.875Z" fill="#FFA000"/>
<path fill-rule="evenodd" clip-rule="evenodd" d="M798.316 505.576C795.852 502.07 792.54 499.047 788.46 496.809C775.835 489.883 760.019 492.768 750.447 502.937C752.911 506.442 756.223 509.466 760.302 511.704C772.928 518.63 788.744 515.745 798.316 505.576Z" fill="#078A3C"/>
<path d="M669.553 383.816C676.358 368.71 669.395 351.495 654.002 345.366C638.608 339.237 620.614 346.515 613.809 361.622C607.004 376.729 613.967 393.944 629.36 400.072C644.754 406.201 662.749 398.923 669.553 383.816Z" fill="#4AB7F3"/>
<path d="M656.453 355.008C663.257 339.902 656.295 322.687 640.901 316.558C625.508 310.429 607.513 317.707 600.709 332.814C593.904 347.921 600.867 365.135 616.26 371.264C631.653 377.393 649.648 370.115 656.453 355.008Z" fill="#FFA000"/>
<path d="M678.653 518.508C687.257 504.349 682.456 486.411 667.929 478.442C653.403 470.474 634.652 475.492 626.048 489.652C617.443 503.811 622.245 521.749 636.771 529.718C651.298 537.686 670.049 532.668 678.653 518.508Z" fill="#4AB7F3"/>
<path d="M606.33 668.488C614.934 654.329 610.133 636.39 595.607 628.422C581.08 620.453 562.329 625.472 553.725 639.631C545.121 653.791 549.922 671.729 564.449 679.697C578.975 687.666 597.726 682.647 606.33 668.488Z" fill="#FFA000"/>
<path opacity="0.5" d="M288.863 731.379C345.224 746.282 403.897 746.015 458.654 732.03" stroke="url(#paint1_linear_3632_2811)" stroke-width="58" stroke-miterlimit="10"/>
<path d="M316.4 746.231C324.787 732.429 319.809 714.781 305.283 706.812C290.756 698.844 272.182 703.573 263.795 717.375C255.408 731.177 260.385 748.825 274.911 756.794C289.438 764.762 308.013 760.033 316.4 746.231Z" fill="#4AB7F3"/>
<path d="M476.804 746.837C485.408 732.678 480.607 714.74 466.08 706.771C451.554 698.802 432.803 703.821 424.199 717.98C415.595 732.14 420.396 750.078 434.922 758.047C449.449 766.015 468.2 760.996 476.804 746.837Z" fill="#FFA000"/>
<path fill-rule="evenodd" clip-rule="evenodd" d="M658.673 347.714C658.265 350.163 657.532 352.612 656.453 355.008C649.648 370.115 631.653 377.393 616.26 371.264C614.603 370.604 613.044 369.816 611.589 368.916C611.997 366.467 612.73 364.018 613.809 361.622C620.614 346.515 638.608 339.237 654.002 345.366C655.659 346.025 657.218 346.813 658.673 347.714Z" fill="#078A3C"/>
</g>
<defs>
<linearGradient id="paint0_linear_3632_2811" x1="177.238" y1="107.138" x2="833.79" y2="171.85" gradientUnits="userSpaceOnUse">
<stop stop-color="#3E43AC" stop-opacity="0"/>
<stop offset="1" stop-color="#4AB7F3"/>
</linearGradient>
<linearGradient id="paint1_linear_3632_2811" x1="289.322" y1="735.679" x2="467.35" y2="736.227" gradientUnits="userSpaceOnUse">
<stop stop-color="#4AB7F3"/>
<stop offset="1" stop-color="#4AB7F3" stop-opacity="0"/>
</linearGradient>
<clipPath id="clip0_3632_2811">
<rect width="776" height="800" fill="white"/>
</clipPath>
</defs>
</svg>
