<svg width="118" height="98" viewBox="0 0 118 98" fill="none" xmlns="http://www.w3.org/2000/svg">
<path d="M0 10.6589V38.552L60.5695 53.1336V21.7271L44.1374 5.29497C42.4496 3.60715 40.1604 2.65894 37.7734 2.65894H8C3.58172 2.65894 0 6.24066 0 10.6589Z" fill="#91E3FF"/>
<rect y="21.7271" width="98.7059" height="76.2728" rx="11" fill="url(#paint0_linear)"/>
<path opacity="0.3" fill-rule="evenodd" clip-rule="evenodd" d="M36.2296 92.1354C42.7335 92.1354 49.0991 89.491 52.7545 84.1116C60.3185 72.9806 64.6794 59.8856 64.6794 45.8715C64.6794 45.0456 64.6642 44.2229 64.6342 43.4036C64.2623 33.2651 54.896 26.593 44.7507 26.593H12.8672C8.44891 26.593 4.86719 30.1747 4.86719 34.593V84.1354C4.86719 88.5537 8.44891 92.1354 12.8672 92.1354H36.2296Z" fill="#0C9DEE"/>
<rect x="17.9453" y="50.8906" width="51.2628" height="3.19824" rx="1.59912" fill="#91E3FF"/>
<rect x="17.9453" y="64.3496" width="28.8296" height="3.19824" rx="1.59912" fill="#91E3FF"/>
<g filter="url(#filter0_d)">
<path d="M96.011 5.3534L96.0043 5.34221L95.9972 5.33119C95.2776 4.20539 94.2861 3.27889 93.1141 2.63711L92.6386 3.50545L93.1141 2.63711C91.9422 1.99533 90.6275 1.65894 89.2914 1.65894C87.9552 1.65894 86.6406 1.99533 85.4686 2.63711L85.9442 3.50545L85.4686 2.63711C84.2967 3.27889 83.3052 4.20539 82.5855 5.33119L82.5785 5.34221L82.5717 5.3534L67.0108 31.1599H67.0108L67.0096 31.1618C66.3696 32.2287 66.0217 33.4453 66.001 34.6892C65.9803 35.9332 66.2874 37.1607 66.8915 38.2483L66.8914 38.2483L66.8971 38.2582C67.5847 39.4635 68.58 40.4646 69.7812 41.1592C70.9819 41.8534 72.3453 42.2166 73.7321 42.2117H104.847C106.224 42.2254 107.58 41.8763 108.779 41.1994C109.979 40.5216 110.979 39.5392 111.679 38.3512L111.683 38.3438L111.687 38.3363C112.309 37.2374 112.626 35.9923 112.605 34.7298C112.585 33.4681 112.227 32.2348 111.57 31.1574C111.57 31.1567 111.57 31.1561 111.569 31.1554L96.011 5.3534Z" fill="white" stroke="white" stroke-width="2"/>
<path d="M110.716 31.6763L95.1546 5.86978C94.5254 4.88543 93.6585 4.07534 92.6338 3.5142C91.6091 2.95306 90.4597 2.65894 89.2914 2.65894C88.1231 2.65894 86.9736 2.95306 85.9489 3.5142C84.9243 4.07534 84.0573 4.88543 83.4281 5.86978L67.8671 31.6763C67.3174 32.5926 67.0187 33.6375 67.0008 34.7059C66.983 35.7743 67.2468 36.8286 67.7657 37.7627C68.3656 38.8142 69.2339 39.6875 70.2818 40.2935C71.3298 40.8994 72.5198 41.2163 73.7304 41.2117H104.852C106.055 41.2245 107.24 40.9199 108.287 40.3286C109.334 39.7373 110.207 38.8802 110.817 37.8439C111.351 36.9 111.623 35.8306 111.606 34.7463C111.588 33.6619 111.28 32.602 110.716 31.6763ZM89.2914 33.0964C88.8901 33.0964 88.4979 32.9774 88.1642 32.7545C87.8306 32.5316 87.5706 32.2147 87.417 31.844C87.2634 31.4733 87.2233 31.0654 87.3015 30.6718C87.3798 30.2783 87.5731 29.9168 87.8568 29.633C88.1405 29.3493 88.502 29.1561 88.8956 29.0778C89.2891 28.9995 89.6971 29.0397 90.0678 29.1932C90.4385 29.3468 90.7553 29.6068 90.9783 29.9405C91.2012 30.2741 91.3202 30.6664 91.3202 31.0676C91.3202 31.6057 91.1064 32.1217 90.726 32.5022C90.3455 32.8827 89.8295 33.0964 89.2914 33.0964ZM91.3202 24.9812C91.3202 25.5193 91.1064 26.0353 90.726 26.4158C90.3455 26.7962 89.8295 27.01 89.2914 27.01C88.7533 27.01 88.2373 26.7962 87.8568 26.4158C87.4763 26.0353 87.2626 25.5193 87.2626 24.9812V16.8659C87.2626 16.3279 87.4763 15.8118 87.8568 15.4314C88.2373 15.0509 88.7533 14.8371 89.2914 14.8371C89.8295 14.8371 90.3455 15.0509 90.726 15.4314C91.1064 15.8118 91.3202 16.3279 91.3202 16.8659V24.9812Z" fill="#FF472E"/>
</g>
<defs>
<filter id="filter0_d" x="61" y="0.658936" width="56.6064" height="50.5531" filterUnits="userSpaceOnUse" color-interpolation-filters="sRGB">
<feFlood flood-opacity="0" result="BackgroundImageFix"/>
<feColorMatrix in="SourceAlpha" type="matrix" values="0 0 0 0 0 0 0 0 0 0 0 0 0 0 0 0 0 0 127 0"/>
<feOffset dy="4"/>
<feGaussianBlur stdDeviation="2"/>
<feColorMatrix type="matrix" values="0 0 0 0 0 0 0 0 0 0 0 0 0 0 0 0 0 0 0.1 0"/>
<feBlend mode="multiply" in2="BackgroundImageFix" result="effect1_dropShadow"/>
<feBlend mode="normal" in="SourceGraphic" in2="effect1_dropShadow" result="shape"/>
</filter>
<linearGradient id="paint0_linear" x1="98.2595" y1="97.9997" x2="87.175" y2="24.9643" gradientUnits="userSpaceOnUse">
<stop stop-color="#1F42A1"/>
<stop offset="0.9974" stop-color="#317EFF"/>
</linearGradient>
</defs>
</svg>
