<svg width="159" height="105" fill="none" xmlns="http://www.w3.org/2000/svg"><path d="M128.963 69.82L43.5 100.5 120 45l11.849 11.567c4.228 4.127 2.676 11.257-2.886 13.254z" fill="#D2DAEE"/><path d="M74.237 81.042l-40.83-59.39-29.49 20.206a5 5 0 0 0-1.438 6.735L31.66 96.276c2.93 4.786 9.222 6.226 13.94 3.19l28.636-18.424z" fill="url(#paint0_linear)"/><path opacity=".3" d="M42.242 97.788l24.78-15.843a1.684 1.684 0 0 0 .474-2.383L49.316 53.52c-9.89-14.164-29.306-17.79-43.64-8.147a2.083 2.083 0 0 0-.6 2.838l30.241 48.03a5 5 0 0 0 6.925 1.548z" fill="url(#paint1_linear)"/><path d="M68.05 19.797l-34.644 1.856 40.212 59.39 36.5-4.95L68.05 19.798z" fill="url(#paint2_linear)"/><path d="M97.74 2.203L68.05 19.797l42.069 56.296 25.852-15.155c5.278-3.094 6.566-10.16 2.718-14.916L104.176 3.36a5 5 0 0 0-6.436-1.157z" fill="url(#paint3_linear)"/><path opacity=".2" d="M56.62 44.77l-4.651-6.93 8.042-.634a2 2 0 0 1 1.755.79l5.05 6.701-8.309.946a2 2 0 0 1-1.886-.873zM68.992 43.532l-4.652-6.93 8.042-.635a2 2 0 0 1 1.755.79l5.05 6.702-8.309.945a2 2 0 0 1-1.886-.872zM63.412 54.715l-4.639-6.461 8.186-1.091a2 2 0 0 1 1.8.702l5.48 6.575-8.96 1.094a2 2 0 0 1-1.867-.819z" stroke="#90E3FF" stroke-linejoin="round"/><path opacity=".4" d="M56.58 38.949L49 27.167l13.029-1.074a2 2 0 0 1 1.786.822L72 38.25l-13.502 1.603a2 2 0 0 1-1.918-.904z" fill="#90E3FF" stroke="#90E3FF" stroke-linejoin="round"/><g filter="url(#filter0_d)"><path d="M56.015 27.975L47 14.333l15.51-1.244a2 2 0 0 1 1.766.802L74 27l-16.087 1.859a2 2 0 0 1-1.898-.884z" fill="#90E3FF"/><path d="M56.015 27.975L47 14.333l15.51-1.244a2 2 0 0 1 1.766.802L74 27l-16.087 1.859a2 2 0 0 1-1.898-.884z" stroke="#90E3FF" stroke-linejoin="round"/></g><g filter="url(#filter1_d)"><path d="M137.011 9.694l-.007-.01-.007-.012a7.953 7.953 0 0 0-2.883-2.694l-.475.869.475-.869a7.958 7.958 0 0 0-7.645 0l.475.869-.475-.869a7.953 7.953 0 0 0-2.883 2.694l-.008.011-.006.011-15.561 25.807-.001.002a7.09 7.09 0 0 0-.119 7.086l.006.01a7.841 7.841 0 0 0 6.835 3.954h31.115a7.839 7.839 0 0 0 6.832-3.86l.004-.008.004-.008a7.082 7.082 0 0 0-.117-7.178l-.001-.003-15.558-25.802z" fill="#fff" stroke="#fff" stroke-width="2"/><path d="M151.716 36.017l-15.561-25.806a6.96 6.96 0 0 0-11.727 0l-15.561 25.806a6.085 6.085 0 0 0-.101 6.087 6.837 6.837 0 0 0 5.964 3.449h31.122a6.836 6.836 0 0 0 5.965-3.368 6.096 6.096 0 0 0 .789-3.098 6.097 6.097 0 0 0-.89-3.07zm-21.425 1.42a2.03 2.03 0 0 1-1.434-3.463 2.028 2.028 0 1 1 1.434 3.464zm2.029-8.115a2.03 2.03 0 0 1-2.029 2.03 2.027 2.027 0 0 1-2.028-2.03v-8.115a2.026 2.026 0 0 1 2.028-2.029 2.03 2.03 0 0 1 2.029 2.029v8.115z" fill="#FF472E"/></g><defs><filter id="filter0_d" x="42.5" y="12.582" width="36" height="24.79" filterUnits="userSpaceOnUse" color-interpolation-filters="sRGB"><feFlood flood-opacity="0" result="BackgroundImageFix"/><feColorMatrix in="SourceAlpha" values="0 0 0 0 0 0 0 0 0 0 0 0 0 0 0 0 0 0 127 0"/><feOffset dy="4"/><feGaussianBlur stdDeviation="2"/><feColorMatrix values="0 0 0 0 0 0 0 0 0 0 0 0 0 0 0 0 0 0 0.1 0"/><feBlend in2="BackgroundImageFix" result="effect1_dropShadow"/><feBlend in="SourceGraphic" in2="effect1_dropShadow" result="shape"/></filter><filter id="filter1_d" x="102" y="5" width="56.606" height="50.553" filterUnits="userSpaceOnUse" color-interpolation-filters="sRGB"><feFlood flood-opacity="0" result="BackgroundImageFix"/><feColorMatrix in="SourceAlpha" values="0 0 0 0 0 0 0 0 0 0 0 0 0 0 0 0 0 0 127 0"/><feOffset dy="4"/><feGaussianBlur stdDeviation="2"/><feColorMatrix values="0 0 0 0 0 0 0 0 0 0 0 0 0 0 0 0 0 0 0.1 0"/><feBlend mode="multiply" in2="BackgroundImageFix" result="effect1_dropShadow"/><feBlend in="SourceGraphic" in2="effect1_dropShadow" result="shape"/></filter><linearGradient id="paint0_linear" x1="37.119" y1="21.652" x2="37.119" y2="106.407" gradientUnits="userSpaceOnUse"><stop stop-color="#0085FF"/><stop offset=".941" stop-color="#203EA7"/></linearGradient><linearGradient id="paint1_linear" x1="36.25" y1="28" x2="36.25" y2="100.5" gradientUnits="userSpaceOnUse"><stop stop-color="#0C9DEE"/><stop offset="1" stop-color="#0C9DEE" stop-opacity="0"/></linearGradient><linearGradient id="paint2_linear" x1="53.822" y1="19.797" x2="91.559" y2="78.568" gradientUnits="userSpaceOnUse"><stop stop-color="#0F57CF"/><stop offset="1" stop-color="#0B38A9"/></linearGradient><linearGradient id="paint3_linear" x1="101.5" y1="2" x2="109" y2="76" gradientUnits="userSpaceOnUse"><stop offset=".066" stop-color="#0085FF"/><stop offset="1" stop-color="#203EA7"/></linearGradient></defs></svg>