<svg width="20" height="20" viewBox="0 0 20 20" xmlns="http://www.w3.org/2000/svg">
<path d="M14.1 8.55C14.1 7.95249 13.9823 7.36082 13.7537 6.80879C13.525 6.25676 13.1898 5.75517 12.7673 5.33266C12.3448 4.91016 11.8432 4.57501 11.2912 4.34635C10.7392 4.11769 10.1475 4 9.55 4C8.95249 4 8.36082 4.11769 7.80879 4.34635C7.25676 4.57501 6.75517 4.91016 6.33266 5.33266C5.91016 5.75517 5.57501 6.25676 5.34635 6.80879C5.11769 7.36082 5 7.95249 5 8.55C5 9.45155 5.2665 10.2901 5.71825 10.9973H5.71305C7.24705 13.399 9.55 17 9.55 17L13.387 10.9973H13.3824C13.8507 10.2669 14.0997 9.41758 14.1 8.55ZM9.55 10.5C9.03283 10.5 8.53684 10.2946 8.17114 9.92886C7.80545 9.56316 7.6 9.06717 7.6 8.55C7.6 8.03283 7.80545 7.53684 8.17114 7.17114C8.53684 6.80545 9.03283 6.6 9.55 6.6C10.0672 6.6 10.5632 6.80545 10.9289 7.17114C11.2946 7.53684 11.5 8.03283 11.5 8.55C11.5 9.06717 11.2946 9.56316 10.9289 9.92886C10.5632 10.2946 10.0672 10.5 9.55 10.5Z" />
</svg>
