<svg width="20" height="16" viewBox="0 0 20 16" fill="none" xmlns="http://www.w3.org/2000/svg">
<path d="M18.4042 1.94482L20 0.418151V0.0839844H14.4717L10.5317 9.89065L6.04917 0.0839844H0.2525V0.418151L2.11667 2.66232C2.29833 2.82815 2.39333 3.07065 2.36917 3.31482V12.134C2.42667 12.4515 2.32333 12.7782 2.1 13.009L0 15.554V15.884H5.95417V15.5498L3.85417 13.009C3.62667 12.7773 3.51917 12.4565 3.565 12.134V4.50565L8.79167 15.8882H9.39917L13.8933 4.50565V13.5732C13.8933 13.8123 13.8933 13.8615 13.7367 14.0182L12.12 15.5823V15.9173H19.9633V15.5832L18.405 14.0573C18.2683 13.954 18.1975 13.7807 18.2267 13.6123V2.38982C18.1975 2.22065 18.2675 2.04732 18.4042 1.94482Z" fill="black"/>
</svg>
