<svg width="62" height="50" viewBox="0 0 62 50" fill="none" xmlns="http://www.w3.org/2000/svg">
<path d="M61.7646 35.4902C61.7646 29.9674 57.2875 25.4902 51.7646 25.4902H37.4509C31.9281 25.4902 27.4509 29.9674 27.4509 35.4902V50H61.7646V35.4902Z" fill="#FFA000"/>
<circle r="10.7843" transform="matrix(-1 0 0 1 45.0975 10.7843)" fill="#FFA000"/>
<path d="M34.3145 35.4902C34.3145 29.9674 29.8373 25.4902 24.3145 25.4902H10.0007C4.47788 25.4902 0.000728607 29.9674 0.000728607 35.4902V50H34.3145V35.4902Z" fill="#4AB7F3"/>
<circle r="10.7843" transform="matrix(-1 0 0 1 17.6473 10.7843)" fill="#4AB7F3"/>
<path fill-rule="evenodd" clip-rule="evenodd" d="M34.3145 50H27.4519V35.4902C27.4519 32.4815 28.7806 29.7832 30.8832 27.95C32.9858 29.7832 34.3145 32.4815 34.3145 35.4902V50Z" fill="#078A3C"/>
</svg>
