<svg width="16" height="20" viewBox="0 0 16 20" fill="none" xmlns="http://www.w3.org/2000/svg">
<path fill-rule="evenodd" clip-rule="evenodd" d="M3 2C2.44772 2 2 2.44772 2 3V17C2 17.5523 2.44771 18 3 18H13C13.5523 18 14 17.5523 14 17L14 7.41421L8.58579 2H3ZM0 3C0 1.34315 1.34315 0 3 0H8.58579C9.11622 0 9.62493 0.210713 10 0.585787L15.4142 6C15.7893 6.37507 16 6.88378 16 7.41421V17C16 18.6569 14.6569 20 13 20H3C1.34315 20 0 18.6569 0 17V3ZM4 10C4 9.44771 4.44772 9 5 9H11C11.5523 9 12 9.44771 12 10C12 10.5523 11.5523 11 11 11H5C4.44772 11 4 10.5523 4 10ZM4 14C4 13.4477 4.44772 13 5 13H11C11.5523 13 12 13.4477 12 14C12 14.5523 11.5523 15 11 15H5C4.44772 15 4 14.5523 4 14Z" fill="black"/>
</svg>
