<svg width="16" height="16" viewBox="0 0 16 16" xmlns="http://www.w3.org/2000/svg">
<path fill-rule="evenodd" clip-rule="evenodd" d="M4.74964 15.5H11.2496C13.7923 15.5 15.5 13.7164 15.5 11.0625V4.93754C15.5 2.28358 13.7923 0.5 11.2504 0.5H4.74964C2.20767 0.5 0.5 2.28358 0.5 4.93754V11.0625C0.5 13.7164 2.20767 15.5 4.74964 15.5ZM5.37414 7.25C4.34016 7.25 3.5 6.4087 3.5 5.375C3.5 4.3413 4.34016 3.5 5.37414 3.5C6.40737 3.5 7.24829 4.3413 7.24829 5.375C7.24829 6.4087 6.40737 7.25 5.37414 7.25ZM13.8656 10.2004C14.1168 10.8444 13.9863 11.6184 13.7178 12.2562C13.3995 13.0147 12.7901 13.589 12.0224 13.8398C11.6815 13.9512 11.324 14 10.9673 14H4.64648C4.0175 14 3.46091 13.849 3.00463 13.5681C2.71879 13.3916 2.66826 12.9845 2.88019 12.7206C3.23465 12.2794 3.58459 11.8367 3.93755 11.3901C4.61028 10.5356 5.06355 10.2879 5.56734 10.5054C5.77172 10.5952 5.97686 10.7299 6.18803 10.8723C6.75065 11.2546 7.53274 11.7802 8.56295 11.2097C9.26795 10.8149 9.67685 10.1376 10.0329 9.54777L10.0389 9.5379C10.0641 9.49652 10.0891 9.45515 10.1141 9.41388L10.1141 9.41386C10.2337 9.21586 10.3518 9.02051 10.4854 8.84053C10.6528 8.6153 11.2735 7.91097 12.0774 8.41252C12.5895 8.72831 13.0202 9.15555 13.481 9.61298C13.6567 9.7879 13.7819 9.98682 13.8656 10.2004Z" />
</svg>
