<!-- Generated by IcoMoon.io -->
<svg version="1.1" xmlns="http://www.w3.org/2000/svg" width="14" height="32" viewBox="0 0 14 32">
<title>info</title>
<path d="M12.8 27.2l-0.457 1.6c-1.143 0.457-2.057 0.914-2.743 1.143s-1.6 0.457-2.514 0.457c-1.371 0-2.514-0.457-3.429-1.143-0.686-0.686-1.143-1.6-1.143-2.743 0-0.457 0-0.914 0-1.371s0.229-0.914 0.229-1.371l1.371-5.257c0.229-0.457 0.229-0.914 0.229-1.371s0.229-0.914 0.229-1.143c0-0.686-0.229-1.143-0.457-1.371s-0.686-0.457-1.6-0.457c-0.457 0-0.686 0-1.143 0.229s-0.686 0.229-1.143 0.229l0.457-1.6c0.914-0.457 1.829-0.686 2.743-0.914s1.829-0.457 2.514-0.457c1.371 0 2.514 0.229 3.2 0.914s1.143 1.6 1.143 2.743c0 0.229 0 0.686 0 1.143s-0.229 1.143-0.229 1.6l-1.371 5.257c-0.229 0.457-0.229 0.914-0.229 1.371s-0.229 0.914-0.229 1.143c0 0.686 0.229 1.143 0.457 1.371s0.914 0.457 1.6 0.457c0.457 0 0.686 0 1.143-0.229 0.686 0 1.143-0.229 1.371-0.229zM13.029 5.257c0 0.914-0.457 1.6-0.914 2.286-0.686 0.686-1.6 0.914-2.514 0.914s-1.829-0.229-2.514-0.914c-0.686-0.686-1.143-1.371-1.143-2.286s0.457-1.6 1.143-2.286c0.686-0.686 1.6-0.914 2.514-0.914s1.829 0.229 2.514 0.914c0.686 0.686 0.914 1.371 0.914 2.286z"></path>
</svg>
