<svg width="15" height="18" viewBox="0 0 15 18" xmlns="http://www.w3.org/2000/svg">
<path d="M11.875 6.33341H13.4583C13.6683 6.33341 13.8697 6.41682 14.0181 6.56529C14.1666 6.71375 14.25 6.91512 14.25 7.12508V16.6251C14.25 16.835 14.1666 17.0364 14.0181 17.1849C13.8697 17.3333 13.6683 17.4167 13.4583 17.4167H0.791667C0.581704 17.4167 0.38034 17.3333 0.231874 17.1849C0.0834075 17.0364 0 16.835 0 16.6251V7.12508C0 6.91512 0.0834075 6.71375 0.231874 6.56529C0.38034 6.41682 0.581704 6.33341 0.791667 6.33341H2.375V5.54175C2.375 4.28197 2.87545 3.07379 3.76624 2.18299C4.65704 1.29219 5.86522 0.791748 7.125 0.791748C8.38478 0.791748 9.59296 1.29219 10.4838 2.18299C11.3746 3.07379 11.875 4.28197 11.875 5.54175V6.33341ZM10.2917 6.33341V5.54175C10.2917 4.7019 9.95804 3.89644 9.36417 3.30258C8.77031 2.70871 7.96485 2.37508 7.125 2.37508C6.28515 2.37508 5.47969 2.70871 4.88583 3.30258C4.29196 3.89644 3.95833 4.7019 3.95833 5.54175V6.33341H10.2917ZM6.33333 11.0834V12.6667H7.91667V11.0834H6.33333ZM3.16667 11.0834V12.6667H4.75V11.0834H3.16667ZM9.5 11.0834V12.6667H11.0833V11.0834H9.5Z" />
</svg>
