<svg width="19" height="17" viewBox="0 0 19 17" xmlns="http://www.w3.org/2000/svg">
<path d="M14.0326 12.1683C14.066 12.2017 14.0925 12.2414 14.1106 12.285C14.1287 12.3287 14.138 12.3755 14.138 12.4228C14.138 12.4701 14.1287 12.5169 14.1106 12.5605C14.0925 12.6042 14.066 12.6439 14.0326 12.6773L10.2526 16.4573C10.2191 16.4907 10.1795 16.5172 10.1358 16.5353C10.0921 16.5534 10.0453 16.5627 9.99805 16.5627C9.95078 16.5627 9.90397 16.5534 9.8603 16.5353C9.81663 16.5172 9.77695 16.4907 9.74353 16.4573L5.96352 12.6773C5.92914 12.6441 5.90171 12.6044 5.88285 12.5604C5.86398 12.5165 5.85405 12.4693 5.85364 12.4215C5.85322 12.3737 5.86233 12.3263 5.88043 12.282C5.89853 12.2378 5.92526 12.1976 5.95906 12.1638C5.99286 12.13 6.03306 12.1033 6.0773 12.0852C6.12154 12.0671 6.16895 12.058 6.21675 12.0584C6.26455 12.0588 6.31179 12.0687 6.35571 12.0876C6.39963 12.1065 6.43936 12.1339 6.47257 12.1683L9.63805 15.3337V6.12017C9.63805 6.02469 9.67597 5.93313 9.74349 5.86561C9.811 5.7981 9.90257 5.76017 9.99805 5.76017C10.0935 5.76017 10.1851 5.7981 10.2526 5.86561C10.3201 5.93313 10.358 6.02469 10.358 6.12017V15.3337L13.5235 12.1684C13.5569 12.1349 13.5966 12.1084 13.6403 12.0903C13.684 12.0722 13.7308 12.0629 13.778 12.0629C13.8253 12.0629 13.8721 12.0722 13.9158 12.0903C13.9595 12.1084 13.9991 12.1349 14.0326 12.1684V12.1683ZM1.35804 7.92017C1.45352 7.92017 1.54509 7.88224 1.6126 7.81473C1.68012 7.74722 1.71804 7.65565 1.71804 7.56017V1.08017C1.71814 0.984723 1.7561 0.893211 1.82359 0.825719C1.89108 0.758226 1.9826 0.720267 2.07804 0.720172H17.918C18.0135 0.720267 18.105 0.758226 18.1725 0.825719C18.24 0.893211 18.278 0.984723 18.278 1.08017V7.56017C18.278 7.65565 18.316 7.74722 18.3835 7.81473C18.451 7.88224 18.5426 7.92017 18.638 7.92017C18.7335 7.92017 18.8251 7.88224 18.8926 7.81473C18.9601 7.74722 18.998 7.65565 18.998 7.56017V1.08017C18.9977 0.793834 18.8839 0.519312 18.6814 0.316839C18.4789 0.114366 18.2044 0.000482492 17.918 0.000171594H2.07804C1.79171 0.000482492 1.51718 0.114366 1.31471 0.316839C1.11224 0.519312 0.998354 0.793834 0.998045 1.08017V7.56017C0.998045 7.65565 1.03597 7.74722 1.10348 7.81473C1.171 7.88224 1.26257 7.92017 1.35804 7.92017Z" />
</svg>
