<svg width="18" height="18" viewBox="0 0 18 18" xmlns="http://www.w3.org/2000/svg">
<g>
<path d="M16.1653 2.9999C16.0972 2.99287 16.0285 2.99287 15.9603 2.9999H1.96031C1.87058 3.00128 1.78145 3.01473 1.69531 3.0399L8.92031 10.2349L16.1653 2.9999Z" />
<path d="M16.9048 3.69507L9.62484 10.9451C9.43748 11.1313 9.18403 11.2359 8.91984 11.2359C8.65566 11.2359 8.40221 11.1313 8.21484 10.9451L0.999844 3.75007C0.977663 3.83159 0.965903 3.91559 0.964844 4.00007V14.0001C0.964844 14.2653 1.0702 14.5196 1.25774 14.7072C1.44527 14.8947 1.69963 15.0001 1.96484 15.0001H15.9648C16.2301 15.0001 16.4844 14.8947 16.672 14.7072C16.8595 14.5196 16.9648 14.2653 16.9648 14.0001V4.00007C16.9609 3.8959 16.9406 3.79299 16.9048 3.69507ZM2.64984 14.0001H1.95484V13.2851L5.58984 9.68007L6.29484 10.3851L2.64984 14.0001ZM15.9548 14.0001H15.2548L11.6098 10.3851L12.3148 9.68007L15.9498 13.2851L15.9548 14.0001Z" />
</g>
</svg>
