<!-- Generated by IcoMoon.io -->
<svg version="1.1" xmlns="http://www.w3.org/2000/svg" width="32" height="32" viewBox="0 0 32 32">
<title>glossary</title>
<path d="M26 1.333c1.040 0 1.894 0.793 1.991 1.807l0.009 0.193v2h-1.333v-2c0-0.327-0.236-0.599-0.547-0.656l-0.12-0.011h-18.667c-1.841 0-3.333 1.492-3.333 3.333 0 1.767 1.375 3.213 3.114 3.326l0.219 0.007h18.667c1.040 0 1.894 0.793 1.991 1.807l0.009 0.193v17.333c0 1.040-0.793 1.894-1.807 1.991l-0.193 0.009h-18.667c-2.491 0-4.527-1.952-4.66-4.411l-0.007-0.256v-20l0.007-0.256c0.128-2.373 2.030-4.275 4.404-4.404l0.256-0.007h18.667zM4 9.264v16.736c0 1.767 1.375 3.213 3.114 3.326l0.219 0.007h18.667c0.327 0 0.599-0.236 0.656-0.547l0.011-0.12v-17.333c0-0.327-0.236-0.599-0.547-0.656l-0.12-0.011h-18.667c-1.289 0-2.455-0.522-3.3-1.367l-0.034-0.036zM24 13.333v6.667h-16v-6.667h16zM22.667 14.667h-13.333v4h13.333v-4zM25.333 6.667v1.333h-18.667v-1.333h18.667zM25.333 4v1.333h-18.667v-1.333h18.667z"></path>
</svg>
