<!-- Generated by IcoMoon.io -->
<svg version="1.1" xmlns="http://www.w3.org/2000/svg" width="32" height="32" viewBox="0 0 32 32">
<title>help</title>
<path d="M16 0.667c8.468 0 15.333 6.865 15.333 15.333s-6.865 15.333-15.333 15.333c-8.468 0-15.333-6.865-15.333-15.333s6.865-15.333 15.333-15.333zM16 2c-7.732 0-14 6.268-14 14s6.268 14 14 14c7.732 0 14-6.268 14-14s-6.268-14-14-14zM15.88 23.131c0.373 0 0.672 0.117 0.896 0.35s0.336 0.537 0.336 0.91c0 0.373-0.112 0.677-0.336 0.91s-0.523 0.35-0.896 0.35c-0.373 0-0.677-0.117-0.91-0.35s-0.35-0.537-0.35-0.91c0-0.373 0.117-0.677 0.35-0.91s0.537-0.35 0.91-0.35zM16.244 6.667c1.717 0 3.108 0.429 4.172 1.288s1.596 2.016 1.596 3.472c0 3.005-1.801 4.881-5.404 5.628v0 3.304h-1.428v-4.060l0.411-0.098c1.744-0.434 2.993-0.985 3.747-1.652 0.812-0.719 1.218-1.713 1.218-2.982 0-1.12-0.392-2.002-1.176-2.646s-1.857-0.966-3.22-0.966c-1.456 0-2.599 0.359-3.43 1.078s-1.33 1.741-1.498 3.066v0l-1.232-0.672 0.072-0.339c0.313-1.332 0.957-2.386 1.931-3.161 1.055-0.84 2.469-1.26 4.242-1.26z"></path>
</svg>
