<svg width="20" height="17" viewBox="0 0 20 17" xmlns="http://www.w3.org/2000/svg">
  <path d="M15.093 5.187H16.013V8.049L20 4.025L16.012 0V2.387H15.092C11.398 2.387 9.316 5.125 7.478 7.539C5.826 9.711 4.398 11.588 2.092 11.588H0V14.387H2.093C5.787 14.387 7.869 11.651 9.707 9.235C11.359 7.062 12.787 5.187 15.093 5.187ZM5.41 6.951C5.568 6.748 5.726 6.539 5.887 6.328C6.29288 5.78712 6.71031 5.25499 7.139 4.732C5.817 3.498 4.224 2.588 2.093 2.588H0V5.387H2.093C3.42 5.387 4.455 6.01 5.41 6.951ZM16.012 11.787H15.092C13.685 11.787 12.605 11.086 11.601 10.049L11.298 10.446C10.857 11.026 10.383 11.647 9.859 12.264C11.215 13.588 12.859 14.588 15.091 14.588H16.011V16.986L20 12.961L16.012 8.936V11.787Z" />
</svg>
