<svg width="16" height="16" viewBox="0 0 16 16" xmlns="http://www.w3.org/2000/svg">
<mask id="path-1-inside-1" fill="white">
<path d="M9 7V0H7V7H0V9H7V16H9V9H16V7H9Z"/>
</mask>
<path d="M9 7V0H7V7H0V9H7V16H9V9H16V7H9Z" fill="white"/>
<path d="M9 7H7V9H9V7ZM9 0H11V-2H9V0ZM7 0V-2H5V0H7ZM7 7V9H9V7H7ZM0 7V5H-2V7H0ZM0 9H-2V11H0V9ZM7 9H9V7H7V9ZM7 16H5V18H7V16ZM9 16V18H11V16H9ZM9 9V7H7V9H9ZM16 9V11H18V9H16ZM16 7H18V5H16V7ZM11 7V0H7V7H11ZM9 -2H7V2H9V-2ZM5 0V7H9V0H5ZM7 5H0V9H7V5ZM-2 7V9H2V7H-2ZM0 11H7V7H0V11ZM5 9V16H9V9H5ZM7 18H9V14H7V18ZM11 16V9H7V16H11ZM9 11H16V7H9V11ZM18 9V7H14V9H18ZM16 5H9V9H16V5Z" mask="url(#path-1-inside-1)"/>
</svg>
