<svg width="20" height="19" viewBox="0 0 20 19" xmlns="http://www.w3.org/2000/svg">
  <path d="M15.093 5.187H16.013V8.049L20 4.025L16.012 0V2.387H15.092C11.398 2.387 9.316 3.125 7.478 5.539C5.826 7.711 4.398 7.588 2.092 7.588H0V10.387H2.093C5.787 10.387 7.869 9.651 9.707 7.235C11.359 5.062 12.787 5.187 15.093 5.187Z" />
  <path d="M15.093 13.2002H16.013V10.3382L20 14.3622L16.012 18.3872V16.0002H15.092C11.398 16.0002 9.316 15.2622 7.478 12.8482C5.826 10.6762 4.398 10.7992 2.092 10.7992H0V8.00021H2.093C5.787 8.00021 7.869 8.73621 9.707 11.1522C11.359 13.3252 12.787 13.2002 15.093 13.2002Z" />
</svg>
