<svg width="14" height="13" viewBox="0 0 14 13" xmlns="http://www.w3.org/2000/svg">
<path d="M13.1887 4.51714L9.22154 3.94058L7.4481 0.345269C7.39966 0.246832 7.31998 0.167144 7.22154 0.118707C6.97466 -0.00316805 6.67466 0.0983945 6.55123 0.345269L4.77779 3.94058L0.810601 4.51714C0.701226 4.53277 0.601226 4.58433 0.524663 4.66246C0.432103 4.75759 0.381099 4.88558 0.382856 5.0183C0.384614 5.15103 0.438991 5.27762 0.534038 5.37027L3.40435 8.16871L2.72623 12.1203C2.71032 12.2122 2.7205 12.3067 2.75559 12.3932C2.79068 12.4796 2.84929 12.5545 2.92477 12.6093C3.00025 12.6641 3.08958 12.6967 3.18263 12.7033C3.27568 12.71 3.36873 12.6904 3.45123 12.6468L6.99966 10.7812L10.5481 12.6468C10.645 12.6984 10.7575 12.7156 10.8653 12.6968C11.1372 12.65 11.32 12.3921 11.2731 12.1203L10.595 8.16871L13.4653 5.37027C13.5434 5.29371 13.595 5.19371 13.6106 5.08433C13.6528 4.81089 13.4622 4.55777 13.1887 4.51714Z" />
</svg>
