<svg width="127" height="11" viewBox="0 0 127 11" fill="none" xmlns="http://www.w3.org/2000/svg">
<path d="M0 0.651121L1.82614 0.651121L1.82614 8.97668L6.96741 8.97668V10.5289L0 10.5289L0 0.651121Z" fill="#15181F"/>
<path d="M16.9622 8.2429L12.0457 8.2429L11.0764 10.5289H9.19411L13.619 0.651121L15.417 0.651121L19.8559 10.5289H17.9455L16.9622 8.2429ZM16.3582 6.80357L14.504 2.48556L12.6638 6.80357L16.3582 6.80357Z" fill="#15181F"/>
<path d="M31.9509 0.651121V10.5289H30.4479L25.0256 3.84023V10.5289H23.2136V0.651121L24.7166 0.651121L30.1388 7.33979V0.651121L31.9509 0.651121Z" fill="#15181F"/>
<path d="M36.6928 0.651121L40.9913 0.651121C42.0401 0.651121 42.9719 0.858084 43.7867 1.27201C44.6014 1.67653 45.2335 2.25508 45.683 3.00768C46.1326 3.75086 46.3573 4.61164 46.3573 5.59001C46.3573 6.56838 46.1326 7.43386 45.683 8.18645C45.2335 8.92964 44.6014 9.50819 43.7867 9.92212C42.9719 10.3266 42.0401 10.5289 40.9913 10.5289L36.6928 10.5289V0.651121ZM40.907 8.97668C41.6281 8.97668 42.2602 8.84027 42.8034 8.56745C43.3559 8.28523 43.7773 7.89012 44.0676 7.38212C44.3673 6.86471 44.5171 6.26734 44.5171 5.59001C44.5171 4.91268 44.3673 4.32001 44.0676 3.81201C43.7773 3.2946 43.3559 2.89949 42.8034 2.62668C42.2602 2.34445 41.6281 2.20334 40.907 2.20334L38.519 2.20334V8.97668L40.907 8.97668Z" fill="#15181F"/>
<path d="M57.1199 5.47712L58.8477 5.47712V9.41412C58.342 9.81864 57.752 10.1291 57.0777 10.3455C56.4035 10.5618 55.7105 10.67 54.9988 10.67C53.9967 10.67 53.093 10.4536 52.2876 10.0209C51.4823 9.57875 50.8501 8.97197 50.3913 8.20057C49.9324 7.42916 49.703 6.55897 49.703 5.59001C49.703 4.62105 49.9324 3.75086 50.3913 2.97945C50.8501 2.20805 51.4823 1.60597 52.2876 1.17323C53.1024 0.731084 54.0154 0.51001 55.0268 0.51001C55.8509 0.51001 56.6001 0.646417 57.2744 0.919232C57.9487 1.19205 58.5152 1.59186 58.9741 2.11868L57.8222 3.24757C57.0731 2.49497 56.1694 2.11868 55.1111 2.11868C54.4181 2.11868 53.8001 2.26449 53.2569 2.55612C52.7231 2.84775 52.3017 3.25697 51.9927 3.78379C51.693 4.3106 51.5431 4.91268 51.5431 5.59001C51.5431 6.24853 51.693 6.84119 51.9927 7.36801C52.3017 7.89482 52.7231 8.30875 53.2569 8.60979C53.8001 8.91082 54.4135 9.06134 55.0971 9.06134C55.865 9.06134 56.5393 8.89201 57.1199 8.55334V5.47712Z" fill="#15181F"/>
<path d="M69.7969 10.5289L67.7882 7.63612C67.7039 7.64553 67.5775 7.65023 67.4089 7.65023H65.1895V10.5289H63.3633V0.651121L67.4089 0.651121C68.2611 0.651121 69.0009 0.792232 69.6284 1.07445C70.2652 1.35668 70.7521 1.76119 71.0893 2.28801C71.4264 2.81482 71.595 3.44042 71.595 4.16479C71.595 4.90797 71.4124 5.54768 71.0471 6.0839C70.6913 6.62012 70.1762 7.01994 69.5019 7.28334L71.7635 10.5289H69.7969ZM69.7548 4.16479C69.7548 3.53449 69.5488 3.05001 69.1367 2.71134C68.7247 2.37268 68.1206 2.20334 67.3246 2.20334H65.1895V6.14034H67.3246C68.1206 6.14034 68.7247 5.97101 69.1367 5.63234C69.5488 5.28427 69.7548 4.79508 69.7548 4.16479Z" fill="#15181F"/>
<path d="M75.7452 0.651121L77.5713 0.651121V10.5289H75.7452V0.651121Z" fill="#15181F"/>
<path d="M84.1642 2.18923V5.1949L88.9121 5.1949V6.74712L84.1642 6.74712V10.5289L82.338 10.5289V0.651121L89.5161 0.651121V2.18923L84.1642 2.18923Z" fill="#15181F"/>
<path d="M95.2153 2.18923V5.1949L99.9633 5.1949V6.74712L95.2153 6.74712V10.5289L93.3892 10.5289V0.651121L100.567 0.651121V2.18923L95.2153 2.18923Z" fill="#15181F"/>
<path d="M108.924 10.67C107.922 10.67 107.018 10.4536 106.213 10.0209C105.408 9.57875 104.775 8.97197 104.317 8.20057C103.858 7.41975 103.628 6.54957 103.628 5.59001C103.628 4.63045 103.858 3.76497 104.317 2.99357C104.775 2.21275 105.408 1.60597 106.213 1.17323C107.018 0.731084 107.922 0.51001 108.924 0.51001C109.926 0.51001 110.83 0.731084 111.635 1.17323C112.441 1.60597 113.073 2.20805 113.532 2.97945C113.99 3.75086 114.22 4.62105 114.22 5.59001C114.22 6.55897 113.99 7.42916 113.532 8.20057C113.073 8.97197 112.441 9.57875 111.635 10.0209C110.83 10.4536 109.926 10.67 108.924 10.67ZM108.924 9.06134C109.58 9.06134 110.17 8.91553 110.694 8.6239C111.218 8.32286 111.631 7.90894 111.93 7.38212C112.23 6.8459 112.38 6.24853 112.38 5.59001C112.38 4.93149 112.23 4.33882 111.93 3.81201C111.631 3.27579 111.218 2.86186 110.694 2.57023C110.17 2.2692 109.58 2.11868 108.924 2.11868C108.269 2.11868 107.679 2.2692 107.154 2.57023C106.63 2.86186 106.218 3.27579 105.918 3.81201C105.618 4.33882 105.468 4.93149 105.468 5.59001C105.468 6.24853 105.618 6.8459 105.918 7.38212C106.218 7.90894 106.63 8.32286 107.154 8.6239C107.679 8.91553 108.269 9.06134 108.924 9.06134Z" fill="#15181F"/>
<path d="M127 0.651121V10.5289H125.497L120.075 3.84023V10.5289H118.263V0.651121L119.766 0.651121L125.188 7.33979V0.651121L127 0.651121Z" fill="#15181F"/>
</svg>
