<?xml version="1.0" encoding="UTF-8"?>
<svg width="30px" height="30px" viewBox="0 0 30 30" version="1.1" xmlns="http://www.w3.org/2000/svg" xmlns:xlink="http://www.w3.org/1999/xlink">
    <title>Path</title>
    <g id="03_designs_solution-providers-🔴" stroke="none" stroke-width="1" fill="none" fill-rule="evenodd">
        <g id="solutionproviders_02" transform="translate(-977.000000, -664.000000)" fill="#02907F" fill-rule="nonzero">
            <path d="M1007,679 C1007,670.714844 1000.28516,664 992,664 C983.714844,664 977,670.714844 977,679 C977,687.285156 983.714844,694 992,694 C992.087891,694 992.175781,694 992.263672,693.994141 L992.263672,682.322266 L989.041016,682.322266 L989.041016,678.566406 L992.263672,678.566406 L992.263672,675.800781 C992.263672,672.595703 994.220703,670.849609 997.080078,670.849609 C998.451172,670.849609 999.628906,670.949219 999.96875,670.996094 L999.96875,674.347656 L998,674.347656 C996.447266,674.347656 996.142578,675.085938 996.142578,676.169922 L996.142578,678.560547 L999.863281,678.560547 L999.376953,682.316406 L996.142578,682.316406 L996.142578,693.419922 C1002.41211,691.621094 1007,685.849609 1007,679 Z" id="Path"></path>
        </g>
    </g>
</svg>