<?xml version="1.0" encoding="utf-8"?>
<!-- Generator: Adobe Illustrator 24.0.1, SVG Export Plug-In . SVG Version: 6.00 Build 0)  -->
<svg version="1.1" id="Layer_1" xmlns="http://www.w3.org/2000/svg" xmlns:xlink="http://www.w3.org/1999/xlink" x="0px" y="0px"
	 viewBox="0 0 30 30" style="enable-background:new 0 0 30 30;" xml:space="preserve">
<style type="text/css">
	.st0{fill:#02907F;}
	.st1{fill-rule:evenodd;clip-rule:evenodd;fill:#02907F;}
</style>
<title>instagram-sketched</title>
<g id="_x30_3_x5F_designs_x5F_solution-providers-_xD83D__xDD34_">
	<g id="solutionproviders_02" transform="translate(-1018.000000, -664.000000)">
		<g id="Group-2" transform="translate(1018.000000, 664.000000)">
			<g id="Shape">
				<path class="st0" d="M15,0C6.7,0,0,6.7,0,15s6.7,15,15,15s15-6.7,15-15S23.3,0,15,0z M23.6,18.6c0,0.9-0.2,1.5-0.4,2.1
					c-0.4,1.2-1.4,2.1-2.5,2.5c-0.5,0.2-1.2,0.4-2.1,0.4c-0.9,0-1.2,0.1-3.6,0.1c-2.3,0-2.6,0-3.6-0.1c-0.9,0-1.5-0.2-2.1-0.4
					c-0.6-0.2-1.1-0.6-1.5-1c-0.4-0.4-0.8-1-1-1.5c-0.2-0.5-0.4-1.2-0.4-2.1c0-0.9-0.1-1.2-0.1-3.6s0-2.6,0.1-3.6
					c0-0.9,0.2-1.5,0.4-2.1c0.2-0.6,0.6-1.1,1-1.5c0.4-0.4,1-0.8,1.5-1c0.5-0.2,1.2-0.4,2.1-0.4c0.9,0,1.2-0.1,3.6-0.1
					s2.6,0,3.6,0.1c0.9,0,1.5,0.2,2.1,0.4c0.6,0.2,1.1,0.6,1.5,1c0.4,0.4,0.8,1,1,1.5c0.2,0.5,0.4,1.2,0.4,2.1
					c0,0.9,0.1,1.2,0.1,3.6S23.6,17.6,23.6,18.6L23.6,18.6z"/>
			</g>
			<circle class="st0" cx="15.1" cy="15.1" r="3.5"/>
			<g id="Path_1_">
				<path class="st1" d="M20.1,12.4c-0.8,0-1.5-0.7-1.5-1.5s0.7-1.5,1.5-1.5s1.5,0.7,1.5,1.5C21.6,11.7,20.9,12.4,20.1,12.4z"/>
			</g>
		</g>
	</g>
</g>
</svg>
