<?xml version="1.0" encoding="UTF-8"?>
<svg width="30px" height="30px" viewBox="0 0 30 30" version="1.1" xmlns="http://www.w3.org/2000/svg" xmlns:xlink="http://www.w3.org/1999/xlink">
    <title>iconfinder_Circled_Linkedin_svg_5279114</title>
    <g id="03_designs_solution-providers-🔴" stroke="none" stroke-width="1" fill="none" fill-rule="evenodd">
        <g id="solutionproviders_02" transform="translate(-895.000000, -664.000000)" fill="#02907F">
            <g id="Group-13" transform="translate(895.000000, 656.000000)">
                <g id="iconfinder_Circled_Linkedin_svg_5279114" transform="translate(0.000000, 8.000000)">
                    <path d="M15,0 C23.2787109,0 30,6.72128906 30,15 C30,23.2787109 23.2787109,30 15,30 C6.72128906,30 0,23.2787109 0,15 C0,6.72128906 6.72128906,0 15,0 Z M10.310332,23.4299414 L10.310332,11.7158203 L6.41595703,11.7158203 L6.41595703,23.4299414 L10.310332,23.4299414 Z M24.3505664,23.4299414 L24.3505664,16.7124023 C24.3505664,13.1142187 22.4294531,11.4403711 19.8676172,11.4403711 C17.8018945,11.4403711 16.876582,12.5764453 16.3584961,13.374375 L16.3584961,11.7158203 L12.4651172,11.7158203 C12.5167383,12.8148633 12.4651172,23.4299414 12.4651172,23.4299414 L16.3584375,23.4299414 L16.3584375,16.8879492 C16.3584375,16.537793 16.3836328,16.1877539 16.4868164,15.9375 C16.7677734,15.2381836 17.4089063,14.5137305 18.4845703,14.5137305 C19.8928125,14.5137305 20.4570117,15.5883398 20.4570117,17.1624023 L20.4570117,23.4299414 L24.3505664,23.4299414 L24.3505664,23.4299414 Z M8.38945312,6.06738281 C7.05703125,6.06738281 6.18650391,6.94335937 6.18650391,8.09150391 C6.18650391,9.21544922 7.03054687,10.1155664 8.33789062,10.1155664 L8.36302734,10.1155664 C9.7209375,10.1155664 10.5661523,9.21544922 10.5661523,8.09150391 C10.540957,6.94335938 9.72099609,6.06738281 8.38945312,6.06738281 Z" id="Shape"></path>
                </g>
            </g>
        </g>
    </g>
</svg>