<svg width="325" height="423" viewBox="0 0 325 423" fill="none" xmlns="http://www.w3.org/2000/svg">
<g filter="url(#filter0_d_4593_4545)">
<path d="M46.4841 13.9909C46.6334 11.7868 48.5412 10.121 50.7453 10.2703L297.129 26.9566C301.537 27.2551 304.868 31.0707 304.57 35.4788L280.897 385.031C280.598 389.439 276.782 392.77 272.374 392.472L25.9908 375.785C23.7867 375.636 22.121 373.728 22.2702 371.524L46.4841 13.9909Z" fill="#0C1063"/>
</g>
<g filter="url(#filter1_d_4593_4545)">
<g clip-path="url(#clip0_4593_4545)">
<path d="M20 23C20 20.7909 21.7909 19 24 19H265C269.418 19 273 22.5817 273 27V369C273 373.418 269.418 377 265 377H24C21.7909 377 20 375.209 20 373V23Z" fill="url(#paint0_radial_4593_4545)"/>
<path opacity="0.29" fill-rule="evenodd" clip-rule="evenodd" d="M216.373 98.243C161.702 59.3654 85.8565 72.1569 46.9682 126.814C8.08 181.47 20.875 257.295 75.5467 296.173C130.218 335.051 206.064 322.259 244.952 267.602C283.84 212.945 271.045 137.121 216.373 98.243ZM46.596 126.549C85.6305 71.6866 161.761 58.847 216.638 97.8709C271.515 136.895 284.359 213.005 245.324 267.867C206.29 322.729 130.159 335.569 75.2819 296.545C20.4046 257.521 7.56152 181.411 46.596 126.549Z" fill="url(#paint1_linear_4593_4545)"/>
<path opacity="0.29" fill-rule="evenodd" clip-rule="evenodd" d="M241.815 62.4856C167.389 9.56081 64.1399 26.9741 11.2007 101.379L-7.28122 88.2366C52.9185 3.62684 170.328 -16.1747 254.961 44.0087C339.594 104.192 359.401 221.57 299.201 306.18L280.719 293.037C333.658 218.632 316.24 115.41 241.815 62.4856Z" fill="url(#paint2_linear_4593_4545)"/>
<path d="M38.466 226.022C40.3282 219.219 36.2597 212.44 29.3786 210.882C22.4975 209.323 15.4097 213.575 13.5474 220.378C11.6852 227.182 15.7537 233.96 22.6348 235.519C29.5159 237.078 36.6037 232.826 38.466 226.022Z" fill="#FFA000"/>
<path d="M256.154 127.317C256.874 120.3 251.748 114.281 244.704 113.872C237.661 113.464 231.367 118.821 230.647 125.838C229.927 132.854 235.053 138.874 242.096 139.282C249.14 139.691 255.434 134.334 256.154 127.317Z" fill="#4AB7F3"/>
<path d="M246.99 117.439C247.71 110.422 242.584 104.403 235.54 103.994C228.497 103.586 222.203 108.943 221.483 115.96C220.762 122.976 225.889 128.996 232.932 129.404C239.976 129.813 246.27 124.456 246.99 117.439Z" fill="#FFA000"/>
<path opacity="0.5" fill-rule="evenodd" clip-rule="evenodd" d="M99.0186 322.091C75.087 311.685 53.6408 295.182 37.3377 273.83L55.6944 260.923C69.5176 279.027 87.6773 292.986 107.884 301.773L99.0186 322.091Z" fill="url(#paint3_linear_4593_4545)"/>
<path d="M51.8983 279.561C58.3239 277.111 61.2597 269.877 58.4554 263.404C55.6511 256.932 48.1688 253.672 41.7431 256.122C35.3174 258.573 32.3817 265.807 35.186 272.279C37.9902 278.752 45.4726 282.012 51.8983 279.561Z" fill="#4AB7F3"/>
<path d="M105.688 321.65C112.28 319.136 115.35 311.851 112.546 305.378C109.742 298.906 102.125 295.697 95.5324 298.211C88.9404 300.725 85.8697 308.01 88.674 314.483C91.4783 320.955 99.0955 324.164 105.688 321.65Z" fill="#FFA000"/>
<path fill-rule="evenodd" clip-rule="evenodd" d="M246.907 114.194C247.071 115.238 247.104 116.326 246.99 117.439C246.27 124.456 239.976 129.813 232.932 129.404C232.174 129.36 231.438 129.251 230.73 129.083C230.565 128.039 230.533 126.951 230.647 125.838C231.367 118.821 237.661 113.464 244.704 113.873C245.462 113.917 246.198 114.026 246.907 114.194Z" fill="#078A3C"/>
<path d="M49.0723 191.453H54.6945V189.008H51.8693V181.617H49.0723V191.453Z" fill="white"/>
<path d="M61.5294 189.57L62.1198 191.453H64.9309L61.5294 181.617H58.5778L55.1763 191.453H57.9874L58.5778 189.57H61.5294ZM60.8688 187.336H59.2384L60.0536 184.511L60.8688 187.336Z" fill="white"/>
<path d="M65.8044 191.453H68.5452V185.959L71.7921 191.453H74.5751V181.617H71.8202V187.195L68.6577 181.617H65.8044V191.453Z" fill="white"/>
<path d="M76.2088 191.453H79.4135C82.6041 191.453 84.6703 189.57 84.6703 186.535C84.6703 183.458 82.576 181.617 79.4135 181.617H76.2088V191.453ZM79.0059 189.092V183.977H79.3573C80.7909 183.977 81.7608 184.807 81.7608 186.535C81.7608 188.235 80.7909 189.092 79.3573 189.092H79.0059Z" fill="white"/>
<path d="M90.596 191.636C92.9995 191.636 94.2223 190.835 95.2765 190.104V185.776H91.1301V188.067H92.7184V188.615C92.5076 188.783 91.9313 189.078 90.8349 189.078C89.2888 189.078 88.2487 187.982 88.2487 186.521C88.2487 185.088 89.2467 183.991 90.7366 183.991C91.9594 183.991 92.5778 184.596 92.9433 185.017L94.7143 183.219C94.1802 182.572 92.8871 181.434 90.596 181.434C87.4054 181.434 85.3252 183.696 85.3252 186.521C85.3252 189.373 87.4054 191.636 90.596 191.636Z" fill="white"/>
<path d="M96.5921 191.453H99.3892V187.982H99.8952L101.554 191.453H104.632L102.383 187.322C103.226 186.788 103.676 185.776 103.676 184.722C103.676 182.797 102.51 181.617 100.064 181.617H96.5921V191.453ZM99.3892 185.706V183.963H99.853C100.486 183.963 100.823 184.273 100.823 184.821C100.823 185.326 100.486 185.706 99.853 185.706H99.3892Z" fill="white"/>
<path d="M105.473 191.453H108.27V181.617H105.473V191.453Z" fill="white"/>
<path d="M109.906 191.453H112.704V187.87H115.023V185.439H112.704V184.062H115.374V181.617H109.906V191.453Z" fill="white"/>
<path d="M116.687 191.453H119.484V187.87H121.803V185.439H119.484V184.062H122.155V181.617H116.687V191.453Z" fill="white"/>
<path d="M128.289 191.636C131.536 191.636 133.602 189.401 133.602 186.521C133.602 183.682 131.536 181.434 128.289 181.434C125.042 181.434 122.976 183.682 122.976 186.521C122.976 189.401 125.042 191.636 128.289 191.636ZM128.289 183.991C129.723 183.991 130.678 185.088 130.678 186.521C130.678 187.996 129.723 189.078 128.289 189.078C126.855 189.078 125.899 187.996 125.899 186.521C125.899 185.088 126.855 183.991 128.289 183.991Z" fill="white"/>
<path d="M134.737 191.453H137.478V185.959L140.725 191.453H143.508V181.617H140.753V187.195L137.59 181.617H134.737V191.453Z" fill="white"/>
<path d="M151.596 181.617H147.955V191.453H150.64V185.467L152.523 190.68H155.067L156.965 185.467V191.453H159.635V181.617H156.009L153.788 187.462L151.596 181.617Z" fill="white"/>
<path d="M161.27 191.453H166.892V189.008H164.067V187.701H166.358V185.27H164.067V184.062H166.779V181.617H161.27V191.453Z" fill="white"/>
<path d="M169.718 191.453H172.515V184.062H174.553V181.617H167.708V184.062H169.718V191.453Z" fill="white"/>
<path d="M175.6 191.453H178.397V187.771H181.517V191.453H184.314V181.617H181.517V185.312H178.397V181.617H175.6V191.453Z" fill="white"/>
<path d="M190.77 191.636C194.017 191.636 196.083 189.401 196.083 186.521C196.083 183.682 194.017 181.434 190.77 181.434C187.523 181.434 185.457 183.682 185.457 186.521C185.457 189.401 187.523 191.636 190.77 191.636ZM190.77 183.991C192.204 183.991 193.16 185.088 193.16 186.521C193.16 187.996 192.204 189.078 190.77 189.078C189.337 189.078 188.381 187.996 188.381 186.521C188.381 185.088 189.337 183.991 190.77 183.991Z" fill="white"/>
<path d="M197.218 191.453H200.423C203.614 191.453 205.68 189.57 205.68 186.535C205.68 183.458 203.586 181.617 200.423 181.617H197.218V191.453ZM200.015 189.092V183.977H200.367C201.8 183.977 202.77 184.807 202.77 186.535C202.77 188.235 201.8 189.092 200.367 189.092H200.015Z" fill="white"/>
<path d="M211.648 191.636C214.895 191.636 216.961 189.401 216.961 186.521C216.961 183.682 214.895 181.434 211.648 181.434C208.401 181.434 206.335 183.682 206.335 186.521C206.335 189.401 208.401 191.636 211.648 191.636ZM211.648 183.991C213.081 183.991 214.037 185.088 214.037 186.521C214.037 187.996 213.081 189.078 211.648 189.078C210.214 189.078 209.258 187.996 209.258 186.521C209.258 185.088 210.214 183.991 211.648 183.991Z" fill="white"/>
<path d="M218.096 191.453H223.718V189.008H220.893V181.617H218.096V191.453Z" fill="white"/>
<path d="M229.231 191.636C232.478 191.636 234.544 189.401 234.544 186.521C234.544 183.682 232.478 181.434 229.231 181.434C225.984 181.434 223.918 183.682 223.918 186.521C223.918 189.401 225.984 191.636 229.231 191.636ZM229.231 183.991C230.665 183.991 231.62 185.088 231.62 186.521C231.62 187.996 230.665 189.078 229.231 189.078C227.797 189.078 226.841 187.996 226.841 186.521C226.841 185.088 227.797 183.991 229.231 183.991Z" fill="white"/>
<path d="M240.458 191.636C242.861 191.636 244.084 190.835 245.138 190.104V185.776H240.992V188.067H242.58V188.615C242.369 188.783 241.793 189.078 240.697 189.078C239.151 189.078 238.111 187.982 238.111 186.521C238.111 185.088 239.109 183.991 240.598 183.991C241.821 183.991 242.44 184.596 242.805 185.017L244.576 183.219C244.042 182.572 242.749 181.434 240.458 181.434C237.267 181.434 235.187 183.696 235.187 186.521C235.187 189.373 237.267 191.636 240.458 191.636Z" fill="white"/>
<path d="M248.773 191.453H251.556V187.055L254.606 181.617H251.528L250.165 184.582L248.857 181.617H245.723L248.773 187.055V191.453Z" fill="white"/>
<path d="M253.924 190.09C253.924 190.933 254.599 191.636 255.512 191.636C256.426 191.636 257.101 190.933 257.101 190.09C257.101 189.219 256.426 188.516 255.512 188.516C254.599 188.516 253.924 189.219 253.924 190.09Z" fill="white"/>
<path d="M72.7742 208.379L74.4417 203.761H75.1956L76.8599 208.379H76.1699L75.7354 207.169H73.9114L73.4674 208.379H72.7742ZM74.0743 206.549H75.5597L74.8218 204.432L74.0743 206.549Z" fill="white"/>
<path d="M78.8961 209.471C78.3595 209.471 77.9442 209.396 77.6503 209.244C77.3564 209.095 77.2095 208.887 77.2095 208.618C77.2095 208.501 77.2371 208.402 77.2925 208.321C77.35 208.238 77.4171 208.17 77.4938 208.117C77.5726 208.064 77.645 208.022 77.711 207.993C77.777 207.961 77.8196 207.938 77.8388 207.925C77.8026 207.904 77.7557 207.878 77.6982 207.846C77.6428 207.812 77.5928 207.767 77.5481 207.711C77.5033 207.654 77.481 207.579 77.481 207.488C77.481 207.381 77.531 207.284 77.6311 207.194C77.7333 207.103 77.8856 207.036 78.0879 206.993C77.8877 206.895 77.7323 206.763 77.6215 206.597C77.5129 206.431 77.4586 206.254 77.4586 206.067C77.4586 205.852 77.5193 205.667 77.6407 205.511C77.7621 205.354 77.9325 205.233 78.1518 205.15C78.3733 205.067 78.6331 205.026 78.9313 205.026C79.1485 205.026 79.3306 205.05 79.4775 205.099C79.6245 205.148 79.7597 205.216 79.8832 205.304C79.9237 205.289 79.9812 205.266 80.0557 205.236C80.1302 205.205 80.2122 205.17 80.3017 205.134C80.3933 205.098 80.4795 205.063 80.5604 205.029C80.6435 204.995 80.7106 204.967 80.7617 204.946L80.7585 205.54L80.1835 205.645C80.2133 205.709 80.2367 205.779 80.2538 205.856C80.2729 205.933 80.2825 206.003 80.2825 206.067C80.2825 206.258 80.2303 206.435 80.126 206.597C80.0216 206.757 79.8651 206.884 79.6564 206.98C79.4477 207.076 79.1868 207.124 78.8738 207.124C78.8439 207.124 78.8056 207.124 78.7588 207.124C78.7119 207.122 78.6725 207.119 78.6406 207.114C78.4425 207.121 78.3062 207.144 78.2317 207.185C78.1571 207.223 78.1199 207.265 78.1199 207.312C78.1199 207.372 78.1678 207.412 78.2636 207.434C78.3595 207.455 78.517 207.473 78.7364 207.488C78.8152 207.494 78.9153 207.501 79.0367 207.507C79.1602 207.513 79.2965 207.522 79.4456 207.533C79.8076 207.554 80.0834 207.644 80.2729 207.804C80.4646 207.964 80.5604 208.176 80.5604 208.44C80.5604 208.742 80.4231 208.989 80.1483 209.181C79.8736 209.374 79.4562 209.471 78.8961 209.471ZM79.0143 209.053C79.3061 209.053 79.5254 209.01 79.6724 208.925C79.8214 208.842 79.896 208.717 79.896 208.551C79.896 208.428 79.8481 208.327 79.7522 208.248C79.6564 208.169 79.5137 208.123 79.3242 208.111L78.4425 208.053C78.3552 208.049 78.2679 208.068 78.1806 208.111C78.0954 208.153 78.024 208.213 77.9665 208.29C77.9112 208.364 77.8835 208.447 77.8835 208.539C77.8835 208.705 77.9751 208.831 78.1582 208.919C78.3435 209.008 78.6289 209.053 79.0143 209.053ZM78.8929 206.706C79.1144 206.706 79.2922 206.652 79.4264 206.546C79.5627 206.437 79.6308 206.282 79.6308 206.08C79.6308 205.871 79.5627 205.71 79.4264 205.597C79.2922 205.482 79.1144 205.425 78.8929 205.425C78.6693 205.425 78.4883 205.482 78.3499 205.597C78.2136 205.712 78.1454 205.873 78.1454 206.08C78.1454 206.275 78.2104 206.429 78.3403 206.539C78.4723 206.65 78.6565 206.706 78.8929 206.706Z" fill="white"/>
<path d="M81.4456 208.379V205.077H82.1005V205.754C82.1558 205.592 82.2325 205.457 82.3305 205.348C82.4305 205.238 82.5466 205.155 82.6786 205.099C82.8107 205.042 82.9502 205.013 83.0971 205.013C83.1418 205.013 83.1844 205.016 83.2249 205.023C83.2654 205.027 83.2973 205.035 83.3207 205.048V205.706C83.293 205.693 83.2568 205.685 83.2121 205.68C83.1695 205.676 83.1323 205.673 83.1003 205.671C82.9555 205.66 82.8235 205.668 82.7042 205.693C82.5849 205.719 82.4817 205.761 82.3943 205.821C82.3092 205.881 82.2431 205.958 82.1963 206.054C82.1516 206.15 82.1292 206.263 82.1292 206.393V208.379H81.4456Z" fill="white"/>
<path d="M84.6757 205.077V208.379H84.0176V205.077H84.6757ZM84.6884 203.764V204.438H84.0016V203.764H84.6884Z" fill="white"/>
<path d="M87.0019 205.013C87.2489 205.013 87.4683 205.062 87.6599 205.16C87.8537 205.256 88.0103 205.39 88.1295 205.562C88.2488 205.735 88.3212 205.936 88.3467 206.166H87.7558C87.7366 206.057 87.6951 205.956 87.6312 205.862C87.5694 205.769 87.4853 205.694 87.3788 205.639C87.2745 205.581 87.1499 205.553 87.0051 205.553C86.741 205.553 86.5259 205.65 86.3598 205.843C86.1937 206.037 86.1106 206.334 86.1106 206.734C86.1106 207.1 86.1873 207.392 86.3406 207.609C86.4961 207.826 86.7218 207.935 87.0178 207.935C87.1605 207.935 87.2841 207.905 87.3884 207.846C87.4949 207.786 87.579 207.709 87.6408 207.616C87.7025 207.522 87.7419 207.425 87.759 207.325H88.3403C88.3169 207.546 88.2445 207.741 88.1231 207.91C88.0039 208.078 87.8473 208.209 87.6535 208.302C87.4619 208.396 87.2447 208.443 87.0019 208.443C86.7016 208.443 86.4354 208.378 86.2033 208.248C85.9711 208.116 85.7891 207.923 85.657 207.67C85.5271 207.414 85.4622 207.105 85.4622 206.741C85.4622 206.398 85.5228 206.097 85.6442 205.837C85.7656 205.577 85.9413 205.375 86.1713 205.23C86.4035 205.085 86.6803 205.013 87.0019 205.013Z" fill="white"/>
<path d="M90.265 208.443C90.0989 208.441 89.9402 208.416 89.789 208.369C89.6378 208.323 89.5026 208.252 89.3833 208.159C89.2662 208.065 89.1725 207.949 89.1022 207.811C89.0341 207.672 89 207.511 89 207.328V205.077H89.6868V207.255C89.6868 207.453 89.7486 207.614 89.8721 207.737C89.9956 207.861 90.1819 207.922 90.4311 207.922C90.6569 207.922 90.8379 207.864 90.9742 207.747C91.1105 207.627 91.1786 207.454 91.1786 207.226V205.077H91.859V208.379H91.3288L91.2521 207.74C91.2138 207.913 91.1445 208.051 91.0444 208.155C90.9465 208.258 90.8294 208.332 90.6931 208.379C90.5589 208.424 90.4162 208.445 90.265 208.443Z" fill="white"/>
<path d="M93.6703 208.424C93.4744 208.424 93.3168 208.398 93.1975 208.347C93.0804 208.296 92.991 208.228 92.9292 208.143C92.8675 208.055 92.8259 207.957 92.8046 207.849C92.7855 207.738 92.7759 207.624 92.7759 207.507V203.633H93.4499V207.437C93.4499 207.59 93.4797 207.707 93.5394 207.788C93.6011 207.869 93.6948 207.915 93.8205 207.925L93.993 207.932V208.366C93.9397 208.383 93.8844 208.397 93.8269 208.408C93.7715 208.418 93.7193 208.424 93.6703 208.424Z" fill="white"/>
<path d="M96.312 205.569H95.5709L95.5741 207.539C95.5741 207.648 95.5848 207.727 95.6061 207.779C95.6295 207.828 95.6678 207.859 95.7211 207.874C95.7764 207.887 95.851 207.894 95.9447 207.894H96.3312V208.337C96.2886 208.354 96.2247 208.369 96.1395 208.382C96.0565 208.395 95.9489 208.401 95.8169 208.401C95.572 208.401 95.3814 208.368 95.2451 208.302C95.1109 208.236 95.0172 208.142 94.964 208.018C94.9129 207.892 94.8873 207.741 94.8873 207.565V205.569H94.3506V205.077H94.9065L95.0758 204.106H95.5709V205.074H96.312V205.569Z" fill="white"/>
<path d="M98.301 208.443C98.1349 208.441 97.9763 208.416 97.8251 208.369C97.6739 208.323 97.5386 208.252 97.4194 208.159C97.3022 208.065 97.2085 207.949 97.1382 207.811C97.0701 207.672 97.036 207.511 97.036 207.328V205.077H97.7228V207.255C97.7228 207.453 97.7846 207.614 97.9081 207.737C98.0316 207.861 98.218 207.922 98.4671 207.922C98.6929 207.922 98.8739 207.864 99.0102 207.747C99.1465 207.627 99.2146 207.454 99.2146 207.226V205.077H99.8951V208.379H99.3648L99.2881 207.74C99.2498 207.913 99.1806 208.051 99.0805 208.155C98.9825 208.258 98.8654 208.332 98.7291 208.379C98.5949 208.424 98.4522 208.445 98.301 208.443Z" fill="white"/>
<path d="M100.812 208.379V205.077H101.467V205.754C101.522 205.592 101.599 205.457 101.697 205.348C101.797 205.238 101.913 205.155 102.045 205.099C102.177 205.042 102.316 205.013 102.463 205.013C102.508 205.013 102.551 205.016 102.591 205.023C102.632 205.027 102.664 205.035 102.687 205.048V205.706C102.659 205.693 102.623 205.685 102.578 205.68C102.536 205.676 102.499 205.673 102.467 205.671C102.322 205.66 102.19 205.668 102.071 205.693C101.951 205.719 101.848 205.761 101.761 205.821C101.675 205.881 101.609 205.958 101.563 206.054C101.518 206.15 101.496 206.263 101.496 206.393V208.379H100.812Z" fill="white"/>
<path d="M104.178 208.443C103.965 208.443 103.775 208.405 103.609 208.328C103.445 208.251 103.316 208.141 103.223 207.996C103.129 207.851 103.082 207.676 103.082 207.472C103.082 207.106 103.212 206.832 103.472 206.651C103.732 206.47 104.146 206.374 104.714 206.364L105.258 206.348V206.108C105.258 205.919 105.201 205.77 105.088 205.661C104.975 205.553 104.802 205.499 104.568 205.502C104.391 205.502 104.233 205.542 104.095 205.623C103.958 205.704 103.869 205.837 103.826 206.022H103.232C103.245 205.803 103.308 205.619 103.421 205.47C103.536 205.318 103.693 205.205 103.893 205.128C104.094 205.051 104.329 205.013 104.599 205.013C104.9 205.013 105.147 205.054 105.341 205.137C105.534 205.218 105.678 205.338 105.772 205.495C105.868 205.653 105.916 205.844 105.916 206.07V208.379H105.337L105.283 207.772C105.16 208.026 105.003 208.201 104.813 208.299C104.626 208.395 104.414 208.443 104.178 208.443ZM104.392 207.967C104.496 207.967 104.599 207.949 104.702 207.913C104.804 207.874 104.897 207.823 104.98 207.759C105.063 207.693 105.129 207.62 105.178 207.539C105.229 207.458 105.255 207.375 105.258 207.29V206.744L104.81 206.753C104.582 206.756 104.389 206.779 104.229 206.824C104.071 206.868 103.95 206.938 103.865 207.031C103.782 207.125 103.74 207.249 103.74 207.405C103.74 207.582 103.802 207.72 103.925 207.82C104.049 207.918 104.204 207.967 104.392 207.967Z" fill="white"/>
<path d="M107.771 208.424C107.575 208.424 107.417 208.398 107.298 208.347C107.181 208.296 107.091 208.228 107.03 208.143C106.968 208.055 106.926 207.957 106.905 207.849C106.886 207.738 106.876 207.624 106.876 207.507V203.633H107.55V207.437C107.55 207.59 107.58 207.707 107.64 207.788C107.702 207.869 107.795 207.915 107.921 207.925L108.093 207.932V208.366C108.04 208.383 107.985 208.397 107.927 208.408C107.872 208.418 107.82 208.424 107.771 208.424Z" fill="white"/>
<path d="M111.475 208.443C111.245 208.443 111.029 208.407 110.826 208.334C110.626 208.262 110.458 208.148 110.322 207.993C110.188 207.837 110.103 207.638 110.069 207.395H110.679C110.707 207.521 110.759 207.625 110.836 207.708C110.915 207.789 111.009 207.85 111.117 207.89C111.228 207.929 111.346 207.948 111.472 207.948C111.68 207.948 111.849 207.911 111.976 207.836C112.106 207.759 112.171 207.642 112.171 207.485C112.171 207.372 112.136 207.281 112.066 207.213C111.998 207.145 111.889 207.095 111.74 207.063L111.082 206.907C110.809 206.843 110.591 206.742 110.427 206.603C110.263 206.463 110.18 206.267 110.178 206.016C110.178 205.822 110.226 205.65 110.322 205.498C110.42 205.347 110.564 205.229 110.756 205.144C110.948 205.057 111.186 205.013 111.472 205.013C111.844 205.013 112.144 205.096 112.369 205.262C112.595 205.428 112.712 205.669 112.721 205.984H112.13C112.108 205.833 112.039 205.714 111.922 205.629C111.807 205.542 111.655 205.498 111.465 205.498C111.269 205.498 111.109 205.538 110.983 205.617C110.857 205.693 110.794 205.811 110.794 205.971C110.794 206.08 110.84 206.166 110.932 206.23C111.023 206.291 111.161 206.343 111.344 206.383L111.97 206.539C112.132 206.582 112.265 206.638 112.369 206.709C112.474 206.777 112.556 206.852 112.615 206.935C112.675 207.018 112.716 207.105 112.74 207.194C112.765 207.284 112.778 207.368 112.778 207.446C112.778 207.655 112.725 207.834 112.619 207.983C112.514 208.13 112.364 208.244 112.168 208.325C111.974 208.403 111.743 208.443 111.475 208.443Z" fill="white"/>
<path d="M114.766 208.443C114.6 208.441 114.441 208.416 114.29 208.369C114.139 208.323 114.004 208.252 113.884 208.159C113.767 208.065 113.674 207.949 113.603 207.811C113.535 207.672 113.501 207.511 113.501 207.328V205.077H114.188V207.255C114.188 207.453 114.25 207.614 114.373 207.737C114.497 207.861 114.683 207.922 114.932 207.922C115.158 207.922 115.339 207.864 115.475 207.747C115.612 207.627 115.68 207.454 115.68 207.226V205.077H116.36V208.379H115.83L115.753 207.74C115.715 207.913 115.646 208.051 115.546 208.155C115.448 208.258 115.33 208.332 115.194 208.379C115.06 208.424 114.917 208.445 114.766 208.443Z" fill="white"/>
<path d="M117.277 209.407V205.077H117.961L117.967 205.626C118.007 205.554 118.06 205.482 118.124 205.412C118.187 205.34 118.263 205.274 118.35 205.214C118.44 205.152 118.541 205.103 118.654 205.067C118.769 205.031 118.896 205.013 119.034 205.013C119.294 205.013 119.523 205.074 119.721 205.195C119.921 205.314 120.076 205.498 120.187 205.747C120.3 205.994 120.356 206.308 120.356 206.69C120.356 207.073 120.3 207.394 120.187 207.654C120.076 207.914 119.918 208.111 119.711 208.245C119.505 208.377 119.26 208.443 118.976 208.443C118.84 208.443 118.718 208.424 118.609 208.385C118.5 208.347 118.405 208.297 118.322 208.235C118.239 208.171 118.167 208.103 118.108 208.031C118.05 207.956 118.002 207.883 117.964 207.811V209.407H117.277ZM118.833 207.922C119.086 207.922 119.294 207.824 119.456 207.628C119.62 207.43 119.702 207.122 119.702 206.702C119.702 206.343 119.626 206.058 119.475 205.85C119.326 205.639 119.112 205.533 118.833 205.533C118.545 205.533 118.328 205.643 118.181 205.862C118.034 206.08 117.961 206.36 117.961 206.702C117.961 206.926 117.993 207.13 118.056 207.315C118.122 207.499 118.22 207.645 118.35 207.756C118.48 207.867 118.641 207.922 118.833 207.922Z" fill="white"/>
<path d="M121.089 209.407V205.077H121.773L121.779 205.626C121.82 205.554 121.872 205.482 121.936 205.412C122 205.34 122.075 205.274 122.162 205.214C122.252 205.152 122.353 205.103 122.466 205.067C122.581 205.031 122.708 205.013 122.846 205.013C123.106 205.013 123.335 205.074 123.533 205.195C123.733 205.314 123.889 205.498 123.999 205.747C124.112 205.994 124.169 206.308 124.169 206.69C124.169 207.073 124.112 207.394 123.999 207.654C123.889 207.914 123.73 208.111 123.523 208.245C123.317 208.377 123.072 208.443 122.789 208.443C122.652 208.443 122.53 208.424 122.421 208.385C122.313 208.347 122.217 208.297 122.134 208.235C122.051 208.171 121.979 208.103 121.92 208.031C121.862 207.956 121.814 207.883 121.776 207.811V209.407H121.089ZM122.645 207.922C122.898 207.922 123.106 207.824 123.268 207.628C123.432 207.43 123.514 207.122 123.514 206.702C123.514 206.343 123.438 206.058 123.287 205.85C123.138 205.639 122.924 205.533 122.645 205.533C122.357 205.533 122.14 205.643 121.993 205.862C121.846 206.08 121.773 206.36 121.773 206.702C121.773 206.926 121.805 207.13 121.869 207.315C121.935 207.499 122.033 207.645 122.162 207.756C122.292 207.867 122.453 207.922 122.645 207.922Z" fill="white"/>
<path d="M125.796 208.424C125.6 208.424 125.442 208.398 125.323 208.347C125.206 208.296 125.116 208.228 125.055 208.143C124.993 208.055 124.951 207.957 124.93 207.849C124.911 207.738 124.901 207.624 124.901 207.507V203.633H125.575V207.437C125.575 207.59 125.605 207.707 125.665 207.788C125.726 207.869 125.82 207.915 125.946 207.925L126.118 207.932V208.366C126.065 208.383 126.01 208.397 125.952 208.408C125.897 208.418 125.845 208.424 125.796 208.424Z" fill="white"/>
<path d="M127.088 209.433C126.885 209.433 126.745 209.418 126.666 209.388C126.589 209.358 126.551 209.343 126.551 209.343V208.903L126.886 208.909C127.014 208.915 127.118 208.908 127.199 208.887C127.282 208.865 127.347 208.836 127.394 208.797C127.443 208.761 127.48 208.722 127.506 208.679C127.532 208.637 127.551 208.597 127.564 208.561L127.666 208.283L126.378 205.077H127.062L127.988 207.517L128.908 205.077H129.579L128.202 208.564C128.109 208.794 128.005 208.972 127.893 209.098C127.782 209.223 127.659 209.31 127.525 209.359C127.391 209.408 127.245 209.433 127.088 209.433Z" fill="white"/>
<path d="M132.86 205.013C133.107 205.013 133.326 205.062 133.518 205.16C133.711 205.256 133.868 205.39 133.987 205.562C134.107 205.735 134.179 205.936 134.204 206.166H133.614C133.594 206.057 133.553 205.956 133.489 205.862C133.427 205.769 133.343 205.694 133.237 205.639C133.132 205.581 133.008 205.553 132.863 205.553C132.599 205.553 132.384 205.65 132.218 205.843C132.051 206.037 131.968 206.334 131.968 206.734C131.968 207.1 132.045 207.392 132.198 207.609C132.354 207.826 132.58 207.935 132.876 207.935C133.018 207.935 133.142 207.905 133.246 207.846C133.353 207.786 133.437 207.709 133.499 207.616C133.56 207.522 133.6 207.425 133.617 207.325H134.198C134.175 207.546 134.102 207.741 133.981 207.91C133.862 208.078 133.705 208.209 133.511 208.302C133.32 208.396 133.102 208.443 132.86 208.443C132.559 208.443 132.293 208.378 132.061 208.248C131.829 208.116 131.647 207.923 131.515 207.67C131.385 207.414 131.32 207.105 131.32 206.741C131.32 206.398 131.381 206.097 131.502 205.837C131.623 205.577 131.799 205.375 132.029 205.23C132.261 205.085 132.538 205.013 132.86 205.013Z" fill="white"/>
<path d="M134.959 208.379V203.633H135.633V205.559C135.686 205.472 135.757 205.389 135.847 205.31C135.938 205.231 136.049 205.167 136.179 205.118C136.311 205.067 136.464 205.042 136.639 205.042C136.854 205.042 137.048 205.082 137.22 205.163C137.395 205.242 137.533 205.357 137.636 205.508C137.74 205.657 137.792 205.835 137.792 206.041V208.379H137.109V206.166C137.109 205.981 137.045 205.838 136.917 205.738C136.789 205.638 136.625 205.588 136.425 205.588C136.291 205.588 136.163 205.611 136.042 205.658C135.922 205.703 135.826 205.771 135.751 205.862C135.679 205.952 135.642 206.065 135.642 206.201V208.379H134.959Z" fill="white"/>
<path d="M139.585 208.443C139.372 208.443 139.182 208.405 139.016 208.328C138.852 208.251 138.724 208.141 138.63 207.996C138.536 207.851 138.489 207.676 138.489 207.472C138.489 207.106 138.619 206.832 138.879 206.651C139.139 206.47 139.553 206.374 140.122 206.364L140.665 206.348V206.108C140.665 205.919 140.608 205.77 140.495 205.661C140.383 205.553 140.209 205.499 139.975 205.502C139.798 205.502 139.64 205.542 139.502 205.623C139.366 205.704 139.276 205.837 139.234 206.022H138.639C138.652 205.803 138.715 205.619 138.828 205.47C138.943 205.318 139.1 205.205 139.301 205.128C139.501 205.051 139.736 205.013 140.007 205.013C140.307 205.013 140.554 205.054 140.748 205.137C140.942 205.218 141.085 205.338 141.179 205.495C141.275 205.653 141.323 205.844 141.323 206.07V208.379H140.745L140.69 207.772C140.567 208.026 140.41 208.201 140.221 208.299C140.033 208.395 139.821 208.443 139.585 208.443ZM139.799 207.967C139.903 207.967 140.007 207.949 140.109 207.913C140.211 207.874 140.304 207.823 140.387 207.759C140.47 207.693 140.536 207.62 140.585 207.539C140.636 207.458 140.663 207.375 140.665 207.29V206.744L140.217 206.753C139.99 206.756 139.796 206.779 139.636 206.824C139.478 206.868 139.357 206.938 139.272 207.031C139.189 207.125 139.147 207.249 139.147 207.405C139.147 207.582 139.209 207.72 139.333 207.82C139.456 207.918 139.612 207.967 139.799 207.967Z" fill="white"/>
<path d="M143.005 205.077V208.379H142.347V205.077H143.005ZM143.018 203.764V204.438H142.331V203.764H143.018Z" fill="white"/>
<path d="M144.024 208.379V205.077H144.692V205.553C144.745 205.463 144.816 205.379 144.906 205.3C144.997 205.222 145.109 205.158 145.241 205.109C145.376 205.06 145.53 205.035 145.705 205.035C145.911 205.035 146.102 205.077 146.276 205.16C146.453 205.241 146.595 205.368 146.701 205.543C146.808 205.716 146.861 205.939 146.861 206.214V208.379H146.177V206.287C146.177 206.051 146.113 205.875 145.986 205.76C145.86 205.645 145.697 205.588 145.497 205.588C145.363 205.588 145.235 205.61 145.114 205.655C144.992 205.7 144.894 205.768 144.82 205.859C144.745 205.949 144.708 206.061 144.708 206.198V208.379H144.024Z" fill="white"/>
<path d="M149.9 205.077V208.379H149.242V205.077H149.9ZM149.913 203.764V204.438H149.226V203.764H149.913Z" fill="white"/>
<path d="M150.919 208.379V205.077H151.583V205.553C151.677 205.408 151.804 205.282 151.966 205.176C152.128 205.067 152.337 205.013 152.592 205.013C152.712 205.013 152.832 205.033 152.953 205.074C153.077 205.114 153.19 205.175 153.292 205.256C153.396 205.334 153.478 205.432 153.538 205.549C153.642 205.392 153.782 205.263 153.956 205.163C154.131 205.063 154.327 205.013 154.544 205.013C154.661 205.013 154.783 205.032 154.908 205.07C155.034 205.107 155.15 205.169 155.257 205.259C155.365 205.346 155.452 205.467 155.519 205.623C155.587 205.778 155.621 205.975 155.621 206.214V208.379H154.934V206.287C154.934 206.106 154.903 205.965 154.841 205.862C154.782 205.76 154.703 205.689 154.605 205.648C154.509 205.606 154.407 205.585 154.298 205.585C154.2 205.585 154.098 205.604 153.992 205.642C153.885 205.68 153.795 205.744 153.72 205.834C153.646 205.923 153.608 206.044 153.608 206.198V208.379H152.925V206.14C152.925 206.019 152.892 205.917 152.826 205.834C152.762 205.751 152.681 205.689 152.583 205.648C152.487 205.606 152.391 205.585 152.295 205.585C152.189 205.585 152.082 205.606 151.976 205.648C151.869 205.691 151.78 205.758 151.708 205.85C151.637 205.939 151.602 206.055 151.602 206.198V208.379H150.919Z" fill="white"/>
<path d="M156.496 209.407V205.077H157.18L157.186 205.626C157.227 205.554 157.279 205.482 157.343 205.412C157.407 205.34 157.482 205.274 157.57 205.214C157.659 205.152 157.76 205.103 157.873 205.067C157.988 205.031 158.115 205.013 158.253 205.013C158.513 205.013 158.742 205.074 158.94 205.195C159.14 205.314 159.296 205.498 159.406 205.747C159.519 205.994 159.576 206.308 159.576 206.69C159.576 207.073 159.519 207.394 159.406 207.654C159.296 207.914 159.137 208.111 158.93 208.245C158.724 208.377 158.479 208.443 158.196 208.443C158.059 208.443 157.937 208.424 157.828 208.385C157.72 208.347 157.624 208.297 157.541 208.235C157.458 208.171 157.386 208.103 157.327 208.031C157.269 207.956 157.221 207.883 157.183 207.811V209.407H156.496ZM158.052 207.922C158.305 207.922 158.513 207.824 158.675 207.628C158.839 207.43 158.921 207.122 158.921 206.702C158.921 206.343 158.845 206.058 158.694 205.85C158.545 205.639 158.331 205.533 158.052 205.533C157.765 205.533 157.547 205.643 157.4 205.862C157.253 206.08 157.18 206.36 157.18 206.702C157.18 206.926 157.212 207.13 157.276 207.315C157.342 207.499 157.44 207.645 157.57 207.756C157.7 207.867 157.86 207.922 158.052 207.922Z" fill="white"/>
<path d="M161.197 208.443C160.984 208.443 160.795 208.405 160.629 208.328C160.465 208.251 160.336 208.141 160.242 207.996C160.149 207.851 160.102 207.676 160.102 207.472C160.102 207.106 160.232 206.832 160.491 206.651C160.751 206.47 161.165 206.374 161.734 206.364L162.277 206.348V206.108C162.277 205.919 162.221 205.77 162.108 205.661C161.995 205.553 161.821 205.499 161.587 205.502C161.41 205.502 161.253 205.542 161.114 205.623C160.978 205.704 160.889 205.837 160.846 206.022H160.252C160.265 205.803 160.327 205.619 160.44 205.47C160.555 205.318 160.713 205.205 160.913 205.128C161.113 205.051 161.349 205.013 161.619 205.013C161.919 205.013 162.166 205.054 162.36 205.137C162.554 205.218 162.698 205.338 162.791 205.495C162.887 205.653 162.935 205.844 162.935 206.07V208.379H162.357L162.303 207.772C162.179 208.026 162.023 208.201 161.833 208.299C161.646 208.395 161.434 208.443 161.197 208.443ZM161.411 207.967C161.516 207.967 161.619 207.949 161.721 207.913C161.824 207.874 161.916 207.823 161.999 207.759C162.082 207.693 162.148 207.62 162.197 207.539C162.248 207.458 162.275 207.375 162.277 207.29V206.744L161.83 206.753C161.602 206.756 161.408 206.779 161.249 206.824C161.091 206.868 160.97 206.938 160.884 207.031C160.801 207.125 160.76 207.249 160.76 207.405C160.76 207.582 160.822 207.72 160.945 207.82C161.069 207.918 161.224 207.967 161.411 207.967Z" fill="white"/>
<path d="M165.241 205.013C165.488 205.013 165.707 205.062 165.899 205.16C166.093 205.256 166.249 205.39 166.368 205.562C166.488 205.735 166.56 205.936 166.586 206.166H165.995C165.976 206.057 165.934 205.956 165.87 205.862C165.808 205.769 165.724 205.694 165.618 205.639C165.513 205.581 165.389 205.553 165.244 205.553C164.98 205.553 164.765 205.65 164.599 205.843C164.433 206.037 164.35 206.334 164.35 206.734C164.35 207.1 164.426 207.392 164.58 207.609C164.735 207.826 164.961 207.935 165.257 207.935C165.399 207.935 165.523 207.905 165.627 207.846C165.734 207.786 165.818 207.709 165.88 207.616C165.941 207.522 165.981 207.425 165.998 207.325H166.579C166.556 207.546 166.483 207.741 166.362 207.91C166.243 208.078 166.086 208.209 165.892 208.302C165.701 208.396 165.484 208.443 165.241 208.443C164.941 208.443 164.674 208.378 164.442 208.248C164.21 208.116 164.028 207.923 163.896 207.67C163.766 207.414 163.701 207.105 163.701 206.741C163.701 206.398 163.762 206.097 163.883 205.837C164.005 205.577 164.18 205.375 164.41 205.23C164.642 205.085 164.919 205.013 165.241 205.013Z" fill="white"/>
<path d="M169.004 205.569H168.263L168.266 207.539C168.266 207.648 168.277 207.727 168.298 207.779C168.322 207.828 168.36 207.859 168.413 207.874C168.469 207.887 168.543 207.894 168.637 207.894H169.024V208.337C168.981 208.354 168.917 208.369 168.832 208.382C168.749 208.395 168.641 208.401 168.509 208.401C168.264 208.401 168.074 208.368 167.937 208.302C167.803 208.236 167.71 208.142 167.656 208.018C167.605 207.892 167.58 207.741 167.58 207.565V205.569H167.043V205.077H167.599L167.768 204.106H168.263V205.074H169.004V205.569Z" fill="white"/>
<path d="M172.178 208.443C171.965 208.443 171.776 208.405 171.61 208.328C171.446 208.251 171.317 208.141 171.223 207.996C171.129 207.851 171.083 207.676 171.083 207.472C171.083 207.106 171.213 206.832 171.472 206.651C171.732 206.47 172.146 206.374 172.715 206.364L173.258 206.348V206.108C173.258 205.919 173.202 205.77 173.089 205.661C172.976 205.553 172.802 205.499 172.568 205.502C172.391 205.502 172.234 205.542 172.095 205.623C171.959 205.704 171.869 205.837 171.827 206.022H171.233C171.246 205.803 171.308 205.619 171.421 205.47C171.536 205.318 171.694 205.205 171.894 205.128C172.094 205.051 172.33 205.013 172.6 205.013C172.9 205.013 173.147 205.054 173.341 205.137C173.535 205.218 173.679 205.338 173.772 205.495C173.868 205.653 173.916 205.844 173.916 206.07V208.379H173.338L173.284 207.772C173.16 208.026 173.004 208.201 172.814 208.299C172.627 208.395 172.415 208.443 172.178 208.443ZM172.392 207.967C172.497 207.967 172.6 207.949 172.702 207.913C172.804 207.874 172.897 207.823 172.98 207.759C173.063 207.693 173.129 207.62 173.178 207.539C173.229 207.458 173.256 207.375 173.258 207.29V206.744L172.811 206.753C172.583 206.756 172.389 206.779 172.229 206.824C172.072 206.868 171.95 206.938 171.865 207.031C171.782 207.125 171.741 207.249 171.741 207.405C171.741 207.582 171.802 207.72 171.926 207.82C172.049 207.918 172.205 207.967 172.392 207.967Z" fill="white"/>
<path d="M174.877 208.379V205.077H175.544V205.553C175.598 205.463 175.669 205.379 175.759 205.3C175.85 205.222 175.962 205.158 176.094 205.109C176.228 205.06 176.382 205.035 176.557 205.035C176.764 205.035 176.954 205.077 177.129 205.16C177.306 205.241 177.447 205.368 177.554 205.543C177.66 205.716 177.714 205.939 177.714 206.214V208.379H177.03V206.287C177.03 206.051 176.966 205.875 176.838 205.76C176.713 205.645 176.55 205.588 176.349 205.588C176.215 205.588 176.088 205.61 175.966 205.655C175.845 205.7 175.747 205.768 175.672 205.859C175.598 205.949 175.56 206.061 175.56 206.198V208.379H174.877Z" fill="white"/>
<path d="M179.793 208.443C179.359 208.443 179.017 208.295 178.768 207.999C178.519 207.701 178.394 207.272 178.394 206.712C178.394 206.369 178.444 206.071 178.544 205.818C178.645 205.562 178.794 205.364 178.992 205.224C179.192 205.083 179.439 205.013 179.733 205.013C179.882 205.013 180.014 205.031 180.129 205.067C180.246 205.103 180.348 205.15 180.436 205.208C180.525 205.265 180.598 205.327 180.656 205.393C180.716 205.459 180.761 205.521 180.793 205.578V203.633H181.48V208.379H180.969L180.892 207.702C180.869 207.774 180.833 207.853 180.784 207.938C180.735 208.023 180.668 208.104 180.582 208.181C180.499 208.258 180.393 208.32 180.263 208.369C180.133 208.418 179.977 208.443 179.793 208.443ZM179.924 207.929C180.231 207.929 180.453 207.833 180.589 207.641C180.725 207.447 180.793 207.13 180.793 206.69C180.791 206.44 180.76 206.23 180.701 206.057C180.641 205.885 180.548 205.755 180.423 205.668C180.299 205.578 180.136 205.533 179.934 205.533C179.681 205.533 179.474 205.625 179.314 205.808C179.155 205.989 179.075 206.283 179.075 206.69C179.075 207.09 179.147 207.396 179.292 207.609C179.439 207.822 179.65 207.929 179.924 207.929Z" fill="white"/>
<path d="M183.849 208.379V205.077H184.504V205.754C184.559 205.592 184.636 205.457 184.734 205.348C184.834 205.238 184.95 205.155 185.082 205.099C185.214 205.042 185.353 205.013 185.5 205.013C185.545 205.013 185.588 205.016 185.628 205.023C185.669 205.027 185.7 205.035 185.724 205.048V205.706C185.696 205.693 185.66 205.685 185.615 205.68C185.573 205.676 185.535 205.673 185.503 205.671C185.359 205.66 185.227 205.668 185.107 205.693C184.988 205.719 184.885 205.761 184.798 205.821C184.712 205.881 184.646 205.958 184.599 206.054C184.555 206.15 184.532 206.263 184.532 206.393V208.379H183.849Z" fill="white"/>
<path d="M187.079 205.077V208.379H186.421V205.077H187.079ZM187.092 203.764V204.438H186.405V203.764H187.092Z" fill="white"/>
<path d="M189.271 208.443C189.041 208.443 188.825 208.407 188.622 208.334C188.422 208.262 188.254 208.148 188.118 207.993C187.984 207.837 187.899 207.638 187.865 207.395H188.475C188.503 207.521 188.555 207.625 188.632 207.708C188.711 207.789 188.804 207.85 188.913 207.89C189.024 207.929 189.142 207.948 189.268 207.948C189.476 207.948 189.645 207.911 189.772 207.836C189.902 207.759 189.967 207.642 189.967 207.485C189.967 207.372 189.932 207.281 189.862 207.213C189.794 207.145 189.685 207.095 189.536 207.063L188.878 206.907C188.605 206.843 188.387 206.742 188.223 206.603C188.059 206.463 187.976 206.267 187.974 206.016C187.974 205.822 188.022 205.65 188.118 205.498C188.216 205.347 188.36 205.229 188.552 205.144C188.744 205.057 188.982 205.013 189.268 205.013C189.64 205.013 189.94 205.096 190.165 205.262C190.391 205.428 190.508 205.669 190.517 205.984H189.926C189.904 205.833 189.835 205.714 189.718 205.629C189.603 205.542 189.451 205.498 189.261 205.498C189.065 205.498 188.905 205.538 188.779 205.617C188.653 205.693 188.59 205.811 188.59 205.971C188.59 206.08 188.636 206.166 188.728 206.23C188.819 206.291 188.957 206.343 189.14 206.383L189.766 206.539C189.928 206.582 190.061 206.638 190.165 206.709C190.27 206.777 190.352 206.852 190.411 206.935C190.471 207.018 190.512 207.105 190.536 207.194C190.561 207.284 190.574 207.368 190.574 207.446C190.574 207.655 190.521 207.834 190.414 207.983C190.31 208.13 190.16 208.244 189.964 208.325C189.77 208.403 189.539 208.443 189.271 208.443Z" fill="white"/>
<path d="M194.329 208.379H193.619L192.626 206.785L192.032 207.402V208.379H191.348V203.633H192.032V206.651L193.492 205.077H194.258L193.064 206.351L194.329 208.379Z" fill="white"/>
<path d="M197.347 208.443C197.134 208.443 196.945 208.405 196.778 208.328C196.614 208.251 196.486 208.141 196.392 207.996C196.298 207.851 196.251 207.676 196.251 207.472C196.251 207.106 196.381 206.832 196.641 206.651C196.901 206.47 197.315 206.374 197.884 206.364L198.427 206.348V206.108C198.427 205.919 198.37 205.77 198.257 205.661C198.145 205.553 197.971 205.499 197.737 205.502C197.56 205.502 197.402 205.542 197.264 205.623C197.128 205.704 197.038 205.837 196.996 206.022H196.401C196.414 205.803 196.477 205.619 196.59 205.47C196.705 205.318 196.863 205.205 197.063 205.128C197.263 205.051 197.498 205.013 197.769 205.013C198.069 205.013 198.316 205.054 198.51 205.137C198.704 205.218 198.847 205.338 198.941 205.495C199.037 205.653 199.085 205.844 199.085 206.07V208.379H198.507L198.452 207.772C198.329 208.026 198.172 208.201 197.983 208.299C197.795 208.395 197.583 208.443 197.347 208.443ZM197.561 207.967C197.665 207.967 197.769 207.949 197.871 207.913C197.973 207.874 198.066 207.823 198.149 207.759C198.232 207.693 198.298 207.62 198.347 207.539C198.398 207.458 198.425 207.375 198.427 207.29V206.744L197.98 206.753C197.752 206.756 197.558 206.779 197.398 206.824C197.241 206.868 197.119 206.938 197.034 207.031C196.951 207.125 196.909 207.249 196.909 207.405C196.909 207.582 196.971 207.72 197.095 207.82C197.218 207.918 197.374 207.967 197.561 207.967Z" fill="white"/>
<path d="M201.206 208.443C200.976 208.443 200.76 208.407 200.558 208.334C200.358 208.262 200.189 208.148 200.053 207.993C199.919 207.837 199.835 207.638 199.801 207.395H200.411C200.439 207.521 200.491 207.625 200.567 207.708C200.646 207.789 200.74 207.85 200.849 207.89C200.959 207.929 201.078 207.948 201.203 207.948C201.412 207.948 201.58 207.911 201.708 207.836C201.838 207.759 201.903 207.642 201.903 207.485C201.903 207.372 201.868 207.281 201.797 207.213C201.729 207.145 201.621 207.095 201.471 207.063L200.813 206.907C200.541 206.843 200.323 206.742 200.159 206.603C199.995 206.463 199.912 206.267 199.909 206.016C199.909 205.822 199.957 205.65 200.053 205.498C200.151 205.347 200.296 205.229 200.488 205.144C200.679 205.057 200.918 205.013 201.203 205.013C201.576 205.013 201.875 205.096 202.101 205.262C202.327 205.428 202.444 205.669 202.452 205.984H201.861C201.84 205.833 201.771 205.714 201.654 205.629C201.539 205.542 201.386 205.498 201.197 205.498C201.001 205.498 200.84 205.538 200.714 205.617C200.589 205.693 200.526 205.811 200.526 205.971C200.526 206.08 200.572 206.166 200.663 206.23C200.755 206.291 200.892 206.343 201.075 206.383L201.702 206.539C201.863 206.582 201.996 206.638 202.101 206.709C202.205 206.777 202.287 206.852 202.347 206.935C202.406 207.018 202.448 207.105 202.471 207.194C202.497 207.284 202.51 207.368 202.51 207.446C202.51 207.655 202.456 207.834 202.35 207.983C202.246 208.13 202.095 208.244 201.9 208.325C201.706 208.403 201.475 208.443 201.206 208.443Z" fill="white"/>
<path d="M204.444 208.443C204.214 208.443 203.998 208.407 203.796 208.334C203.596 208.262 203.428 208.148 203.291 207.993C203.157 207.837 203.073 207.638 203.039 207.395H203.649C203.677 207.521 203.729 207.625 203.806 207.708C203.884 207.789 203.978 207.85 204.087 207.89C204.197 207.929 204.316 207.948 204.441 207.948C204.65 207.948 204.818 207.911 204.946 207.836C205.076 207.759 205.141 207.642 205.141 207.485C205.141 207.372 205.106 207.281 205.035 207.213C204.967 207.145 204.859 207.095 204.71 207.063L204.052 206.907C203.779 206.843 203.561 206.742 203.397 206.603C203.233 206.463 203.15 206.267 203.148 206.016C203.148 205.822 203.195 205.65 203.291 205.498C203.389 205.347 203.534 205.229 203.726 205.144C203.917 205.057 204.156 205.013 204.441 205.013C204.814 205.013 205.113 205.096 205.339 205.262C205.565 205.428 205.682 205.669 205.69 205.984H205.099C205.078 205.833 205.009 205.714 204.892 205.629C204.777 205.542 204.624 205.498 204.435 205.498C204.239 205.498 204.078 205.538 203.953 205.617C203.827 205.693 203.764 205.811 203.764 205.971C203.764 206.08 203.81 206.166 203.901 206.23C203.993 206.291 204.13 206.343 204.314 206.383L204.94 206.539C205.101 206.582 205.235 206.638 205.339 206.709C205.443 206.777 205.525 206.852 205.585 206.935C205.645 207.018 205.686 207.105 205.709 207.194C205.735 207.284 205.748 207.368 205.748 207.446C205.748 207.655 205.695 207.834 205.588 207.983C205.484 208.13 205.334 208.244 205.138 208.325C204.944 208.403 204.713 208.443 204.444 208.443Z" fill="white"/>
<path d="M207.039 206.888C207.039 207.086 207.071 207.263 207.135 207.421C207.201 207.576 207.3 207.7 207.432 207.791C207.564 207.881 207.728 207.925 207.924 207.925C208.12 207.925 208.289 207.881 208.432 207.791C208.577 207.702 208.672 207.569 208.716 207.392H209.349C209.311 207.618 209.22 207.809 209.077 207.967C208.937 208.125 208.766 208.244 208.566 208.325C208.366 208.403 208.156 208.443 207.937 208.443C207.624 208.443 207.348 208.376 207.11 208.242C206.871 208.105 206.685 207.912 206.551 207.66C206.419 207.409 206.353 207.11 206.353 206.763C206.353 206.42 206.413 206.118 206.535 205.856C206.656 205.592 206.832 205.386 207.062 205.236C207.292 205.087 207.569 205.013 207.892 205.013C208.212 205.013 208.48 205.081 208.697 205.217C208.917 205.354 209.083 205.545 209.196 205.792C209.308 206.037 209.365 206.327 209.365 206.661V206.888H207.039ZM207.039 206.444H208.713C208.713 206.271 208.683 206.115 208.624 205.974C208.564 205.832 208.473 205.72 208.349 205.639C208.228 205.556 208.074 205.514 207.889 205.514C207.7 205.514 207.542 205.56 207.416 205.652C207.291 205.743 207.196 205.86 207.132 206.003C207.07 206.146 207.039 206.292 207.039 206.444Z" fill="white"/>
<path d="M211.32 208.443C211.09 208.443 210.874 208.407 210.672 208.334C210.471 208.262 210.303 208.148 210.167 207.993C210.033 207.837 209.949 207.638 209.914 207.395H210.525C210.552 207.521 210.604 207.625 210.681 207.708C210.76 207.789 210.854 207.85 210.962 207.89C211.073 207.929 211.191 207.948 211.317 207.948C211.526 207.948 211.694 207.911 211.822 207.836C211.951 207.759 212.016 207.642 212.016 207.485C212.016 207.372 211.981 207.281 211.911 207.213C211.843 207.145 211.734 207.095 211.585 207.063L210.927 206.907C210.655 206.843 210.436 206.742 210.272 206.603C210.108 206.463 210.025 206.267 210.023 206.016C210.023 205.822 210.071 205.65 210.167 205.498C210.265 205.347 210.41 205.229 210.601 205.144C210.793 205.057 211.031 205.013 211.317 205.013C211.69 205.013 211.989 205.096 212.214 205.262C212.44 205.428 212.557 205.669 212.566 205.984H211.975C211.954 205.833 211.884 205.714 211.767 205.629C211.652 205.542 211.5 205.498 211.31 205.498C211.115 205.498 210.954 205.538 210.828 205.617C210.702 205.693 210.64 205.811 210.64 205.971C210.64 206.08 210.685 206.166 210.777 206.23C210.869 206.291 211.006 206.343 211.189 206.383L211.815 206.539C211.977 206.582 212.11 206.638 212.214 206.709C212.319 206.777 212.401 206.852 212.46 206.935C212.52 207.018 212.562 207.105 212.585 207.194C212.611 207.284 212.623 207.368 212.623 207.446C212.623 207.655 212.57 207.834 212.464 207.983C212.359 208.13 212.209 208.244 212.013 208.325C211.819 208.403 211.588 208.443 211.32 208.443Z" fill="white"/>
<path d="M214.558 208.443C214.328 208.443 214.112 208.407 213.91 208.334C213.709 208.262 213.541 208.148 213.405 207.993C213.271 207.837 213.187 207.638 213.153 207.395H213.763C213.79 207.521 213.843 207.625 213.919 207.708C213.998 207.789 214.092 207.85 214.2 207.89C214.311 207.929 214.429 207.948 214.555 207.948C214.764 207.948 214.932 207.911 215.06 207.836C215.19 207.759 215.255 207.642 215.255 207.485C215.255 207.372 215.219 207.281 215.149 207.213C215.081 207.145 214.972 207.095 214.823 207.063L214.165 206.907C213.893 206.843 213.674 206.742 213.51 206.603C213.346 206.463 213.263 206.267 213.261 206.016C213.261 205.822 213.309 205.65 213.405 205.498C213.503 205.347 213.648 205.229 213.839 205.144C214.031 205.057 214.27 205.013 214.555 205.013C214.928 205.013 215.227 205.096 215.453 205.262C215.678 205.428 215.795 205.669 215.804 205.984H215.213C215.192 205.833 215.122 205.714 215.005 205.629C214.89 205.542 214.738 205.498 214.549 205.498C214.353 205.498 214.192 205.538 214.066 205.617C213.941 205.693 213.878 205.811 213.878 205.971C213.878 206.08 213.924 206.166 214.015 206.23C214.107 206.291 214.244 206.343 214.427 206.383L215.053 206.539C215.215 206.582 215.348 206.638 215.453 206.709C215.557 206.777 215.639 206.852 215.699 206.935C215.758 207.018 215.8 207.105 215.823 207.194C215.849 207.284 215.861 207.368 215.861 207.446C215.861 207.655 215.808 207.834 215.702 207.983C215.597 208.13 215.447 208.244 215.251 208.325C215.058 208.403 214.826 208.443 214.558 208.443Z" fill="white"/>
<path d="M216.635 208.379V205.077H217.3V205.553C217.394 205.408 217.521 205.282 217.683 205.176C217.845 205.067 218.054 205.013 218.309 205.013C218.429 205.013 218.549 205.033 218.67 205.074C218.794 205.114 218.907 205.175 219.009 205.256C219.113 205.334 219.195 205.432 219.255 205.549C219.359 205.392 219.499 205.263 219.673 205.163C219.848 205.063 220.044 205.013 220.261 205.013C220.378 205.013 220.5 205.032 220.625 205.07C220.751 205.107 220.867 205.169 220.974 205.259C221.082 205.346 221.169 205.467 221.235 205.623C221.304 205.778 221.338 205.975 221.338 206.214V208.379H220.651V206.287C220.651 206.106 220.62 205.965 220.558 205.862C220.499 205.76 220.42 205.689 220.322 205.648C220.226 205.606 220.124 205.585 220.015 205.585C219.917 205.585 219.815 205.604 219.709 205.642C219.602 205.68 219.512 205.744 219.437 205.834C219.362 205.923 219.325 206.044 219.325 206.198V208.379H218.642V206.14C218.642 206.019 218.609 205.917 218.543 205.834C218.479 205.751 218.398 205.689 218.3 205.648C218.204 205.606 218.108 205.585 218.012 205.585C217.906 205.585 217.799 205.606 217.693 205.648C217.586 205.691 217.497 205.758 217.425 205.85C217.354 205.939 217.319 206.055 217.319 206.198V208.379H216.635Z" fill="white"/>
<path d="M222.731 206.888C222.731 207.086 222.763 207.263 222.827 207.421C222.893 207.576 222.992 207.7 223.124 207.791C223.256 207.881 223.42 207.925 223.616 207.925C223.812 207.925 223.981 207.881 224.124 207.791C224.268 207.702 224.363 207.569 224.408 207.392H225.04C225.002 207.618 224.912 207.809 224.769 207.967C224.628 208.125 224.458 208.244 224.258 208.325C224.058 208.403 223.848 208.443 223.628 208.443C223.315 208.443 223.04 208.376 222.801 208.242C222.563 208.105 222.376 207.912 222.242 207.66C222.11 207.409 222.044 207.11 222.044 206.763C222.044 206.42 222.105 206.118 222.226 205.856C222.347 205.592 222.523 205.386 222.753 205.236C222.983 205.087 223.26 205.013 223.584 205.013C223.903 205.013 224.171 205.081 224.389 205.217C224.608 205.354 224.774 205.545 224.887 205.792C225 206.037 225.056 206.327 225.056 206.661V206.888H222.731ZM222.731 206.444H224.405C224.405 206.271 224.375 206.115 224.315 205.974C224.256 205.832 224.164 205.72 224.04 205.639C223.919 205.556 223.766 205.514 223.581 205.514C223.391 205.514 223.233 205.56 223.108 205.652C222.982 205.743 222.887 205.86 222.823 206.003C222.762 206.146 222.731 206.292 222.731 206.444Z" fill="white"/>
<path d="M225.82 208.379V205.077H226.487V205.553C226.54 205.463 226.612 205.379 226.701 205.3C226.793 205.222 226.905 205.158 227.037 205.109C227.171 205.06 227.325 205.035 227.5 205.035C227.706 205.035 227.897 205.077 228.072 205.16C228.248 205.241 228.39 205.368 228.496 205.543C228.603 205.716 228.656 205.939 228.656 206.214V208.379H227.973V206.287C227.973 206.051 227.909 205.875 227.781 205.76C227.655 205.645 227.492 205.588 227.292 205.588C227.158 205.588 227.03 205.61 226.909 205.655C226.787 205.7 226.689 205.768 226.615 205.859C226.54 205.949 226.503 206.061 226.503 206.198V208.379H225.82Z" fill="white"/>
<path d="M231.146 205.569H230.405L230.408 207.539C230.408 207.648 230.419 207.727 230.44 207.779C230.464 207.828 230.502 207.859 230.555 207.874C230.611 207.887 230.685 207.894 230.779 207.894H231.165V208.337C231.123 208.354 231.059 208.369 230.974 208.382C230.891 208.395 230.783 208.401 230.651 208.401C230.406 208.401 230.216 208.368 230.079 208.302C229.945 208.236 229.851 208.142 229.798 208.018C229.747 207.892 229.722 207.741 229.722 207.565V205.569H229.185V205.077H229.741L229.91 204.106H230.405V205.074H231.146V205.569Z" fill="white"/>
<path d="M231.831 208.379V207.555H232.62V208.379H231.831Z" fill="white"/>
<path d="M131.134 216.839V216.216H134.683V216.839H133.287V220.834H132.597V216.839H131.134Z" fill="#4AB7F3"/>
<path d="M135.349 219.343C135.349 219.541 135.381 219.718 135.445 219.876C135.511 220.031 135.61 220.155 135.742 220.246C135.874 220.336 136.038 220.381 136.234 220.381C136.43 220.381 136.599 220.336 136.742 220.246C136.887 220.157 136.981 220.024 137.026 219.847H137.659C137.62 220.073 137.53 220.265 137.387 220.422C137.247 220.58 137.076 220.699 136.876 220.78C136.676 220.859 136.466 220.898 136.247 220.898C135.934 220.898 135.658 220.831 135.419 220.697C135.181 220.56 134.994 220.367 134.86 220.115C134.728 219.864 134.662 219.565 134.662 219.218C134.662 218.875 134.723 218.573 134.844 218.311C134.966 218.047 135.141 217.841 135.371 217.692C135.601 217.543 135.878 217.468 136.202 217.468C136.521 217.468 136.79 217.536 137.007 217.672C137.226 217.809 137.392 218 137.505 218.247C137.618 218.492 137.675 218.782 137.675 219.116V219.343H135.349ZM135.349 218.899H137.023C137.023 218.726 136.993 218.57 136.934 218.429C136.874 218.287 136.782 218.175 136.659 218.094C136.537 218.011 136.384 217.969 136.199 217.969C136.009 217.969 135.852 218.015 135.726 218.107C135.6 218.198 135.506 218.315 135.442 218.458C135.38 218.601 135.349 218.748 135.349 218.899Z" fill="#4AB7F3"/>
<path d="M139.783 217.468C140.03 217.468 140.249 217.517 140.441 217.615C140.635 217.711 140.791 217.845 140.91 218.017C141.03 218.19 141.102 218.391 141.128 218.621H140.537C140.517 218.512 140.476 218.411 140.412 218.317C140.35 218.224 140.266 218.149 140.16 218.094C140.055 218.036 139.931 218.008 139.786 218.008C139.522 218.008 139.307 218.105 139.141 218.298C138.974 218.492 138.891 218.789 138.891 219.189C138.891 219.556 138.968 219.847 139.121 220.064C139.277 220.282 139.503 220.39 139.799 220.39C139.941 220.39 140.065 220.36 140.169 220.301C140.276 220.241 140.36 220.164 140.422 220.071C140.483 219.977 140.523 219.88 140.54 219.78H141.121C141.098 220.002 141.025 220.196 140.904 220.365C140.785 220.533 140.628 220.664 140.434 220.757C140.243 220.851 140.025 220.898 139.783 220.898C139.482 220.898 139.216 220.833 138.984 220.703C138.752 220.571 138.57 220.378 138.438 220.125C138.308 219.87 138.243 219.56 138.243 219.196C138.243 218.853 138.304 218.552 138.425 218.292C138.546 218.032 138.722 217.83 138.952 217.685C139.184 217.54 139.461 217.468 139.783 217.468Z" fill="#4AB7F3"/>
<path d="M141.882 220.834V216.088H142.556V218.014C142.609 217.927 142.68 217.844 142.77 217.765C142.861 217.686 142.972 217.622 143.102 217.573C143.234 217.522 143.387 217.497 143.562 217.497C143.777 217.497 143.971 217.537 144.143 217.618C144.318 217.697 144.457 217.812 144.559 217.963C144.663 218.112 144.715 218.29 144.715 218.496V220.834H144.032V218.621C144.032 218.436 143.968 218.293 143.84 218.193C143.712 218.093 143.548 218.043 143.348 218.043C143.214 218.043 143.086 218.066 142.965 218.113C142.845 218.158 142.749 218.226 142.674 218.317C142.602 218.407 142.565 218.52 142.565 218.656V220.834H141.882Z" fill="#4AB7F3"/>
<path d="M145.594 220.834V217.532H146.262V218.008C146.315 217.918 146.386 217.834 146.476 217.755C146.567 217.677 146.679 217.613 146.811 217.564C146.945 217.515 147.1 217.49 147.274 217.49C147.481 217.49 147.672 217.532 147.846 217.615C148.023 217.696 148.165 217.824 148.271 217.998C148.378 218.171 148.431 218.394 148.431 218.669V220.834H147.747V218.742C147.747 218.506 147.683 218.33 147.555 218.215C147.43 218.1 147.267 218.043 147.067 218.043C146.933 218.043 146.805 218.065 146.683 218.11C146.562 218.155 146.464 218.223 146.39 218.314C146.315 218.404 146.278 218.517 146.278 218.653V220.834H145.594Z" fill="#4AB7F3"/>
<path d="M150.028 217.532V220.834H149.37V217.532H150.028ZM150.041 216.219V216.893H149.354V216.219H150.041Z" fill="#4AB7F3"/>
<path d="M152.355 217.468C152.602 217.468 152.821 217.517 153.013 217.615C153.206 217.711 153.363 217.845 153.482 218.017C153.601 218.19 153.674 218.391 153.699 218.621H153.108C153.089 218.512 153.048 218.411 152.984 218.317C152.922 218.224 152.838 218.149 152.731 218.094C152.627 218.036 152.503 218.008 152.358 218.008C152.094 218.008 151.879 218.105 151.712 218.298C151.546 218.492 151.463 218.789 151.463 219.189C151.463 219.556 151.54 219.847 151.693 220.064C151.849 220.282 152.074 220.39 152.371 220.39C152.513 220.39 152.637 220.36 152.741 220.301C152.848 220.241 152.932 220.164 152.993 220.071C153.055 219.977 153.095 219.88 153.112 219.78H153.693C153.67 220.002 153.597 220.196 153.476 220.365C153.357 220.533 153.2 220.664 153.006 220.757C152.815 220.851 152.597 220.898 152.355 220.898C152.054 220.898 151.788 220.833 151.556 220.703C151.324 220.571 151.142 220.378 151.01 220.125C150.88 219.87 150.815 219.56 150.815 219.196C150.815 218.853 150.876 218.552 150.997 218.292C151.118 218.032 151.294 217.83 151.524 217.685C151.756 217.54 152.033 217.468 152.355 217.468Z" fill="#4AB7F3"/>
<path d="M155.343 220.898C155.13 220.898 154.94 220.86 154.774 220.783C154.61 220.706 154.481 220.596 154.388 220.451C154.294 220.306 154.247 220.131 154.247 219.927C154.247 219.561 154.377 219.287 154.637 219.106C154.896 218.925 155.311 218.83 155.879 218.819L156.422 218.803V218.563C156.422 218.374 156.366 218.225 156.253 218.116C156.14 218.008 155.967 217.954 155.732 217.957C155.556 217.957 155.398 217.997 155.26 218.078C155.123 218.159 155.034 218.292 154.991 218.477H154.397C154.41 218.258 154.473 218.074 154.586 217.925C154.701 217.774 154.858 217.66 155.058 217.583C155.259 217.506 155.494 217.468 155.764 217.468C156.065 217.468 156.312 217.51 156.505 217.593C156.699 217.673 156.843 217.793 156.937 217.95C157.033 218.108 157.08 218.299 157.08 218.525V220.834H156.502L156.448 220.227C156.324 220.481 156.168 220.656 155.978 220.754C155.791 220.85 155.579 220.898 155.343 220.898ZM155.557 220.422C155.661 220.422 155.764 220.404 155.867 220.368C155.969 220.329 156.061 220.278 156.144 220.214C156.228 220.148 156.294 220.075 156.343 219.994C156.394 219.913 156.42 219.83 156.422 219.745V219.199L155.975 219.209C155.747 219.211 155.553 219.234 155.394 219.279C155.236 219.323 155.115 219.393 155.03 219.486C154.947 219.58 154.905 219.705 154.905 219.86C154.905 220.037 154.967 220.175 155.09 220.275C155.214 220.373 155.369 220.422 155.557 220.422Z" fill="#4AB7F3"/>
<path d="M158.936 220.879C158.74 220.879 158.582 220.853 158.463 220.802C158.346 220.751 158.256 220.683 158.195 220.598C158.133 220.51 158.091 220.412 158.07 220.304C158.051 220.193 158.041 220.079 158.041 219.962V216.088H158.715V219.892C158.715 220.045 158.745 220.162 158.805 220.243C158.866 220.324 158.96 220.37 159.086 220.381L159.258 220.387V220.821C159.205 220.838 159.15 220.852 159.092 220.863C159.037 220.873 158.985 220.879 158.936 220.879Z" fill="#4AB7F3"/>
<path d="M161.429 220.834V217.532H162.097V218.008C162.15 217.918 162.221 217.834 162.311 217.755C162.402 217.677 162.514 217.613 162.646 217.564C162.78 217.515 162.935 217.49 163.109 217.49C163.316 217.49 163.507 217.532 163.681 217.615C163.858 217.696 164 217.824 164.106 217.998C164.212 218.171 164.266 218.394 164.266 218.669V220.834H163.582V218.742C163.582 218.506 163.518 218.33 163.39 218.215C163.265 218.1 163.102 218.043 162.902 218.043C162.768 218.043 162.64 218.065 162.518 218.11C162.397 218.155 162.299 218.223 162.224 218.314C162.15 218.404 162.113 218.517 162.113 218.653V220.834H161.429Z" fill="#4AB7F3"/>
<path d="M166.483 220.898C166.174 220.898 165.904 220.832 165.672 220.7C165.442 220.566 165.263 220.372 165.135 220.119C165.009 219.865 164.946 219.559 164.946 219.199C164.946 218.852 165.006 218.548 165.125 218.289C165.247 218.029 165.422 217.828 165.652 217.685C165.882 217.54 166.16 217.468 166.486 217.468C166.797 217.468 167.067 217.536 167.294 217.672C167.522 217.807 167.699 218.003 167.825 218.263C167.95 218.521 168.013 218.833 168.013 219.199C168.013 219.533 167.954 219.828 167.834 220.084C167.717 220.339 167.545 220.539 167.317 220.684C167.091 220.827 166.813 220.898 166.483 220.898ZM166.486 220.371C166.674 220.371 166.83 220.322 166.956 220.224C167.084 220.124 167.179 219.985 167.243 219.806C167.307 219.625 167.339 219.416 167.339 219.18C167.339 218.96 167.31 218.761 167.253 218.583C167.198 218.402 167.107 218.258 166.981 218.151C166.856 218.045 166.691 217.992 166.486 217.992C166.295 217.992 166.135 218.041 166.007 218.139C165.879 218.234 165.782 218.372 165.716 218.551C165.652 218.727 165.621 218.937 165.621 219.18C165.621 219.395 165.649 219.593 165.707 219.774C165.764 219.955 165.857 220.1 165.985 220.208C166.112 220.317 166.28 220.371 166.486 220.371Z" fill="#4AB7F3"/>
<path d="M170.412 218.024H169.671L169.674 219.994C169.674 220.103 169.685 220.183 169.706 220.234C169.729 220.283 169.768 220.315 169.821 220.329C169.876 220.342 169.951 220.349 170.045 220.349H170.431V220.793C170.389 220.81 170.325 220.824 170.239 220.837C170.156 220.85 170.049 220.856 169.917 220.856C169.672 220.856 169.481 220.823 169.345 220.757C169.211 220.691 169.117 220.597 169.064 220.473C169.013 220.348 168.987 220.196 168.987 220.02V218.024H168.451V217.532H169.006L169.176 216.561H169.671V217.529H170.412V218.024Z" fill="#4AB7F3"/>
<path d="M171.648 219.343C171.648 219.541 171.68 219.718 171.744 219.876C171.81 220.031 171.909 220.155 172.041 220.246C172.173 220.336 172.337 220.381 172.533 220.381C172.729 220.381 172.899 220.336 173.041 220.246C173.186 220.157 173.281 220.024 173.326 219.847H173.958C173.92 220.073 173.829 220.265 173.686 220.422C173.546 220.58 173.376 220.699 173.175 220.78C172.975 220.859 172.765 220.898 172.546 220.898C172.233 220.898 171.957 220.831 171.719 220.697C171.48 220.56 171.294 220.367 171.16 220.115C171.028 219.864 170.962 219.565 170.962 219.218C170.962 218.875 171.022 218.573 171.144 218.311C171.265 218.047 171.441 217.841 171.671 217.692C171.901 217.543 172.178 217.468 172.501 217.468C172.821 217.468 173.089 217.536 173.306 217.672C173.526 217.809 173.692 218 173.805 218.247C173.918 218.492 173.974 218.782 173.974 219.116V219.343H171.648ZM171.648 218.899H173.322C173.322 218.726 173.293 218.57 173.233 218.429C173.173 218.287 173.082 218.175 172.958 218.094C172.837 218.011 172.683 217.969 172.498 217.969C172.309 217.969 172.151 218.015 172.025 218.107C171.9 218.198 171.805 218.315 171.741 218.458C171.679 218.601 171.648 218.748 171.648 218.899Z" fill="#4AB7F3"/>
<path d="M117.257 158.639H118.281V163.35H121.165V164.228H117.257V158.639Z" fill="white"/>
<path d="M126.771 162.935H124.013L123.47 164.228H122.414L124.896 158.639H125.904L128.394 164.228H127.323L126.771 162.935ZM126.432 162.12L125.392 159.677L124.36 162.12H126.432Z" fill="white"/>
<path d="M135.179 158.639V164.228H134.335L131.294 160.444V164.228H130.278V158.639H131.121L134.162 162.424V158.639H135.179Z" fill="white"/>
<path d="M137.838 158.639H140.249C140.838 158.639 141.36 158.757 141.817 158.991C142.274 159.22 142.629 159.547 142.881 159.973C143.133 160.393 143.259 160.88 143.259 161.434C143.259 161.987 143.133 162.477 142.881 162.903C142.629 163.323 142.274 163.651 141.817 163.885C141.36 164.114 140.838 164.228 140.249 164.228H137.838V158.639ZM140.202 163.35C140.607 163.35 140.961 163.273 141.266 163.118C141.576 162.959 141.812 162.735 141.975 162.448C142.143 162.155 142.227 161.817 142.227 161.434C142.227 161.051 142.143 160.715 141.975 160.428C141.812 160.135 141.576 159.912 141.266 159.757C140.961 159.597 140.607 159.518 140.202 159.518H138.863V163.35H140.202Z" fill="white"/>
<path d="M149.296 161.37H150.265V163.597C149.982 163.826 149.651 164.002 149.273 164.124C148.894 164.247 148.506 164.308 148.106 164.308C147.544 164.308 147.037 164.186 146.586 163.941C146.134 163.691 145.779 163.347 145.522 162.911C145.265 162.474 145.136 161.982 145.136 161.434C145.136 160.886 145.265 160.393 145.522 159.957C145.779 159.52 146.134 159.18 146.586 158.935C147.043 158.685 147.555 158.56 148.122 158.56C148.584 158.56 149.005 158.637 149.383 158.791C149.761 158.945 150.079 159.172 150.336 159.47L149.69 160.108C149.27 159.683 148.763 159.47 148.169 159.47C147.781 159.47 147.434 159.552 147.129 159.717C146.83 159.882 146.594 160.114 146.42 160.412C146.252 160.71 146.168 161.051 146.168 161.434C146.168 161.806 146.252 162.142 146.42 162.44C146.594 162.738 146.83 162.972 147.129 163.142C147.434 163.313 147.778 163.398 148.162 163.398C148.592 163.398 148.971 163.302 149.296 163.11V161.37Z" fill="white"/>
<path d="M156.407 164.228L155.28 162.591C155.233 162.597 155.162 162.599 155.067 162.599H153.823V164.228H152.798V158.639H155.067C155.545 158.639 155.96 158.719 156.312 158.879C156.67 159.039 156.943 159.267 157.132 159.566C157.321 159.864 157.415 160.218 157.415 160.627C157.415 161.048 157.313 161.41 157.108 161.713C156.909 162.017 156.62 162.243 156.241 162.392L157.51 164.228H156.407ZM156.383 160.627C156.383 160.271 156.268 159.997 156.037 159.805C155.805 159.613 155.467 159.518 155.02 159.518H153.823V161.745H155.02C155.467 161.745 155.805 161.649 156.037 161.458C156.268 161.261 156.383 160.984 156.383 160.627Z" fill="white"/>
<path d="M159.743 158.639H160.768V164.228H159.743V158.639Z" fill="white"/>
<path d="M164.466 159.51V161.21H167.129V162.088H164.466V164.228H163.441V158.639H167.468V159.51H164.466Z" fill="white"/>
<path d="M170.664 159.51V161.21H173.328V162.088H170.664V164.228H169.64V158.639H173.666V159.51H170.664Z" fill="white"/>
<path d="M178.354 164.308C177.792 164.308 177.285 164.186 176.833 163.941C176.381 163.691 176.027 163.347 175.77 162.911C175.512 162.469 175.383 161.977 175.383 161.434C175.383 160.891 175.512 160.401 175.77 159.965C176.027 159.523 176.381 159.18 176.833 158.935C177.285 158.685 177.792 158.56 178.354 158.56C178.916 158.56 179.423 158.685 179.875 158.935C180.326 159.18 180.681 159.52 180.938 159.957C181.196 160.393 181.324 160.886 181.324 161.434C181.324 161.982 181.196 162.474 180.938 162.911C180.681 163.347 180.326 163.691 179.875 163.941C179.423 164.186 178.916 164.308 178.354 164.308ZM178.354 163.398C178.722 163.398 179.053 163.315 179.347 163.15C179.641 162.98 179.872 162.746 180.04 162.448C180.208 162.144 180.292 161.806 180.292 161.434C180.292 161.061 180.208 160.726 180.04 160.428C179.872 160.124 179.641 159.89 179.347 159.725C179.053 159.555 178.722 159.47 178.354 159.47C177.986 159.47 177.655 159.555 177.361 159.725C177.067 159.89 176.836 160.124 176.668 160.428C176.5 160.726 176.416 161.061 176.416 161.434C176.416 161.806 176.5 162.144 176.668 162.448C176.836 162.746 177.067 162.98 177.361 163.15C177.655 163.315 177.986 163.398 178.354 163.398Z" fill="white"/>
<path d="M188.493 158.639V164.228H187.65L184.608 160.444V164.228H183.592V158.639H184.435L187.477 162.424V158.639H188.493Z" fill="white"/>
<g style="mix-blend-mode:multiply" opacity="0.21">
<rect x="20.198" y="19" width="16" height="403" fill="url(#paint4_linear_4593_4545)"/>
</g>
<g style="mix-blend-mode:multiply" opacity="0.6" filter="url(#filter2_f_4593_4545)">
<rect x="36.198" y="19" width="48" height="403" fill="url(#paint5_linear_4593_4545)"/>
</g>
</g>
</g>
<defs>
<filter id="filter0_d_4593_4545" x="2" y="0" width="323.111" height="423.012" filterUnits="userSpaceOnUse" color-interpolation-filters="sRGB">
<feFlood flood-opacity="0" result="BackgroundImageFix"/>
<feColorMatrix in="SourceAlpha" type="matrix" values="0 0 0 0 0 0 0 0 0 0 0 0 0 0 0 0 0 0 127 0" result="hardAlpha"/>
<feOffset dy="10"/>
<feGaussianBlur stdDeviation="10"/>
<feColorMatrix type="matrix" values="0 0 0 0 0 0 0 0 0 0 0 0 0 0 0 0 0 0 0.15 0"/>
<feBlend mode="normal" in2="BackgroundImageFix" result="effect1_dropShadow_4593_4545"/>
<feBlend mode="normal" in="SourceGraphic" in2="effect1_dropShadow_4593_4545" result="shape"/>
</filter>
<filter id="filter1_d_4593_4545" x="0" y="9" width="293" height="398" filterUnits="userSpaceOnUse" color-interpolation-filters="sRGB">
<feFlood flood-opacity="0" result="BackgroundImageFix"/>
<feColorMatrix in="SourceAlpha" type="matrix" values="0 0 0 0 0 0 0 0 0 0 0 0 0 0 0 0 0 0 127 0" result="hardAlpha"/>
<feOffset dy="10"/>
<feGaussianBlur stdDeviation="10"/>
<feColorMatrix type="matrix" values="0 0 0 0 0 0 0 0 0 0 0 0 0 0 0 0 0 0 0.15 0"/>
<feBlend mode="normal" in2="BackgroundImageFix" result="effect1_dropShadow_4593_4545"/>
<feBlend mode="normal" in="SourceGraphic" in2="effect1_dropShadow_4593_4545" result="shape"/>
</filter>
<filter id="filter2_f_4593_4545" x="34.198" y="17" width="52" height="407" filterUnits="userSpaceOnUse" color-interpolation-filters="sRGB">
<feFlood flood-opacity="0" result="BackgroundImageFix"/>
<feBlend mode="normal" in="SourceGraphic" in2="BackgroundImageFix" result="shape"/>
<feGaussianBlur stdDeviation="1" result="effect1_foregroundBlur_4593_4545"/>
</filter>
<radialGradient id="paint0_radial_4593_4545" cx="0" cy="0" r="1" gradientUnits="userSpaceOnUse" gradientTransform="translate(146.5 198) rotate(-90) scale(239.838 239.903)">
<stop stop-color="#2E34B0"/>
<stop offset="1" stop-color="#151977"/>
</radialGradient>
<linearGradient id="paint1_linear_4593_4545" x1="133.403" y1="64.6678" x2="113.608" y2="206.145" gradientUnits="userSpaceOnUse">
<stop stop-color="#4AB7F3"/>
<stop offset="1" stop-color="#4AB7F3" stop-opacity="0"/>
</linearGradient>
<linearGradient id="paint2_linear_4593_4545" x1="280.667" y1="51.8937" x2="88.6808" y2="42.6273" gradientUnits="userSpaceOnUse">
<stop stop-color="#4AB7F3"/>
<stop offset="1" stop-color="#4AB7F3" stop-opacity="0"/>
</linearGradient>
<linearGradient id="paint3_linear_4593_4545" x1="45.5475" y1="268.942" x2="105.267" y2="315.629" gradientUnits="userSpaceOnUse">
<stop stop-color="#4AB7F3"/>
<stop offset="1" stop-color="#4AB7F3" stop-opacity="0"/>
</linearGradient>
<linearGradient id="paint4_linear_4593_4545" x1="27.198" y1="256.5" x2="36.198" y2="256.5" gradientUnits="userSpaceOnUse">
<stop/>
<stop offset="1" stop-color="white"/>
</linearGradient>
<linearGradient id="paint5_linear_4593_4545" x1="-31.802" y1="256.5" x2="56.198" y2="256.5" gradientUnits="userSpaceOnUse">
<stop/>
<stop offset="1" stop-opacity="0"/>
</linearGradient>
<clipPath id="clip0_4593_4545">
<path d="M20 23C20 20.7909 21.7909 19 24 19H265C269.418 19 273 22.5817 273 27V369C273 373.418 269.418 377 265 377H24C21.7909 377 20 375.209 20 373V23Z" fill="white"/>
</clipPath>
</defs>
</svg>
